/* XPM */
static char * cascade_xpm[] = {
"16 16 160 2",
"  	c None",
". 	c #348DE4",
"+ 	c #459BEB",
"@ 	c #3F91E9",
"# 	c #3785E5",
"$ 	c #2F7BE2",
"% 	c #286FDE",
"& 	c #2064DB",
"* 	c #1858D6",
"= 	c #114ED3",
"- 	c #0B43D0",
"; 	c #0539CC",
"> 	c #0231C9",
", 	c #012CC3",
"' 	c #0023A3",
") 	c #4FA3EF",
"! 	c #79C1FE",
"~ 	c #6AB1FE",
"{ 	c #5EA4FE",
"] 	c #5197FE",
"^ 	c #4589FE",
"/ 	c #397BFE",
"( 	c #2B6BFE",
"_ 	c #205EFE",
": 	c #1650FE",
"< 	c #1042FE",
"[ 	c #0E3DFE",
"} 	c #0E3BFE",
"| 	c #0629BD",
"1 	c #70B2EF",
"2 	c #BBDDFE",
"3 	c #B2D5FE",
"4 	c #ACCFFE",
"5 	c #A6C8FE",
"6 	c #A0C3FE",
"7 	c #9ABCFE",
"8 	c #93B4FE",
"9 	c #8DAEFE",
"0 	c #86A6FE",
"a 	c #7F9FFD",
"b 	c #7B9BFC",
"c 	c #7D9BFB",
"d 	c #3557C1",
"e 	c #8EC0EE",
"f 	c #FBFDFE",
"g 	c #5EA4E9",
"h 	c #479CEB",
"i 	c #4192E9",
"j 	c #3986E5",
"k 	c #317CE2",
"l 	c #2A70DE",
"m 	c #2265DB",
"n 	c #1A59D6",
"o 	c #134FD3",
"p 	c #0D45D0",
"q 	c #073BCC",
"r 	c #0331C8",
"s 	c #90BFED",
"t 	c #FEFEFE",
"u 	c #53A5EF",
"v 	c #8EBDEC",
"w 	c #76B5EF",
"x 	c #8DBBEB",
"y 	c #92C2EE",
"z 	c #FBFCFE",
"A 	c #FAFCFE",
"B 	c #FAFBFE",
"C 	c #F9FBFE",
"D 	c #F7F8FD",
"E 	c #F3F5FA",
"F 	c #F1F2F8",
"G 	c #F5F4F7",
"H 	c #6880C1",
"I 	c #8CBAEA",
"J 	c #94C1ED",
"K 	c #FCFCFD",
"L 	c #F9F9FB",
"M 	c #F6F6F9",
"N 	c #F3F3F7",
"O 	c #F7F5F6",
"P 	c #697FC0",
"Q 	c #8AB8E9",
"R 	c #92BFEC",
"S 	c #FDFDFE",
"T 	c #F5F5F9",
"U 	c #F3F3F6",
"V 	c #F0F0F4",
"W 	c #F4F2F4",
"X 	c #667DBE",
"Y 	c #8AB6E7",
"Z 	c #91BDEB",
"` 	c #FDFDFD",
" .	c #F9F9FC",
"..	c #F0F0F5",
"+.	c #EDEDF3",
"@.	c #F0EEF1",
"#.	c #647BBB",
"$.	c #8AB5E7",
"%.	c #90BCEA",
"&.	c #F8F8FC",
"*.	c #F6F6FA",
"=.	c #F4F4F7",
"-.	c #EFEFF5",
";.	c #ECECF3",
">.	c #E9E9F1",
",.	c #ECEAF0",
"'.	c #6279BA",
").	c #8BB5E6",
"!.	c #8FBBE9",
"~.	c #ECECF2",
"{.	c #E6E6EE",
"].	c #E9E7ED",
"^.	c #6077B9",
"/.	c #508AD5",
"(.	c #86ABDD",
"_.	c #89B5E6",
":.	c #FAFAFC",
"<.	c #F7F7FB",
"[.	c #F3F3F8",
"}.	c #F0F0F6",
"|.	c #E6E6EF",
"1.	c #E3E3ED",
"2.	c #E6E3EC",
"3.	c #5F76B8",
"4.	c #89B4E6",
"5.	c #FBFBFC",
"6.	c #F8F8FB",
"7.	c #F4F4F9",
"8.	c #F1F1F7",
"9.	c #EEEEF4",
"0.	c #EAEAF1",
"a.	c #E7E7F0",
"b.	c #E3E3EE",
"c.	c #E0E0EC",
"d.	c #E3E1EA",
"e.	c #5F75B8",
"f.	c #FEFEFD",
"g.	c #FCFCFB",
"h.	c #FBF8F9",
"i.	c #F8F5F7",
"j.	c #F5F2F5",
"k.	c #F2EFF2",
"l.	c #EEEBF0",
"m.	c #EAE8EE",
"n.	c #E7E4EC",
"o.	c #E5E2EA",
"p.	c #E8E4E9",
"q.	c #6177B8",
"r.	c #81A3D9",
"s.	c #7E9ED4",
"t.	c #7A98CF",
"u.	c #7692CB",
"v.	c #728CC7",
"w.	c #6E86C2",
"x.	c #6A81BE",
"y.	c #677DBB",
"z.	c #667CBA",
"A.	c #657BBA",
"B.	c #687DBA",
"C.	c #2C4CA4",
". + @ # $ % & * = - ; > , '     ",
") ! ~ { ] ^ / ( _ : < [ } |     ",
"1 2 3 4 5 6 7 8 9 0 a b c d     ",
"e f g h i j k l m n o p q r , ' ",
"s t u ! ~ { ] ^ / ( _ : < [ } | ",
"v t w 2 3 4 5 6 7 8 9 0 a b c d ",
"x t y f z z z A B B C D E F G H ",
"I t J t t t t t t t K L M N O P ",
"Q t R t t t t t S K L T U V W X ",
"Y t Z t t t t t `  .M N ..+.@.#.",
"$.t %.t t t t S &.*.=.-.;.>.,.'.",
").t !.t t t S  .M =...~.>.{.].^.",
"/.(._.t t ` :.<.[.}.~.>.|.1.2.3.",
"    4.t S 5.6.7.8.9.0.a.b.c.d.e.",
"    ).t f.g.h.i.j.k.l.m.n.o.p.q.",
"    /.(.r.s.t.u.v.w.x.y.z.A.B.C."};
