/* XPM */
static char * categorize_xpm[] = {
"16 16 211 2",
"  	c None",
". 	c #2D87E1",
"+ 	c #4097E8",
"@ 	c #3C91E7",
"# 	c #3686E3",
"$ 	c #307DE0",
"% 	c #2A74DC",
"& 	c #246AD8",
"* 	c #1E61D5",
"= 	c #1858D1",
"- 	c #1350CE",
"; 	c #0D46CB",
"> 	c #083DC6",
", 	c #0436C4",
"' 	c #022FC0",
") 	c #012BB8",
"! 	c #002299",
"~ 	c #449CEC",
"{ 	c #74C2FE",
"] 	c #64B2FE",
"^ 	c #58A4FE",
"/ 	c #4D99FE",
"( 	c #408BFE",
"_ 	c #357DFE",
": 	c #296FFE",
"< 	c #1D62FE",
"[ 	c #1355FE",
"} 	c #0A48FE",
"| 	c #023AFE",
"1 	c #002FFE",
"2 	c #002EFE",
"3 	c #002CFE",
"4 	c #0021B3",
"5 	c #56A4ED",
"6 	c #99CEFE",
"7 	c #8BC2FE",
"8 	c #83B9FE",
"9 	c #7BB1FE",
"0 	c #73A8FE",
"a 	c #6AA0FE",
"b 	c #6297FE",
"c 	c #598DFE",
"d 	c #5184FE",
"e 	c #487BFE",
"f 	c #3F70FE",
"g 	c #3969FE",
"h 	c #3768FE",
"i 	c #3968FD",
"j 	c #1339B7",
"k 	c #7CB7EC",
"l 	c #F9FCFE",
"m 	c #F7F6F3",
"n 	c #F7F3F0",
"o 	c #F7F7F9",
"p 	c #F2F7FD",
"q 	c #F6F9FE",
"r 	c #F8FCFE",
"s 	c #F8FBFE",
"t 	c #F7F9FE",
"u 	c #F3F7FE",
"v 	c #F1F5FD",
"w 	c #EDF0FC",
"x 	c #F2F2F8",
"y 	c #516DB9",
"z 	c #7FB7EC",
"A 	c #FEFEFE",
"B 	c #F79631",
"C 	c #F67300",
"D 	c #F5CA9A",
"E 	c #92BDF1",
"F 	c #E9E8E8",
"G 	c #E0DEDD",
"H 	c #E1E1E0",
"I 	c #E0E0DE",
"J 	c #DDDCDD",
"K 	c #DBDADA",
"L 	c #DEDEE0",
"M 	c #FDF9F8",
"N 	c #556FB8",
"O 	c #7FB5E9",
"P 	c #F58E24",
"Q 	c #F36800",
"R 	c #F3C592",
"S 	c #92BEF2",
"T 	c #D6D6D6",
"U 	c #C3C3C4",
"V 	c #C5C5C5",
"W 	c #C2C2C4",
"X 	c #BFBFC0",
"Y 	c #C9C9CB",
"Z 	c #F9F6F7",
"` 	c #526CB7",
" .	c #7CB2E9",
"..	c #FEE3C0",
"+.	c #FED8AA",
"@.	c #F8EDE1",
"#.	c #92B6E2",
"$.	c #CBCBCB",
"%.	c #B5B5B5",
"&.	c #B7B7B8",
"*.	c #B6B6B7",
"=.	c #B2B2B3",
"-.	c #BFBFC2",
";.	c #F7F5F6",
">.	c #506BB5",
",.	c #7CB1E8",
"'.	c #ACB5BF",
").	c #909BA8",
"!.	c #D2D8E0",
"~.	c #99B9E3",
"{.	c #F3F3F3",
"].	c #ECECED",
"^.	c #E9E9EC",
"/.	c #E7E7EB",
"(.	c #E4E4E9",
"_.	c #E2E2E7",
":.	c #E2E2E8",
"<.	c #F1EEF1",
"[.	c #4E69B3",
"}.	c #7BB0E7",
"|.	c #FDFDFE",
"1.	c #FCFCFE",
"2.	c #F8F8FE",
"3.	c #F6F6FD",
"4.	c #F3F3FB",
"5.	c #EEEEF7",
"6.	c #EDEBEE",
"7.	c #4D68B2",
"8.	c #79AEE6",
"9.	c #F5C893",
"0.	c #92BDF2",
"a.	c #CBCBCC",
"b.	c #B9B9BB",
"c.	c #B8B8B9",
"d.	c #B7B7B9",
"e.	c #B3B3B6",
"f.	c #BEBEC2",
"g.	c #EDEBF0",
"h.	c #4C67B1",
"i.	c #79ACE4",
"j.	c #F79732",
"k.	c #F67400",
"l.	c #F3C99A",
"m.	c #91BCF1",
"n.	c #F9F9FC",
"o.	c #DEDEE3",
"p.	c #D3D3D8",
"q.	c #D3D3D7",
"r.	c #D1D1D6",
"s.	c #D0D0D6",
"t.	c #CCCCD2",
"u.	c #D1D1D8",
"v.	c #E9E6ED",
"w.	c #4B66B1",
"x.	c #79ABE3",
"y.	c #ECE7E2",
"z.	c #E6E0D7",
"A.	c #EBECEE",
"B.	c #8DB1DD",
"C.	c #FBF9FD",
"D.	c #BCBCBE",
"E.	c #A3A3A4",
"F.	c #A8A8A9",
"G.	c #A7A7A9",
"H.	c #A7A7A8",
"I.	c #A3A3A6",
"J.	c #B0B0B5",
"K.	c #E7E4ED",
"L.	c #4B65B0",
"M.	c #78AAE3",
"N.	c #B8B8B8",
"O.	c #9F9F9F",
"P.	c #D6D7DB",
"Q.	c #B8CFED",
"R.	c #F3F3F8",
"S.	c #F3F3F9",
"T.	c #F0F0F7",
"U.	c #ECECF6",
"V.	c #E9E9F5",
"W.	c #E7E7F2",
"X.	c #E3E3F0",
"Y.	c #E3E1E9",
"Z.	c #4A65B0",
"`.	c #7BAAE2",
" +	c #FEFEFD",
".+	c #FEFEF9",
"++	c #FBF6F7",
"@+	c #F7F2F3",
"#+	c #F5F1F2",
"$+	c #F2EDF0",
"%+	c #EEEBEE",
"&+	c #ECE7ED",
"*+	c #E9E4E9",
"=+	c #E7E3E9",
"-+	c #EDE7E8",
";+	c #4F68B1",
">+	c #3678CF",
",+	c #5F91D3",
"'+	c #5887CE",
")+	c #5481CA",
"!+	c #507AC4",
"~+	c #4C75BF",
"{+	c #486EBC",
"]+	c #4569B7",
"^+	c #4163B2",
"/+	c #3D5DAE",
"(+	c #3A59AA",
"_+	c #3A58AA",
":+	c #3958AA",
"<+	c #3C5AAB",
"[+	c #14389B",
". + @ # $ % & * = - ; > , ' ) ! ",
"~ { ] ^ / ( _ : < [ } | 1 2 3 4 ",
"5 6 7 8 9 0 a b c d e f g h i j ",
"k l m n o p q r l s t u v w x y ",
"z A B C D E A F G H I J K L M N ",
"O A P Q R S A T U V U W X Y Z ` ",
" .A ..+.@.#.A $.%.&.*.*.=.-.;.>.",
",.A '.).!.~.A {.].^./.(._.:.<.[.",
"}.A ..+.@.#.|.A A 1.2.3.4.5.6.7.",
"8.A P Q 9.0.|.a.&.b.c.d.e.f.g.h.",
"i.A j.k.l.m.n.o.p.q.r.s.t.u.v.w.",
"x.A y.z.A.B.C.D.E.F.G.H.I.J.K.L.",
"M.A N.O.P.Q.R.4.S.T.U.V.W.X.Y.Z.",
"`.A A A  +.+++@+#+$+%+&+*+=+-+;+",
">+,+'+)+!+~+{+]+^+/+(+_+:+:+<+[+",
"                                "};
