/* XPM */
static const char *delete_xpm[] = {
/* width height num_colors chars_per_pixel */
"    16    16      256            2",
/* colors */
"`` c None",
"`. c #7db6e9",
"`# c #85bff4",
"`a c #8ec4f9",
"`b c #95cafe",
"`c c #94c5f6",
"`d c #6dafe7",
"`e c #75b6ed",
"`f c #7cbbf3",
"`g c #84c1f8",
"`h c #89c3f9",
"`i c #8fc6fb",
"`j c #b0defe",
"`k c #add9fa",
"`l c #add9ff",
"`m c #8dc3e8",
"`n c #6bb2eb",
"`o c #6eb5ef",
"`p c #72b6f0",
"`q c #79baf3",
"`r c #7dbcf5",
"`s c #90c8f9",
"`t c #bfe9fd",
"`u c #deffff",
"`v c #cdf2ff",
"`w c #d9fbff",
"`x c #c3edfc",
"`y c #b3e2f9",
"`z c #b6e4fa",
"`A c #cbf2fd",
"`B c #dfffff",
"`C c #daf9ef",
"`D c #b5e6bf",
"`E c #c3eccf",
"`F c #40b340",
"`G c #e4ffff",
"`H c #bdd9d9",
"`I c #bde5fc",
"`J c #c9efff",
"`K c #c4eadf",
"`L c #20a620",
"`M c #009900",
"`N c #d6f3ff",
"`O c #a6c4ce",
"`P c #a3cced",
"`Q c #b3dfff",
"`R c #bde4ff",
"`S c #50b950",
"`T c #7dcc80",
"`U c #80cc80",
"`V c #c6e7ff",
"`W c #84a1b3",
"`X c #92bde3",
"`Y c #a2d3ff",
"`Z c #cce7ff",
"`0 c #7ccb80",
"`1 c #e0f8fe",
"`2 c #70c670",
"`3 c #bbe3df",
"`4 c #6f8999",
"`5 c #88aecc",
"`6 c #93c9fd",
"`7 c #b8dcfe",
"`8 c #d1efde",
".` c #8cd28f",
".. c #a0d6ce",
".# c #4b5c69",
".a c #86c0f4",
".b c #82bff7",
".c c #99cff9",
".d c #bce7fc",
".e c #cef4ff",
".f c #e8f9ef",
".g c #c5e9fd",
".h c #4d5959",
".i c #75b0e0",
".j c #b3e3f9",
".k c #d3f7ff",
".l c #b4e0ff",
".m c #a3d4ff",
".n c #c2eccf",
".o c #b0cdd5",
".p c #dafcff",
".q c #bce5ff",
".r c #b0ddff",
".s c #a8d7ff",
".t c #e2f5ff",
".u c #eafcff",
".v c #dbfdff",
".w c #748585",
".x c #94aaaa",
".y c #d9f9fa",
".z c #c3ebff",
".A c #bde6ff",
".B c #c2eaff",
".C c #d8faff",
".D c #a6bfbf",
".E c #495454",
".F c #394242",
".G c #8ba0a0",
".H c #8a9e9e",
".I c #879b9b",
".J c #5c6a6a",
".K c #161919",
".L c #000000",
".M c #000000",
".N c #000000",
".O c #000000",
".P c #000000",
".Q c #000000",
".R c #000000",
".S c #000000",
".T c #000000",
".U c #000000",
".V c #000000",
".W c #000000",
".X c #000000",
".Y c #000000",
".Z c #000000",
".0 c #000000",
".1 c #000000",
".2 c #000000",
".3 c #000000",
".4 c #000000",
".5 c #000000",
".6 c #000000",
".7 c #000000",
".8 c #000000",
"#` c #000000",
"#. c #000000",
"## c #000000",
"#a c #000000",
"#b c #000000",
"#c c #000000",
"#d c #000000",
"#e c #000000",
"#f c #000000",
"#g c #000000",
"#h c #000000",
"#i c #000000",
"#j c #000000",
"#k c #000000",
"#l c #000000",
"#m c #000000",
"#n c #000000",
"#o c #000000",
"#p c #000000",
"#q c #000000",
"#r c #000000",
"#s c #000000",
"#t c #000000",
"#u c #000000",
"#v c #000000",
"#w c #000000",
"#x c #000000",
"#y c #000000",
"#z c #000000",
"#A c #000000",
"#B c #000000",
"#C c #000000",
"#D c #000000",
"#E c #000000",
"#F c #000000",
"#G c #000000",
"#H c #000000",
"#I c #000000",
"#J c #000000",
"#K c #000000",
"#L c #000000",
"#M c #000000",
"#N c #000000",
"#O c #000000",
"#P c #000000",
"#Q c #000000",
"#R c #000000",
"#S c #000000",
"#T c #000000",
"#U c #000000",
"#V c #000000",
"#W c #000000",
"#X c #000000",
"#Y c #000000",
"#Z c #000000",
"#0 c #000000",
"#1 c #000000",
"#2 c #000000",
"#3 c #000000",
"#4 c #000000",
"#5 c #000000",
"#6 c #000000",
"#7 c #000000",
"#8 c #000000",
"a` c #000000",
"a. c #000000",
"a# c #000000",
"aa c #000000",
"ab c #000000",
"ac c #000000",
"ad c #000000",
"ae c #000000",
"af c #000000",
"ag c #000000",
"ah c #000000",
"ai c #000000",
"aj c #000000",
"ak c #000000",
"al c #000000",
"am c #000000",
"an c #000000",
"ao c #000000",
"ap c #000000",
"aq c #000000",
"ar c #000000",
"as c #000000",
"at c #000000",
"au c #000000",
"av c #000000",
"aw c #000000",
"ax c #000000",
"ay c #000000",
"az c #000000",
"aA c #000000",
"aB c #000000",
"aC c #000000",
"aD c #000000",
"aE c #000000",
"aF c #000000",
"aG c #000000",
"aH c #000000",
"aI c #000000",
"aJ c #000000",
"aK c #000000",
"aL c #000000",
"aM c #000000",
"aN c #000000",
"aO c #000000",
"aP c #000000",
"aQ c #000000",
"aR c #000000",
"aS c #000000",
"aT c #000000",
"aU c #000000",
"aV c #000000",
"aW c #000000",
"aX c #000000",
"aY c #000000",
"aZ c #000000",
"a0 c #000000",
"a1 c #000000",
"a2 c #000000",
"a3 c #000000",
"a4 c #000000",
"a5 c #000000",
"a6 c #000000",
"a7 c #000000",
"a8 c #000000",
/* pixels */
"`````````````````.`#`a`b`c``````",
"`````````````d`e`f`g`h`i`j``````",
"`k`l`l`l`m`n`o`p`q`r`s`t`u``````",
"`v`u`u`u`u`w`x`y`z`A`B`u`u``````",
"`v`u`u`u`u`u`u`C`D`E`F`G`H``````",
"`I`J`J`J`J`J`K`L`M`M`F`N`O``````",
"`P`Q`Q`Q`Q`R`S`T`U`M`F`V`W``````",
"`X`Y`Y`Y`Y`Z`0`1`2`F`F`3`4``````",
"`5`6`6`6`6`7`F`F`L`8.`...#``````",
"``.a.b.c.d.e`F`M`S.f`F.g.h``````",
"``.i.j.k.l.m`F`M`M`L.n`u````````",
"``.o.p.q.r.s`F.t.t.u.v.w````````",
"``.x.y`v.z.A.B`v.C.D.E``````````",
"````.F.G.H.I.I.J.K``````````````",
"````````````````````````````````",
"````````````````````````````````"
};
