/* XPM */
static const char * document_xpm[] = {
"16 16 67 1",
" 	c None",
".	c #7B7B7B",
"+	c #8B8B8B",
"@	c #969696",
"#	c #7F7F7F",
"$	c #ECECEC",
"%	c #BEBEBE",
"&	c #E4E4E4",
"*	c #C3C3C3",
"=	c #E8E8E8",
"-	c #D4D4D4",
";	c #DBDBDB",
">	c #656565",
",	c #D5D5D5",
"'	c #CDCDCD",
")	c #EBEBEB",
"!	c #DEDEDE",
"~	c #DADAE1",
"{	c #C6C6C9",
"]	c #747474",
"^	c #D9D9D9",
"/	c #E5E5E5",
"(	c #EEEEEE",
"_	c #EAEAED",
":	c #E0E0E1",
"<	c #787878",
"[	c #F1F1F1",
"}	c #C7C7C7",
"|	c #DCDCDC",
"1	c #7A7A7A",
"2	c #F4F4F4",
"3	c #D6D6D9",
"4	c #C2C2C7",
"5	c #DFDFE5",
"6	c #CECED2",
"7	c #F6F6F6",
"8	c #E9E9EB",
"9	c #EAEAEF",
"0	c #E7E7E7",
"a	c #EEEEF1",
"b	c #F3F3F4",
"c	c #7C7C7C",
"d	c #F8F8F8",
"e	c #E1E1E1",
"f	c #CDCDCF",
"g	c #D7D7D8",
"h	c #7D7D7D",
"i	c #FAFAFA",
"j	c #D1D1D5",
"k	c #E0E0E6",
"l	c #E5E5EC",
"m	c #FBFBFB",
"n	c #F8F8F9",
"o	c #EBEBEE",
"p	c #EEEEF0",
"q	c #F9F9FA",
"r	c #7E7E7E",
"s	c #FCFCFC",
"t	c #D5D5D7",
"u	c #FDFDFD",
"v	c #D2D2D6",
"w	c #E3E3EB",
"x	c #FEFEFE",
"y	c #FAFAFB",
"z	c #F5F5F5",
"A	c #FFFFFF",
"B	c #9A9A9A",
"    .+@@@@@@@@  ",
"   #$%&&&&&&&&. ",
"  #$$*=====-;=. ",
" >$$,'))))!~{). ",
" ]^,,/(((((_:(. ",
" <[[[[[[[[[}|[. ",
" 1222234!2/562. ",
" .777789077ab7. ",
" cdefddddddfgd. ",
" hijk)iiii)lji. ",
" hmnommmmmmpqm. ",
" rs;tsssssst;s. ",
" ruvw(uuuu(wvu. ",
" #xyyxxxxxxyzx. ",
" #AAAAAAAAAAAA. ",
"  BBBBBBBBBBBB. "};
