/* XPM */
static const char *donedit_xpm[] = {
/* width height num_colors chars_per_pixel */
"    48    48      256            2",
/* colors */
"`` c #040204",
"`. c #848284",
"`# c #444244",
"`a c #c4c2c4",
"`b c #242224",
"`c c #646264",
"`d c #a4a2a4",
"`e c #e4e2e4",
"`f c #343234",
"`g c #141214",
"`h c #747274",
"`i c #545254",
"`j c #949294",
"`k c #b4b2b4",
"`l c #d4d2d4",
"`m c #34222c",
"`n c #f4f2f4",
"`o c #44363c",
"`p c #241614",
"`q c #1c060c",
"`r c #84767c",
"`s c #6c6a6c",
"`t c #64525c",
"`u c #54464c",
"`v c #948a8c",
"`w c #b4aaac",
"`x c #cccacc",
"`y c #9c9a9c",
"`z c #343a34",
"`A c #bcbabc",
"`B c #dcdadc",
"`C c #241e1c",
"`D c #140a0c",
"`E c #eceaec",
"`F c #342a2c",
"`G c #8c8a8c",
"`H c #4c4a4c",
"`I c #2c2a2c",
"`J c #746264",
"`K c #acaaac",
"`L c #7c7a7c",
"`M c #5c5a5c",
"`N c #fcfafc",
"`O c #847e7c",
"`P c #140204",
"`Q c #3c3234",
"`R c #1c1a1c",
"`S c #443e3c",
"`T c #2c161c",
"`U c #1c0e14",
"`V c #746a6c",
"`W c #645a5c",
"`X c #3c2a2c",
"`Y c #8c8284",
"`Z c #4c4244",
"`0 c #ccc2c4",
"`1 c #2c2224",
"`2 c #6c6264",
"`3 c #aca2a4",
"`4 c #1c1214",
"`5 c #7c7274",
"`6 c #5c5254",
"`7 c #9c9294",
"`8 c #bcb2b4",
".` c #dcd2d4",
".. c #fcf2f4",
".# c #544e4c",
".a c #d4cacc",
".b c #a49a9c",
".c c #0c0204",
".d c #ece6e4",
".e c #4c3a44",
".f c #1c0a0c",
".g c #9c8e94",
".h c #bcaeb4",
".i c #c4bebc",
".j c #e4dedc",
".k c #f4eeec",
".l c #8c7e7c",
".m c #3c3634",
".n c #746e6c",
".o c #6c5e64",
".p c #443a3c",
".q c #241a1c",
".r c #8c7a7c",
".s c #948e8c",
".t c #b4aeac",
".u c #3c3a3c",
".v c #2c1e24",
".w c #342e2c",
".x c #2c1a1c",
".y c #645e5c",
".z c #3c2e2c",
".A c #8c8684",
".B c #4c4644",
".C c #ccc6c4",
".D c #2c2624",
".E c #6c6664",
".F c #aca6a4",
".G c #1c1614",
".H c #7c7674",
".I c #5c5654",
".J c #9c9694",
".K c #bcb6b4",
".L c #dcd6d4",
".M c #fcf6f4",
".N c #5c4e54",
".O c #d4cecc",
".P c #a49e9c",
".Q c #0c0604",
".R c #848684",
".S c #444644",
".T c #c4c6c4",
".U c #242624",
".V c #646664",
".W c #a4a6a4",
".X c #e4e6e4",
".Y c #343634",
".Z c #141614",
".0 c #747674",
".1 c #545654",
".2 c #949694",
".3 c #b4b6b4",
".4 c #d4d6d4",
".5 c #34262c",
".6 c #f4f6f4",
".7 c #24161c",
".8 c #1c0614",
"#` c #847a7c",
"#. c #240e14",
"## c #140e14",
"#a c #74666c",
"#b c #14060c",
"#c c #6c6e6c",
"#d c #64565c",
"#e c #544a4c",
"#f c #cccecc",
"#g c #9c9e9c",
"#h c #bcbebc",
"#i c #dcdedc",
"#j c #eceeec",
"#k c #8c8e8c",
"#l c #4c4e4c",
"#m c #2c2e2c",
"#n c #acaeac",
"#o c #7c7e7c",
"#p c #5c5e5c",
"#q c #fcfefc",
"#r c #3c3e3c",
"#s c #241e24",
"#t c #847e84",
"#u c #3c323c",
"#v c #443e44",
"#w c #746a74",
"#x c #544e54",
"#y c #ece6ec",
"#z c #1c0a14",
"#A c #c4bec4",
"#B c #e4dee4",
"#C c #f4eef4",
"#D c #8c7e84",
"#E c #3c363c",
"#F c #746e74",
"#G c #443a44",
"#H c #948e94",
"#I c #b4aeb4",
"#J c #342e34",
"#K c #2c1a24",
"#L c #645e64",
"#M c #3c2e34",
"#N c #8c868c",
"#O c #4c464c",
"#P c #ccc6cc",
"#Q c #2c262c",
"#R c #6c666c",
"#S c #aca6ac",
"#T c #1c161c",
"#U c #7c767c",
"#V c #5c565c",
"#W c #9c969c",
"#X c #bcb6bc",
"#Y c #dcd6dc",
"#Z c #fcf6fc",
"#0 c #d4ced4",
"#1 c #a49ea4",
"#2 c #0c060c",
"#3 c #000000",
"#4 c #000000",
"#5 c #000000",
"#6 c #000000",
"#7 c #000000",
"#8 c #000000",
"a` c #000000",
"a. c #000000",
"a# c #000000",
"aa c #000000",
"ab c #000000",
"ac c #000000",
"ad c #000000",
"ae c #000000",
"af c #000000",
"ag c #000000",
"ah c #000000",
"ai c #000000",
"aj c #000000",
"ak c #000000",
"al c #000000",
"am c #000000",
"an c #000000",
"ao c #000000",
"ap c #000000",
"aq c #000000",
"ar c #000000",
"as c #000000",
"at c #000000",
"au c #000000",
"av c #000000",
"aw c #000000",
"ax c #000000",
"ay c #000000",
"az c #000000",
"aA c #000000",
"aB c #000000",
"aC c #000000",
"aD c #000000",
"aE c #000000",
"aF c #000000",
"aG c #000000",
"aH c #000000",
"aI c #000000",
"aJ c #000000",
"aK c #000000",
"aL c #000000",
"aM c #000000",
"aN c #000000",
"aO c #000000",
"aP c #000000",
"aQ c #000000",
"aR c #000000",
"aS c #000000",
"aT c #000000",
"aU c #000000",
"aV c #000000",
"aW c #000000",
"aX c #000000",
"aY c #000000",
"aZ c #000000",
"a0 c #000000",
"a1 c #000000",
"a2 c #000000",
"a3 c #000000",
"a4 c #000000",
"a5 c #000000",
"a6 c #000000",
"a7 c #000000",
"a8 c #000000",
/* pixels */
"```F`o`#`u.#`6#V`W`c`2.E`V`h`5`5.H#U#U#``L`O#t#t#D#t#D#t#t`O#t#``L.H`5#F`V#R`2.y#L#V.N.##O`Z`Q``",
"`1`v#X.i`a#P#f`l.L#i#B.d`E.k#C`n`n.M.M.M`N#Z`N#q#q#q#q#q#q`N.M`N.M`n`n.k`E.X#B`B.L`l`x.C#A`A`7`F",
"#M.P#f`l.L#i#B.d`E.k`n.M#q#q#q#q#q#q#q#q#q#q#q#q#q#q#q#q#q#q#q#q#q#q#q#q`N.M`n.k#y.X.j`B.4.O`K#u",
"#v`3`x#Y`B`e.X`E#C.6#Z#q#q#q#q#q#q#q`B#Y#q#q#q#q#q#q#q#q#B.4#q#q#q#q#q#q#q`N.6`n#j#y`e.j#i#B.K#v",
".#`3#f`B.j.X`E#j`n.6`N#q#q#q#q#q#q#Z`x.s#q#q#q#q#q#q#q#q#g`a`n#q#q#q#q#q#q#q#Z`n#j`E.X`e`e.k`x`6",
"`W#S`l`B`e#y`E#j`n`n`N#q#q#q#q#q#q.6`l#k#q#q#q#q#q#q#q#q`y`x`n#q#q#q#q#q#q#q.6.6#C`E.X.d`n`N#Y`V",
"#R`K.K`a`x.4.d`n`n.6.6.``a#Y#q#q#q`n#f`j.X`E`E`E`E#j#j`E#W`x#j#q#q`n`E`E.d#y#C`B.L.O`l.X`N`N.j.H",
".H`3`V`h#`.R`7`B`N`N.i#D`..A#A#q#q.6#f#H`A#A`A#h`A`A`A`A.2`x#j#q#q`8`v.s#N.i.j#k#N`.`O`y#j`N#y#`",
"`Y#S`W#c`h.0#U`y.6#B.A`L#`#t`G.d#q`n#f#W#h`A`A`A.K`A`k#h`y.C`E#q#q.t`L#t`L`A#B.A`L.0`h`h.i`N`E#`",
"`v#I`6#R#U#`.0`Y#y.T`h`O`K`G`L.a#q`n`x`G.3`l.K`l`B`k`x.K.R`a`E#q#q#S.n`h`s.t#i#t.0`O`h#F.F.6#y#`",
"`j.i#e#p#1`k#R`h`B.K`s#N.d.s.n`A#q`n.i`.`k`n.3`n`N.3`E`A`L`A`e#q`N.b`c#``8`l.L#U.E`k#W.E`y`n.k#`",
".J#A`Z`M.F`A`M.E#Y.t`2#N.X`v`s#I#q`E`a`.`k`n.K.k`N.K.d`A#U`k.X#q#Z#W`6`G`n`N#0.n#p.K#1`c#W`n.k#t",
".b`0.p#x.P.K.#.y`l`K`c.A`E`v#R`w#q.X`A.A.t.4`k.4.j#n`l.3#U`d`B#q.M.J`i`..k.6`l#R`6#I.P`M.s`E#C#t",
"#1.C#G`#`y#I.S`i#0`w.y`..k`G#R`w#q.j`K`L.t#h#I#h`0#n`A`k`L#k.K#Z.6`7#x`Y`E`n.O`2.##n`y`i.A`E`n`O",
"`d.a.p#J.J.t.p.#`l`K#L.A`n.P`Y.3#q`A#H#o`k`n`k`n#q`A`E`A`O#k`y`n`N.s`i`2.A#A`l`c.#`w`y`i`r.d#C`O",
"`3.a`o`R#H#S.D.u#f.P.S`s`n#q#q#q#q.P`y.R`k.M.3#Z#q`A`n#h#U`A`d.L#q#t.u#r`f.F`l`H#E.W#W#l#F.X#C#`",
"#S.O.q``.R#1.Z.Y`x#g`##c#Z#q#q#q`e#g`a`.`k`n`A`n#q`A`E.i.0`x.3#P#q`..u`##m`d.O`##m#1#k.Y.##B`n#`",
"`w.a.q``.R`3.U#r#0#1.S#F.6#q#q#q`x#S.O#H`K`k`K`k`k#I`k#n#H`x.4.t.6`Y`#.#`L.i#f.S`f.P#k.Y`##i`E.H",
"`K#0.D``#k#n#E`H`l.P#l.0`n`d.s#X`k.T#f`G`a.C.i#f`0`a`a`a`j`a.X`k.j.s#O`h#j.6#P`H`f`d.s.u#v.j.d#F",
"`w`l.w``#k#I`#`i.L`d.1#``n#D`V`7.P.j`x`y.K`A`A`A`A`A`A`A#g.C`n.T`a#H`6`L`n.M.T`i.B`d`j`#`#.j#B#a",
".F#0.m.c.s`k#e#p#Y`K#L#``n.A#U`.`k#j`x`.#j.6.6.6.6`N.6`n`G`a.6.X`K`v`2.A.6#q`x`W#x.F#W.B#O`B.L#L",
"#1.O#G#T#k#I`i`2`B`k`c`O#C.A#U.s`x#q#P.R#q#q#q#q#q#q#q#q`j.T`n#q#I`.`5`v.X#C#f`c`M`K`j#e#e`B.``W",
"`y`0`#.w`2`L`c.E#i.i`2#``x#N#D#g#j#q#P`G#q#q#q#q#q#q#q#q.J`a`n#q.C#W.r#``5`7#P.E.o`O`h#e.#.4`0`i",
"`G.i`Z#E.B.y`2`V`E#0#F`r#`#D.s#I#q`N`x`G#q#q#q#q#q#q#q#q`y`x`n#q`B`K#`#`#F#k.T#R`2#L#L.B`6#Y#X.#",
"`5`K`o#M.p`W`6`..6`n`Y`r#`.l`y.T#q.M`x`G#q#q#q#q#q#q#q#q.b`x`n#q`n.3#N#U#a#N`a`W#d`W#V`F`L.L`w#O",
".y#1`s.n#U`G.b.4`N#q.j#H#N#H.F#y#q`N`x#k#q#q#q#q#q#q#q#q.P`x`n#q#q`a#S`K`d`w`x#k#N`.`L.H#A`x.b`S",
"#O`y.t#A#f`B.X#j`n#q#q#q.M`0#n#q#q#j`x.s#q#q#q#q#q#q#q#q#1#f.X#q#q#0`A`n`N#j#i.L#f`a`A`k.T`A`7.Y",
"`#.s#S`A.T#f#i.X#C.6#q#q#q#I`x#q`e`w#f`G`K`8#X`A.i.i`A`8`j.4.i.`#q#j`k`B.6.d`B#f.T`A`K.W#X#n`v`I",
".m#N#g`k#h`x.4#i`E`n`N#q#Y`d`n.j`d#X`x`Y#t`K.t.g`7#A.F.s`G.a`0#X`l#Z`A.i`E#i#f`x`A#n#g.P#n#S`O.v",
"`I#`.2`K.3`a#f`B`e.X.6`n.t`k`B`K`w`0`y#`.A`7`7.2#W.P#1`7`v#1`x`8`x`l`A`K.4`B#f#h#n`K.2`7`d`y`5`4",
".q`V`G`d#n`A.T#0`B.X`n`l.2`d.i.t`k`K`V#F`K`A.A.s.g#W.O#W`G#``k.h`A#f`y.J`A#f`a`k`K`y`G#k#W#H#a.c",
"`D`c`..J.F#n#h.T`l`B`e.F`G`K`A.W`K`V`s`V.s`G`Y`v`v`v#1`v`Y#`#`#n`3.i#h`G.P#h.3`K#g.2`.`.#N`..y``",
".c`M`L`j`y.W`k#h.T.4#h`j`K`K#W.b`L`6.y.A`j`5#`#D`Y`Y#N#S#`.H#a`G`7`j`A`K.s.W`k#1.2`G`L#U`L`5#e``",
"``.#`h.A`j`y`K`k#h#P#k`G`j.s`y`O#O`6`M.i#W#w#U`r#`#U`r`x.b#a`V#L.A.s`G.P`.#k#S.J#k`.`h`h`V.V.e``",
"```Z`s`O`G`j#g`w.3#g.s#U.2`V`h`H.B#x`6`s`2#a.n`5`h`5.n`5`5#a`2`W#L`5#R`G`.`h#H.2`G`L`V.E.V.y`Q``",
"``.p.y.0`.`G`j`G#U.0.0#R#k`L.#`Q`#`Z.#`6#d#L`2`2#a#a`V`J`J.o`t.N.B`6`V#t`2.D`S`M#R.0#R`c`c`6`F``",
"```Q`M#F`L.R`M``````#l#e#l#O.D#J#J.E#W`H.N`6`W`W#L.o.o`t#N#W`H`u`Z.p`H.B#O.m``````.I.V#L#p#x`m``",
"```F#l`c`h`M`````````i#p.p`R`b`I`F#g.H.u`Z#e#x`6`6.N`6.#`W`K`M.p`o.w`I#E.#`#`````````i#p`M.#.v``",
"``.v#l.y`s.u#r#F#c```f.###`D#T.q#m.##J.m`o.p`Z.B`u.B`u.B`Z`6`u`f.w#Q.7.v`S`b#2`i#l`R#v`6`M#O.7``",
"```p#v#V`c.S#O`L.H````#2````#2`g#T`p`1`F#J`Q`o`o`o.p`o`o`Q.w`F`I`1.7`D```D```R.V`2`f`#`i`i.B#.``",
"```P#E.#`M`H#J#c#F.Z````````````.c#2`4.7.v#Q.5`F`F`F`F`I`I`1.v.q`U```````````b`c`M`b.S#x.#`#.8``",
"``.c`f`H`i.##Q.y`s`R```I````````````#b`D.G.q.q.q#s.v#s.v.v.q.7##`D.m##```````I`M.#.q.S`H#O.p`P``",
"````.w.S#x#l`R`i`c`I```c`s#p`c.V`s`s`h`h.n`h#F`h`h`h.n#c`s.E`c`c`c`h.I```````f`i.B.Z`Z#O.S#u.c``",
"````#Q`S`H.#`R`#.y`f```H`h`h`5#U`L`O`.`.`.`.`.`.`O`O#o`L`L.H.0.n#c`c`c`f````.m`i.u#T`##v#r`Q````",
"````.q`f#v.S#s`f`M.u``.G.u.u.u#r`#.S.S#O.B#O.B.B`H.S#O.B.S#v`S#E.m`f#J`I`````##l`f##.u.m#E.5````",
"``````.G`1#m#T``.U.Q``.Y`#`#`##O.B#e#l#x.##l#x.##x.#`H`H#O.S.S#v#E.u.m`f#2```b`I##```1.q.q`P````",
"````````````````````#b`T.7.v.D.5`F`F`F#M#J`Q#J#J`f.z`F`F.5`1#K.x.7.f#b`U`P``````````````````````",
"````````````````````````````````````````````````````````````````````````````````````````````````"
};
