/* XPM */
static const char * filter_xpm[] = {
"16 16 90 1",
" 	c None",
".	c #666666",
"+	c #555555",
"@	c #515151",
"#	c #414141",
"$	c #353535",
"%	c #313131",
"&	c #3B3B3B",
"*	c #4D4D4D",
"=	c #4B4B4B",
"-	c #262C33",
";	c #5E7996",
">	c #A7C7E7",
",	c #1A73CC",
"'	c #1D5D9D",
")	c #1F3952",
"!	c #505050",
"~	c #4A4A4A",
"{	c #80B1E2",
"]	c #BAD9FB",
"^	c #FFFFFF",
"/	c #599CDF",
"(	c #429DF8",
"_	c #248AF0",
":	c #3174BA",
"<	c #494949",
"[	c #464646",
"}	c #EBEBEB",
"|	c #9AC3F0",
"1	c #E4F0FD",
"2	c #BFCBD8",
"3	c #7F7F7F",
"4	c #536F8B",
"5	c #45A1FD",
"6	c #328EED",
"7	c #CEDBE8",
"8	c #BABABA",
"9	c #F8F8F8",
"0	c #96C3EF",
"a	c #4FA4FD",
"b	c #586B7F",
"c	c #3F3F3F",
"d	c #333333",
"e	c #63B0FD",
"f	c #3692F1",
"g	c #C4DEF7",
"h	c #E2E2E2",
"i	c #7A7A7A",
"j	c #EDEDED",
"k	c #DDEAF7",
"l	c #3B94F2",
"m	c #6491BE",
"n	c #464F58",
"o	c #5FAFFE",
"p	c #3792F2",
"q	c #E9EFF5",
"r	c #EEEEEE",
"s	c #DCDCDC",
"t	c #434343",
"u	c #ECECEC",
"v	c #86BAF0",
"w	c #59A7FB",
"x	c #69A7E4",
"y	c #6DB5FE",
"z	c #3F9EFE",
"A	c #62A7EF",
"B	c #F1F1F1",
"C	c #E6E6E6",
"D	c #BCBCBC",
"E	c #3D3D3D",
"F	c #696969",
"G	c #C4C4C4",
"H	c #96C4F4",
"I	c #4599F2",
"J	c #3893F2",
"K	c #69ACF2",
"L	c #EBF1F8",
"M	c #E9E9E9",
"N	c #E3E3E3",
"O	c #DDDDDD",
"P	c #6B6B6B",
"Q	c #4E4E4E",
"R	c #959595",
"S	c #C3C3C3",
"T	c #F7F7F7",
"U	c #F5F5F5",
"V	c #EAEAEA",
"W	c #ACACAC",
"X	c #707070",
"Y	c #C6C6C6",
"     ..         ",
"   ......       ",
"  ........      ",
" ..      ..     ",
".    ++    .    ",
"   @#$%&*   .   ",
"  =-;>,')$!  .  ",
" ~*{]^/(_:$<  . ",
"+[}|1234567=<   ",
"+890abcdefgh=<  ",
" ijklmdnopqrst! ",
"  iuvwxyzABuCDE ",
"   FGHIJKLrMNOPQ",
"     RSTUrVsWX  ",
"         Y      ",
"                "};
