/* XPM */
static const char * identity_xpm[] = {
"16 16 87 1",
" 	c None",
".	c #333333",
"+	c #616161",
"@	c #282828",
"#	c #323232",
"$	c #313131",
"%	c #676767",
"&	c #7A7A7A",
"*	c #656565",
"=	c #BBBBBB",
"-	c #8C8C8C",
";	c #8D8D8D",
">	c #B7B7B7",
",	c #878787",
"'	c #727272",
")	c #D2D2D2",
"!	c #E9E9E9",
"~	c #EBEBEB",
"{	c #EDEDED",
"]	c #ECECEC",
"^	c #DFDFDF",
"/	c #DDDDDD",
"(	c #D9D9D9",
"_	c #C4C4C4",
":	c #8F8F8F",
"<	c #6C6C6C",
"[	c #9C9C9C",
"}	c #9E9E9E",
"|	c #A5A5A5",
"1	c #ACACB9",
"2	c #9C9CA9",
"3	c #9B9BB5",
"4	c #9A9AC0",
"5	c #A4A4C5",
"6	c #ACACD9",
"7	c #7E7E94",
"8	c #343434",
"9	c #424242",
"0	c #B2B2D9",
"a	c #BDBDDF",
"b	c #C8C8E6",
"c	c #D2D2EC",
"d	c #DBDBF2",
"e	c #E7E7FC",
"f	c #EAEAFF",
"g	c #E6E6FF",
"h	c #E2E2FF",
"i	c #868697",
"j	c #272727",
"k	c #FBFBFF",
"l	c #F8F8FF",
"m	c #F5F5FF",
"n	c #F1F1FF",
"o	c #EDEDFF",
"p	c #DEDEFF",
"q	c #838396",
"r	c #2F2F2F",
"s	c #DBDBFF",
"t	c #828297",
"u	c #D7D7FF",
"v	c #808097",
"w	c #D4D4FF",
"x	c #7E7E97",
"y	c #2E2E2E",
"z	c #D0D0FF",
"A	c #7C7C97",
"B	c #B9B9E6",
"C	c #67677C",
"D	c #303030",
"E	c #BCBCD9",
"F	c #BABAD3",
"G	c #858598",
"H	c #4F4F5C",
"I	c #29292D",
"J	c #484848",
"K	c #48484F",
"L	c #9F9F9F",
"M	c #5B5B5B",
"N	c #A0A0A0",
"O	c #888888",
"P	c #363636",
"Q	c #222222",
"R	c #939393",
"S	c #797979",
"T	c #646464",
"U	c #545454",
"V	c #454545",
"      .+@       ",
" .#$%&*=-;->=,  ",
" ')!~{]]]^/(_:  ",
" <[}|12334567   ",
" 890abcdefghi   ",
"  jklmnofghpq   ",
"  rlmnofghpst   ",
"  $mnofghpsuv   ",
"  $nofghpsuwx   ",
"  yofghpsuwzA   ",
"  rfghpsuwzBC   ",
"  DghpEFGHI     ",
"  yJKJJLM       ",
"      N};OP     ",
"    QRS  TU     ",
"    #V          "};
