/* XPM */
static const char * init_xpm[] = {
"16 16 72 1",
" 	c None",
".	c #747474",
"+	c #8B8B8B",
"@	c #969696",
"#	c #ECECEC",
"$	c #BEBEBE",
"%	c #E4E4E4",
"&	c #C3C3C3",
"*	c #E8E8E8",
"=	c #D5D5D5",
"-	c #CDCDCD",
";	c #EBEBEB",
">	c #D9D9D9",
",	c #C6C6C6",
"'	c #AAAAAA",
")	c #B2B2B2",
"!	c #787878",
"~	c #F1F1F1",
"{	c #7590BA",
"]	c #79ACFF",
"^	c #8FBAFF",
"/	c #92BBFF",
"(	c #7EAFFF",
"_	c #7A7A7A",
":	c #F4F4F4",
"<	c #6587BC",
"[	c #98BEFA",
"}	c #B3CEFA",
"|	c #BCD4FA",
"1	c #9EC2FB",
"2	c #193C73",
"3	c #7B7B7B",
"4	c #F6F6F6",
"5	c #557EBD",
"6	c #EAEAF0",
"7	c #BCD0F4",
"8	c #153A73",
"9	c #7C7C7C",
"0	c #F8F8F8",
"a	c #517DBD",
"b	c #EFEFF3",
"c	c #BDD3F6",
"d	c #113973",
"e	c #7D7D7D",
"f	c #FAFAFA",
"g	c #4E7BBE",
"h	c #F4F4F7",
"i	c #BFD6F9",
"j	c #0E3773",
"k	c #FBFBFB",
"l	c #4A7ABE",
"m	c #F9F9FB",
"n	c #C1D9FC",
"o	c #0A3673",
"p	c #7E7E7E",
"q	c #FCFCFC",
"r	c #4678BE",
"s	c #FEFEFE",
"t	c #C2DBFE",
"u	c #063473",
"v	c #FDFDFD",
"w	c #4277BE",
"x	c #FFFFFF",
"y	c #C0DBFF",
"z	c #023273",
"A	c #7F7F7F",
"B	c #4F75A8",
"C	c #3F70B1",
"D	c #2F67B1",
"E	c #F5F5F5",
"F	c #F2F2F2",
"G	c #9A9A9A",
"    .+@@@@@@@@  ",
"   .#$%%%%%%%%. ",
"  .##&********. ",
" .##=-;;;;;;;;. ",
" .>=,')))))))). ",
" !~~{]]]]]]]^/( ",
" _::<[[[[[[[}|12",
" 344566666666678",
" 900abbbbbbbbbcd",
" effghhhhhhhhhij",
" ekklmmmmmmmmmno",
" pqqrssssssssstu",
" pvvwxxxxxxxxxyz",
" AssBCCCCCCCCCD ",
" AxxxEFFFFFFFF. ",
"  GGGGGGGGGGGG. "};
