/* XPM */
static char * objectlist_xpm[] = {
"16 16 203 2",
"  	c None",
". 	c #2D87E1",
"+ 	c #4097E8",
"@ 	c #3C91E7",
"# 	c #3686E3",
"$ 	c #307DE0",
"% 	c #2A74DC",
"& 	c #246AD8",
"* 	c #1E61D5",
"= 	c #1858D1",
"- 	c #1350CE",
"; 	c #0D46CB",
"> 	c #083DC6",
", 	c #0436C4",
"' 	c #022FC0",
") 	c #012BB8",
"! 	c #002299",
"~ 	c #449CEC",
"{ 	c #74C2FE",
"] 	c #64B2FE",
"^ 	c #58A4FE",
"/ 	c #4D99FE",
"( 	c #408BFE",
"_ 	c #357DFE",
": 	c #296FFE",
"< 	c #1D62FE",
"[ 	c #1355FE",
"} 	c #0A48FE",
"| 	c #023AFE",
"1 	c #002FFE",
"2 	c #002EFE",
"3 	c #002CFE",
"4 	c #0021B3",
"5 	c #56A4ED",
"6 	c #99CEFE",
"7 	c #8CC3FE",
"8 	c #87BEFE",
"9 	c #7BB1FE",
"0 	c #73A8FE",
"a 	c #6AA0FE",
"b 	c #6297FE",
"c 	c #598DFE",
"d 	c #5184FE",
"e 	c #487BFE",
"f 	c #3F70FE",
"g 	c #3969FE",
"h 	c #3768FE",
"i 	c #3968FD",
"j 	c #1339B7",
"k 	c #7CB7EC",
"l 	c #F9FCFE",
"m 	c #E4E7EB",
"n 	c #B3B6B9",
"o 	c #F7F9FE",
"p 	c #F6F9FE",
"q 	c #F6FCFE",
"r 	c #F6FDFE",
"s 	c #F5FCFE",
"t 	c #F3F7FE",
"u 	c #F0F3FC",
"v 	c #EDF1F9",
"w 	c #EBEDF8",
"x 	c #F2F2F8",
"y 	c #516DB9",
"z 	c #7FB7EC",
"A 	c #FEFEFE",
"B 	c #E9E8E8",
"C 	c #B0B0AF",
"D 	c #FEEBD2",
"E 	c #FEE1BF",
"F 	c #FEE2C0",
"G 	c #FDF8F2",
"H 	c #FBFBFC",
"I 	c #F7F7F8",
"J 	c #F5F5F7",
"K 	c #FCF8F7",
"L 	c #556FB8",
"M 	c #7FB5E9",
"N 	c #E7E7E7",
"O 	c #B3B3B3",
"P 	c #F69837",
"Q 	c #F36F00",
"R 	c #F37200",
"S 	c #F7DEC3",
"T 	c #F6FBFE",
"U 	c #F3F3F7",
"V 	c #F1F1F6",
"W 	c #F7F5F6",
"X 	c #526CB7",
"Y 	c #7CB2E9",
"Z 	c #EEEEEE",
"` 	c #919191",
" .	c #A3A3A3",
"..	c #9C9C9C",
"+.	c #CCD1D8",
"@.	c #FCA84A",
"#.	c #F57A07",
"$.	c #F57C0A",
"%.	c #F6DEC6",
"&.	c #F2F8FE",
"*.	c #F1F1F5",
"=.	c #EEEEF3",
"-.	c #F5F2F3",
";.	c #506BB5",
">.	c #7CB1E8",
",.	c #E9E9E9",
"'.	c #AAAAAA",
").	c #EDEDED",
"!.	c #F6F7F8",
"~.	c #F8A954",
"{.	c #F58416",
"].	c #F58619",
"^.	c #F3DEC9",
"/.	c #F1F6FD",
"(.	c #EBEBF2",
"_.	c #F1EEF1",
":.	c #4E69B3",
"<.	c #7BB0E7",
"[.	c #E8E8E8",
"}.	c #B0B0B0",
"|.	c #FDFDFE",
"1.	c #F9FDFE",
"2.	c #F7FDFE",
"3.	c #F5F9FE",
"4.	c #F1F2F8",
"5.	c #EDEDF3",
"6.	c #E9E9F1",
"7.	c #EDEBF0",
"8.	c #4D68B2",
"9.	c #79AEE6",
"0.	c #F9F8FC",
"a.	c #F6FEFE",
"b.	c #F5FEFE",
"c.	c #F0FBFE",
"d.	c #EEF1F8",
"e.	c #EBE9F2",
"f.	c #E8E8F0",
"g.	c #E6E6EE",
"h.	c #EBE8ED",
"i.	c #4C67B1",
"j.	c #79ACE4",
"k.	c #B1B1B0",
"l.	c #FCFCFE",
"m.	c #F8FDFE",
"n.	c #F5B167",
"o.	c #F5922F",
"p.	c #F39532",
"q.	c #EDDBCC",
"r.	c #E8EDF9",
"s.	c #E3E3ED",
"t.	c #E8E4EC",
"u.	c #4B66B1",
"v.	c #79ABE3",
"w.	c #A4A4A4",
"x.	c #E2E2E3",
"y.	c #E9F1F5",
"z.	c #F69C40",
"A.	c #F57703",
"B.	c #F57A06",
"C.	c #ECD3BF",
"D.	c #E6EBFB",
"E.	c #E1E1EC",
"F.	c #E6E3EB",
"G.	c #4B65B0",
"H.	c #78AAE3",
"I.	c #F6F6F6",
"J.	c #ABACAC",
"K.	c #A7A7A7",
"L.	c #A0A0A1",
"M.	c #C6CFD8",
"N.	c #FB9E3B",
"O.	c #F77200",
"P.	c #F77500",
"Q.	c #E9D1BC",
"R.	c #E3E9FB",
"S.	c #DEDEEB",
"T.	c #E3E1E9",
"U.	c #4A65B0",
"V.	c #7BAAE2",
"W.	c #F9D0A4",
"X.	c #F8C084",
"Y.	c #F7C085",
"Z.	c #F0E2DA",
"`.	c #ECE9F1",
" +	c #E9E4E9",
".+	c #E7E3E9",
"++	c #EDE7E8",
"@+	c #4F68B1",
"#+	c #3678CF",
"$+	c #5F91D3",
"%+	c #5887CE",
"&+	c #5481CA",
"*+	c #507AC4",
"=+	c #4C75BF",
"-+	c #486EBC",
";+	c #456DC3",
">+	c #4069C4",
",+	c #3C63BF",
"'+	c #3A5AAE",
")+	c #3A58AA",
"!+	c #3958AA",
"~+	c #3C5AAB",
"{+	c #14389B",
". + @ # $ % & * = - ; > , ' ) ! ",
"~ { ] ^ / ( _ : < [ } | 1 2 3 4 ",
"5 6 7 8 9 0 a b c d e f g h i j ",
"k l m n o o p q r s t u v w x y ",
"z A B C A A A D E F G H I J K L ",
"M A N O A A A P Q R S T U V W X ",
"Y A Z `  ...+.@.#.$.%.&.*.=.-.;.",
">.A ,.'.Z ).!.~.{.].^./.=.(._.:.",
"<.A [.}.A A |.1.2.3.4.5.(.6.7.8.",
"9.A [.}.A |.0.a.b.c.d.e.f.g.h.i.",
"j.A [.k.A l.m.n.o.p.q.r.g.s.t.u.",
"v.A [.w.[.x.y.z.A.B.C.D.s.E.F.G.",
"H.A I.J.K.L.M.N.O.P.Q.R.E.S.T.U.",
"V.A A A A A A W.X.Y.Z.`. +.+++@+",
"#+$+%+&+*+=+-+;+>+,+'+)+!+!+~+{+",
"                                "};
