/* XPM */
static const char * object_xpm[] = {
"16 16 52 1",
" 	c None",
".	c #040404",
"+	c #757575",
"@	c #525252",
"#	c #707070",
"$	c #EAEAEA",
"%	c #F6F6F6",
"&	c #A7A7A7",
"*	c #414141",
"=	c #DDDDDD",
"-	c #EEEEEE",
";	c #FBFBFB",
">	c #E1E1E1",
",	c #C4C4C4",
"'	c #AEAEAE",
")	c #929292",
"!	c #303030",
"~	c #F2F2F2",
"{	c #E6E6E6",
"]	c #666666",
"^	c #141414",
"/	c #BBBBBB",
"(	c #B7B7B7",
"_	c #D4D4D4",
":	c #FFFFFF",
"<	c #BFBFBF",
"[	c #343434",
"}	c #484848",
"|	c #1C1C1C",
"1	c #B2B2B2",
"2	c #999999",
"3	c #888888",
"4	c #222222",
"5	c #4C4C4C",
"6	c #404040",
"7	c #131313",
"8	c #111111",
"9	c #333333",
"0	c #515151",
"a	c #A2A2A2",
"b	c #2A2A2A",
"c	c #0A0A0A",
"d	c #5E5E5E",
"e	c #444444",
"f	c #4A4A4A",
"g	c #AAAAAA",
"h	c #1A1A1A",
"i	c #393939",
"j	c #464646",
"k	c #A6A6A6",
"l	c #0F0F0F",
"m	c #4E4E4E",
"                ",
"     .+@        ",
"   .#$%$&*      ",
"  #=-;->,')!    ",
" .=-%~{=,']^    ",
" ./(_:><@[}|    ",
" .(123>44567    ",
" .'(23189097    ",
" .a('32b}59c6d  ",
" .3'(22e5e4c44bf",
" .32('ge59hc444i",
"  j3k/1}5b8l4bd ",
"   .m1'e[7h46   ",
"     .jhh4bf    ",
"                ",
"                "};
