/* XPM */
static const char * open_xpm[] = {
"16 16 39 1",
" 	c None",
".	c #CEA221",
"+	c #FFFFFF",
"@	c #C69A18",
"#	c #FFFF9C",
"$	c #FFF39C",
"%	c #FFF38C",
"&	c #9D7A19",
"*	c #FFEB84",
"=	c #E2C14F",
"-	c #B18918",
";	c #FFD784",
">	c #DABF6B",
",	c #FFFBF7",
"'	c #FFE784",
")	c #A17D18",
"!	c #FDD56F",
"~	c #F7F089",
"{	c #FFC75A",
"]	c #FBF996",
"^	c #9B7A18",
"/	c #E2B342",
"(	c #C9A020",
"_	c #FFFFA5",
":	c #FFF794",
"<	c #E7BE52",
"[	c #CEBC5B",
"}	c #A5720C",
"|	c #CFA225",
"1	c #D7B83F",
"2	c #EFBA42",
"3	c #C69A19",
"4	c #F0E479",
"5	c #FFE37B",
"6	c #FFDF7B",
"7	c #DEB242",
"8	c #C79C1B",
"9	c #FFD76B",
"0	c #BF9928",
"                ",
"                ",
"   ....         ",
"  .++++@        ",
" @+####+@@@@@@  ",
" @$%%%%%+++++@& ",
" @*=@@@@@@@@@@@-",
" @;@>++,+++++'+)",
" @!@~########{]^",
" @/(_::::::::<[}",
" @|1#*******'2@ ",
" @34#555555567& ",
" @8#9999999990} ",
"  }}}}}}}}}}}}  ",
"                ",
"                "};
