/* XPM */
static const char * openterm_xpm[] = {
/* width height num_colors chars_per_pixel */
"    16    16      256            2",
/* colors */
"`` c None",
"`. c #989898",
"`# c #b9b9b9",
"`a c #b8b7b7",
"`b c #b6b6b5",
"`c c #b4b4b3",
"`d c #b3b2b1",
"`e c #b1b0af",
"`f c #afaead",
"`g c #adacaa",
"`h c #acaaa8",
"`i c #aaa8a6",
"`j c #a8a7a4",
"`k c #a7a5a2",
"`l c #a5a3a0",
"`m c #a3a19e",
"`n c #7e7d7b",
"`o c #fcfcfb",
"`p c #dfdedd",
"`q c #e0dfdd",
"`r c #e1dfde",
"`s c #e1e0de",
"`t c #e2e1df",
"`u c #e3e2df",
"`v c #e4e2df",
"`w c #e5e3e0",
"`x c #e6e4e0",
"`y c #e7e4e0",
"`z c #e8e5e1",
"`A c #e9e5df",
"`B c #e7e3dc",
"`C c #a09d9a",
"`D c #b8b8b7",
"`E c #c4d3cb",
"`F c #578e73",
"`G c #75a28b",
"`H c #66977e",
"`I c #eae7e1",
"`J c #9e9c98",
"`K c #bbcec4",
"`L c #8eba99",
"`M c #beddbe",
"`N c #62956d",
"`O c #ebe7e1",
"`P c #9c9a96",
"`Q c #b5b4b3",
"`R c #bacdc2",
"`S c #62a26d",
"`T c #83bd83",
"`U c #6ea86e",
"`V c #094f14",
"`W c #eae6df",
"`X c #9b9894",
"`Y c #b9ccc0",
"`Z c #368a41",
"`0 c #499d49",
"`1 c #3f8f40",
"`2 c #064c07",
"`3 c #00470b",
"`4 c #e9e5de",
"`5 c #999692",
"`6 c #b7cabf",
"`7 c #1c7c27",
"`8 c #aad1aa",
".` c #5da25d",
".. c #108010",
".# c #127a14",
".a c #116e17",
".b c #08550f",
".c c #044d09",
".d c #014a0e",
".e c #97948f",
".f c #b0afad",
".g c #b6c9bd",
".h c #6fa97a",
".i c #afc5af",
".j c #638c68",
".k c #267d2e",
".l c #468f4f",
".m c #0d651e",
".n c #0d631f",
".o c #0d611d",
".p c #0b5e1a",
".q c #095a16",
".r c #075511",
".s c #035013",
".t c #e6e2da",
".u c #95928d",
".v c #aeadab",
".w c #b5c8bc",
".x c #328040",
".y c #dfe5e0",
".z c #85aa8d",
".A c #2e7b40",
".B c #c2d3c7",
".C c #c3d9c8",
".D c #126d29",
".E c #116b27",
".F c #0f6723",
".G c #0d621e",
".H c #0a5c18",
".I c #065519",
".J c #e5e1d9",
".K c #94918b",
".L c #acaba9",
".M c #b4c6ba",
".N c #367949",
".O c #689e73",
".P c #efefef",
".Q c #3f8b54",
".R c #e0e6e2",
".S c #688d73",
".T c #167632",
".U c #157430",
".V c #136f2b",
".W c #106a26",
".X c #08591d",
".Y c #e4dfd7",
".Z c #928f89",
".0 c #aaa9a7",
".1 c #b3c5b8",
".2 c #377c4d",
".3 c #e0e5e1",
".4 c #598365",
".5 c #177935",
".6 c #187636",
".7 c #1a803c",
".8 c #197d39",
"#` c #167733",
"#. c #13702c",
"## c #106925",
"#a c #095d21",
"#b c #e3ded5",
"#c c #918d87",
"#d c #a9a7a5",
"#e c #cfd7cd",
"#f c #45855d",
"#g c #467d5a",
"#h c #498861",
"#i c #4c9368",
"#j c #4e966b",
"#k c #4e976c",
"#l c #4d956a",
"#m c #4c9267",
"#n c #4a8e63",
"#o c #488a5f",
"#p c #45845c",
"#q c #e2dcd4",
"#r c #8f8b85",
"#s c #a7a5a3",
"#t c #ece8e2",
"#u c #eae6e0",
"#v c #e8e4de",
"#w c #e7e2db",
"#x c #e4dfd6",
"#y c #e2ddd4",
"#z c #e1dbd2",
"#A c #dfd9cf",
"#B c #ddd7cd",
"#C c #dcd5cb",
"#D c #dad3c8",
"#E c #d9d1c6",
"#F c #d7d0c3",
"#G c #8d8a83",
"#H c #828180",
"#I c #a4a29f",
"#J c #a2a09c",
"#K c #a09e9a",
"#L c #9f9c98",
"#M c #9d9a96",
"#N c #999792",
"#O c #989590",
"#P c #96938e",
"#Q c #94918c",
"#R c #928f8a",
"#S c #686663",
"#T c #000000",
"#U c #000000",
"#V c #000000",
"#W c #000000",
"#X c #000000",
"#Y c #000000",
"#Z c #000000",
"#0 c #000000",
"#1 c #000000",
"#2 c #000000",
"#3 c #000000",
"#4 c #000000",
"#5 c #000000",
"#6 c #000000",
"#7 c #000000",
"#8 c #000000",
"a` c #000000",
"a. c #000000",
"a# c #000000",
"aa c #000000",
"ab c #000000",
"ac c #000000",
"ad c #000000",
"ae c #000000",
"af c #000000",
"ag c #000000",
"ah c #000000",
"ai c #000000",
"aj c #000000",
"ak c #000000",
"al c #000000",
"am c #000000",
"an c #000000",
"ao c #000000",
"ap c #000000",
"aq c #000000",
"ar c #000000",
"as c #000000",
"at c #000000",
"au c #000000",
"av c #000000",
"aw c #000000",
"ax c #000000",
"ay c #000000",
"az c #000000",
"aA c #000000",
"aB c #000000",
"aC c #000000",
"aD c #000000",
"aE c #000000",
"aF c #000000",
"aG c #000000",
"aH c #000000",
"aI c #000000",
"aJ c #000000",
"aK c #000000",
"aL c #000000",
"aM c #000000",
"aN c #000000",
"aO c #000000",
"aP c #000000",
"aQ c #000000",
"aR c #000000",
"aS c #000000",
"aT c #000000",
"aU c #000000",
"aV c #000000",
"aW c #000000",
"aX c #000000",
"aY c #000000",
"aZ c #000000",
"a0 c #000000",
"a1 c #000000",
"a2 c #000000",
"a3 c #000000",
"a4 c #000000",
"a5 c #000000",
"a6 c #000000",
"a7 c #000000",
"a8 c #000000",
/* pixels */
"````````````````````````````````",
"`.`#`a`b`c`d`e`f`g`h`i`j`k`l`m`n",
"`#`o`p`q`r`s`t`u`v`w`x`y`z`A`B`C",
"`D`E`F`G`G`G`G`G`G`G`G`G`G`H`I`J",
"`b`K`L`M`M`M`M`M`M`M`M`M`M`N`O`P",
"`Q`R`S`T`T`T`T`T`T`T`T`T`U`V`W`X",
"`d`Y`Z`0`0`0`0`0`0`0`0`1`2`3`4`5",
"`e`6`7`8.`.........#.a.b.c.d`B.e",
".f.g.h.i.j.k.l.m.n.o.p.q.r.s.t.u",
".v.w.x.y.z.A.B.C.D.E.F.G.H.I.J.K",
".L.M.N.O.P.Q.R.S.T.U.V.W.n.X.Y.Z",
".0.1.2.3.4.5.6.7.7.8#`#.###a#b#c",
"#d#e#f#g#h#i#j#k#k#l#m#n#o#p#q#r",
"#s#t#u#v#w.J#x#y#z#A#B#C#D#E#F#G",
"#H#I#J#K#L#M`X#N#O#P#Q#R#c#r#G#S",
"````````````````````````````````"
};
