/* XPM */
static const char * const posX_xpm[] = {
"32 32 484 2",
"  	c None",
". 	c #58652A",
"+ 	c #414C20",
"@ 	c #424C26",
"# 	c #434B28",
"$ 	c #414B27",
"% 	c #424A26",
"& 	c #414D1C",
"* 	c #405502",
"= 	c #8BA041",
"- 	c #43511A",
"; 	c #414B25",
"> 	c #424A27",
", 	c #424B27",
"' 	c #414E1C",
") 	c #586D11",
"! 	c #788A37",
"~ 	c #414D1F",
"{ 	c #414B24",
"] 	c #414B26",
"^ 	c #424B28",
"/ 	c #435215",
"( 	c #6D831D",
"_ 	c #657728",
": 	c #424E1E",
"< 	c #404A24",
"[ 	c #2D3A06",
"} 	c #1E2904",
"| 	c #1C2805",
"1 	c #1E2805",
"2 	c #1D2905",
"3 	c #1C2B04",
"4 	c #405709",
"5 	c #7F9535",
"6 	c #283704",
"7 	c #1C2905",
"8 	c #1D2805",
"9 	c #1D2B04",
"0 	c #495E0D",
"a 	c #677B22",
"b 	c #253404",
"c 	c #1E2705",
"d 	c #1D2705",
"e 	c #1F2E03",
"f 	c #526714",
"g 	c #6F8327",
"h 	c #2A3A09",
"i 	c #1D2A05",
"j 	c #000300",
"k 	c #000200",
"l 	c #000800",
"m 	c #203011",
"n 	c #59692A",
"o 	c #080F00",
"p 	c #000600",
"q 	c #243213",
"r 	c #64722D",
"s 	c #121903",
"t 	c #1F2B10",
"u 	c #515E20",
"v 	c #101902",
"w 	c #000500",
"x 	c #000000",
"y 	c #000100",
"z 	c #030900",
"A 	c #3F4D1D",
"B 	c #4E5A28",
"C 	c #070A00",
"D 	c #010101",
"E 	c #000002",
"F 	c #000400",
"G 	c #273217",
"H 	c #626D33",
"I 	c #121906",
"J 	c #010002",
"K 	c #151C0B",
"L 	c #596330",
"M 	c #222B13",
"N 	c #010103",
"O 	c #010000",
"P 	c #060D00",
"Q 	c #4C5A26",
"R 	c #424D1F",
"S 	c #040700",
"T 	c #232D13",
"U 	c #646F35",
"V 	c #1C230E",
"W 	c #010102",
"X 	c #0E1507",
"Y 	c #5E6832",
"Z 	c #353F1E",
"` 	c #081000",
" .	c #58672F",
"..	c #374017",
"+.	c #020500",
"@.	c #000001",
"#.	c #242D13",
"$.	c #1D250F",
"%.	c #010300",
"&.	c #060A01",
"*.	c #495421",
"=.	c #4C582A",
"-.	c #030800",
";.	c #000101",
">.	c #0B1600",
",.	c #647535",
"'.	c #2C350F",
").	c #010200",
"!.	c #212A0F",
"~.	c #657132",
"{.	c #202A11",
"].	c #010100",
"^.	c #010201",
"/.	c #020600",
"(.	c #364013",
"_.	c #5F6F2A",
":.	c #0E1700",
"<.	c #333A1E",
"[.	c #323A1E",
"}.	c #333C1C",
"|.	c #394A10",
"1.	c #82963B",
"2.	c #455319",
"3.	c #323C1C",
"4.	c #333A1D",
"5.	c #33391E",
"6.	c #323A1D",
"7.	c #323D1A",
"8.	c #4B5922",
"9.	c #7D8E3A",
"0.	c #495A1C",
"a.	c #333D18",
"b.	c #343B1C",
"c.	c #515F1F",
"d.	c #819633",
"e.	c #455516",
"f.	c #444F21",
"g.	c #444F22",
"h.	c #434F22",
"i.	c #43511E",
"j.	c #425710",
"k.	c #97AE43",
"l.	c #4F6117",
"m.	c #43521F",
"n.	c #444F20",
"o.	c #455021",
"p.	c #425021",
"q.	c #424F20",
"r.	c #42511D",
"s.	c #4F601D",
"t.	c #809536",
"u.	c #586E1D",
"v.	c #44521A",
"w.	c #4D5C1A",
"x.	c #7D9622",
"y.	c #62771C",
"z.	c #0B1200",
"A.	c #0B1500",
"B.	c #142600",
"C.	c #93A849",
"D.	c #212E00",
"E.	c #0B1400",
"F.	c #0A1300",
"G.	c #0A1200",
"H.	c #1D2902",
"I.	c #687A29",
"J.	c #2A3D10",
"K.	c #0C1200",
"L.	c #0C1300",
"M.	c #101C00",
"N.	c #50670A",
"O.	c #516419",
"P.	c #000201",
"Q.	c #142400",
"R.	c #84944A",
"S.	c #131901",
"T.	c #121702",
"U.	c #667233",
"V.	c #2B3913",
"W.	c #010700",
"X.	c #020900",
"Y.	c #42540C",
"Z.	c #64732F",
"`.	c #1A2903",
" +	c #788747",
".+	c #111501",
"++	c #0C1000",
"@+	c #646F34",
"#+	c #324012",
"$+	c #020700",
"%+	c #750000",
"&+	c #930000",
"*+	c #A30000",
"=+	c #770000",
"-+	c #0B0000",
";+	c #313F09",
">+	c #6F7D3A",
",+	c #27360C",
"'+	c #6D7A3F",
")+	c #0F1301",
"!+	c #060900",
"~+	c #3D4B10",
"{+	c #140000",
"]+	c #7B0000",
"^+	c #A80000",
"/+	c #AF0000",
"(+	c #820000",
"_+	c #1D0300",
":+	c #121E05",
"<+	c #7A8846",
"[+	c #090000",
"}+	c #760100",
"|+	c #8A0000",
"1+	c #8B0400",
"2+	c #A11E0A",
"3+	c #B73219",
"4+	c #900700",
"5+	c #8E0000",
"6+	c #9F0000",
"7+	c #A10100",
"8+	c #C32913",
"9+	c #AF2406",
"0+	c #910400",
"a+	c #8F0001",
"b+	c #8F0000",
"c+	c #9A0000",
"d+	c #C50000",
"e+	c #D10000",
"f+	c #A00100",
"g+	c #000900",
"h+	c #788444",
"i+	c #090200",
"j+	c #E50000",
"k+	c #E70000",
"l+	c #E60100",
"m+	c #EB0803",
"n+	c #EE0A04",
"o+	c #E60200",
"p+	c #F00B05",
"q+	c #ED0801",
"r+	c #E60000",
"s+	c #E90000",
"t+	c #F90000",
"u+	c #FD0000",
"v+	c #EF0000",
"w+	c #120700",
"x+	c #64702E",
"y+	c #0A1100",
"z+	c #A20700",
"A+	c #990700",
"B+	c #9C0D00",
"C+	c #B92C0E",
"D+	c #B92B0D",
"E+	c #9C0C00",
"F+	c #890800",
"G+	c #800900",
"H+	c #800A00",
"I+	c #B04012",
"J+	c #A83905",
"K+	c #830E00",
"L+	c #800800",
"M+	c #6C0A00",
"N+	c #600B00",
"O+	c #A30600",
"P+	c #FA0000",
"Q+	c #6E0B00",
"R+	c #0A1500",
"S+	c #566616",
"T+	c #394419",
"U+	c #384319",
"V+	c #384519",
"W+	c #394418",
"X+	c #384517",
"Y+	c #3E520D",
"Z+	c #7B932B",
"`+	c #687D24",
" @	c #3B4B15",
".@	c #384418",
"+@	c #374419",
"@@	c #384419",
"#@	c #384713",
"$@	c #7C9423",
"%@	c #85A01A",
"&@	c #3E4E11",
"*@	c #384318",
"=@	c #4D3D16",
"-@	c #E80803",
";@	c #F70301",
">@	c #B91809",
",@	c #394518",
"'@	c #394615",
")@	c #5C6F16",
"!@	c #4E572F",
"~@	c #4E562F",
"{@	c #4D562E",
"]@	c #4E572D",
"^@	c #4E572E",
"/@	c #4D5829",
"(@	c #506216",
"_@	c #889F36",
":@	c #697A2B",
"<@	c #4E5B28",
"[@	c #4F572F",
"}@	c #4D572F",
"|@	c #4D5A24",
"1@	c #7C9424",
"2@	c #92AD2D",
"3@	c #526020",
"4@	c #C71B0F",
"5@	c #F90302",
"6@	c #E60C06",
"7@	c #4F562E",
"8@	c #4E572C",
"9@	c #4E5828",
"0@	c #53621D",
"a@	c #0F1D00",
"b@	c #819445",
"c@	c #303B10",
"d@	c #425502",
"e@	c #70861D",
"f@	c #071002",
"g@	c #660200",
"h@	c #E80000",
"i@	c #EE0000",
"j@	c #610100",
"k@	c #0F1700",
"l@	c #000301",
"m@	c #111F00",
"n@	c #8FA154",
"o@	c #222A08",
"p@	c #405009",
"q@	c #84973C",
"r@	c #070D04",
"s@	c #4F0000",
"t@	c #CB0000",
"u@	c #9CAE5D",
"v@	c #192000",
"w@	c #283700",
"x@	c #81933F",
"y@	c #070B03",
"z@	c #210000",
"A@	c #030000",
"B@	c #172600",
"C@	c #A0B260",
"D@	c #161C00",
"E@	c #2A3700",
"F@	c #849342",
"G@	c #060B03",
"H@	c #213107",
"I@	c #93A457",
"J@	c #141A00",
"K@	c #2B3800",
"L@	c #859441",
"M@	c #191F03",
"N@	c #2F3E10",
"O@	c #86964D",
"P@	c #111700",
"Q@	c #1D2A00",
"R@	c #92A350",
"S@	c #1E2403",
"T@	c #050C00",
"U@	c #3D4C1A",
"V@	c #798844",
"W@	c #0F1500",
"X@	c #152200",
"Y@	c #9AAC5B",
"Z@	c #2B320B",
"`@	c #320001",
" #	c #FC0000",
".#	c #440000",
"+#	c #640001",
"@#	c #FF0000",
"##	c #071100",
"$#	c #4A5B22",
"%#	c #6C7B39",
"&#	c #0D1400",
"*#	c #0E1C00",
"=#	c #92A552",
"-#	c #37400D",
";#	c #060100",
">#	c #ED0000",
",#	c #E40000",
"'#	c #0A0F00",
")#	c #090F00",
"!#	c #091100",
"~#	c #112000",
"{#	c #5A6F27",
"]#	c #62742C",
"^#	c #121C00",
"/#	c #091000",
"(#	c #091A00",
"_#	c #889D3C",
":#	c #3C4A02",
"<#	c #091300",
"[#	c #260D00",
"}#	c #F10100",
"|#	c #FE0000",
"1#	c #4B0B00",
"2#	c #344101",
"3#	c #334101",
"4#	c #334301",
"5#	c #314700",
"6#	c #708926",
"7#	c #62781E",
"8#	c #314201",
"9#	c #314101",
"0#	c #324201",
"a#	c #344301",
"b#	c #324800",
"c#	c #9FB73E",
"d#	c #586D04",
"e#	c #314400",
"f#	c #334401",
"g#	c #CE0F00",
"h#	c #C71200",
"i#	c #334201",
"j#	c #66732E",
"k#	c #64732D",
"l#	c #65732C",
"m#	c #657526",
"n#	c #637A14",
"o#	c #8CA530",
"p#	c #798E2D",
"q#	c #647529",
"r#	c #63732B",
"s#	c #64732C",
"t#	c #66732C",
"u#	c #667524",
"v#	c #647912",
"w#	c #A2BA42",
"x#	c #83992D",
"y#	c #63771D",
"z#	c #657427",
"A#	c #64742D",
"B#	c #65732A",
"C#	c #64732A",
"D#	c #FA0402",
"E#	c #F90502",
"F#	c #65732B",
"G#	c #293014",
"H#	c #283114",
"I#	c #293013",
"J#	c #293410",
"K#	c #324508",
"L#	c #879C3E",
"M#	c #536220",
"N#	c #2C3613",
"O#	c #293113",
"P#	c #283013",
"Q#	c #293310",
"R#	c #283808",
"S#	c #819334",
"T#	c #6B7C25",
"U#	c #28360D",
"V#	c #293211",
"W#	c #293214",
"X#	c #B91006",
"Y#	c #72200D",
"Z#	c #CF0B04",
"`#	c #000700",
" $	c #132200",
".$	c #8C9E4E",
"+$	c #303A10",
"@$	c #040900",
"#$	c #000B00",
"$$	c #6D7B32",
"%$	c #636F2B",
"&$	c #EA0000",
"*$	c #AC0100",
"=$	c #A90100",
"-$	c #38383A",
";$	c #383838",
">$	c #383C38",
",$	c #495338",
"'$	c #AFBD80",
")$	c #555A3E",
"!$	c #3A3B38",
"~$	c #383A38",
"{$	c #384038",
"]$	c #8E9765",
"^$	c #90976B",
"/$	c #383D38",
"($	c #5F2D2D",
"_$	c #393939",
". + @ # $ % % & * = - ; $ > , > > ' ) ! ~ { ] % ^ $ > / ( _ : < ",
"[ } | 1 2 | | 3 4 5 6 7 | 1 8 8 1 9 0 a b 7 c 1 d 8 c e f g h i ",
"j j j k j j j l m n o j j j j j k p q r s j k k k j k p t u v w ",
"x x x x y y x z A B C x D x x x E F G H I k J x x x x k K L M j ",
"N O O x x x x P Q R S x x x y y x F T U V j W x x x O k X Y Z F ",
"E x x x x x y `  ...+.x @.@.x y x F #.U $.%.x D x x O y &.*.=.-.",
";.y k k y k j >.,.'.j k y ;.y ).k w !.~.{.F ].y y k ^.k /.(._.:.",
"<.<.<.[.<.<.}.|.1.2.3.4.<.5.<.[.6.7.8.9.0.a.<.<.<.<.<.<.b.c.d.e.",
"f.g.g.h.g.g.i.j.k.l.m.n.f.f.o.p.q.r.s.t.u.v.f.f.f.f.o.o.n.w.x.y.",
"z.z.z.z.z.z.A.B.C.D.E.z.z.z.z.F.G.E.H.I.J.>.z.z.z.z.K.L.z.M.N.O.",
"y y y y ;.P.w Q.R.S.k k y y y ^.P.j T.U.V.W.y y k y y k y X.Y.Z.",
"x x x x @.;.F `. +.+y x x x x @.;.y ++@+#+$+O %+&+*+=+-+x F ;+>+",
"x x x x x y w ,+'+)+x x x x x x x y !+H ~+-.J {+]+^+/+&+(+_+:+<+",
"x [+}+|+|+|+1+2+3+4+|+|+|+|+|+|+5+6+7+8+9+0+a+b+b+b+c+d+e+f+g+h+",
"k i+j+k+j+j+l+m+n+o+j+j+j+j+j+j+j+j+j+p+q+l+r+r+r+r+s+t+u+v+w+x+",
"y+y+z+A+A+A+B+C+D+E+A+A+A+A+A+F+G+G+H+I+J+K+L+G+M+N+O+P+P+Q+R+S+",
"T+U+V+W+W+X+Y+Z+`+ @.@T+T++@@@@@T+T+#@$@%@&@*@T+T+=@-@;@>@,@'@)@",
"!@~@{@]@^@/@(@_@:@<@]@[@!@}@!@}@!@^@|@1@2@3@]@!@!@4@5@6@7@8@9@0@",
"j k j j j p a@b@c@$+j k k j j j k k p d@e@f@j %.g@h@i@j@k k j k@",
"].x x x @.l@m@n@o@k D x x x x @.E @.F p@q@r@D x s@h@t@x @.@.x F ",
"x x x x x F Q.u@v@k x x x x x x x x F w@x@y@O x x z@A@x x x x F ",
"x x x x x w B@C@D@k x x x x x x x x j E@F@G@O ].x O O x x x x F ",
"x x x x x w H@I@J@y y x x x x x x O j K@L@M@y y x x x x x x x j ",
"x x x x x z N@O@P@y x x x x x x x O j Q@R@S@k y x x x x x O y j ",
"x x x x y T@U@V@W@y x x x x x x x O j X@Y@Z@j k @.`@ #.#x +#@#j ",
"y y y y j ##$#%#&#k y y y y y k k ].w *#=#-#w F ;.;.v+t+;#>#,#F ",
"'#'#)#)#!#~#{#]#^#/#)#)#)#)#)#)#)#'#F.(#_#:#<#!#)#)#[#u+}#|#1#!#",
"2#2#3#3#4#5#6#7#8#9#0#3#0#3#0#0#3#2#a#b#c#d#e#f#0#9#0#g#@#h#2#i#",
"j#j#k#l#m#n#o#p#q#l#r#l#s#l#s#l#t#t#u#v#w#x#y#z#A#B#C#D#@#E#t#F#",
"G#G#H#I#J#K#L#M#N#O#P#I#P#I#P#I#I#I#Q#R#S#T#U#V#W#O#X#|#Y#|#Z#O#",
"P.k j k `# $.$+$@$j k k k k k k k P.w #$$$%$g+F j %.&$*$P.=$u+j ",
"-$;$;$;$>$,$'$)$!$;$;$;$;$;$;$;$;$-$~${$]$^$/$~$;$;$;$;$-$;$($_$"};
