/* XPM */
static const char * const posY_xpm[] = {
"32 32 487 2",
"  	c None",
". 	c #58652A",
"+ 	c #414C20",
"@ 	c #424C26",
"# 	c #434B28",
"$ 	c #414B27",
"% 	c #424A26",
"& 	c #414D1C",
"* 	c #405502",
"= 	c #8BA041",
"- 	c #43511A",
"; 	c #414B25",
"> 	c #424A27",
", 	c #424B27",
"' 	c #414E1C",
") 	c #586D11",
"! 	c #788A37",
"~ 	c #414D1F",
"{ 	c #414B24",
"] 	c #414B26",
"^ 	c #424B28",
"/ 	c #435215",
"( 	c #6D831D",
"_ 	c #657728",
": 	c #424E1E",
"< 	c #404A24",
"[ 	c #2D3A06",
"} 	c #1E2904",
"| 	c #1C2805",
"1 	c #1E2805",
"2 	c #1D2905",
"3 	c #1C2B04",
"4 	c #405709",
"5 	c #7F9535",
"6 	c #283704",
"7 	c #1C2905",
"8 	c #1D2805",
"9 	c #1D2B04",
"0 	c #495E0D",
"a 	c #677B22",
"b 	c #253404",
"c 	c #1E2705",
"d 	c #1D2705",
"e 	c #1F2E03",
"f 	c #526714",
"g 	c #6F8327",
"h 	c #2A3A09",
"i 	c #1D2A05",
"j 	c #000300",
"k 	c #000200",
"l 	c #000800",
"m 	c #203011",
"n 	c #59692A",
"o 	c #080F00",
"p 	c #000600",
"q 	c #243213",
"r 	c #64722D",
"s 	c #121903",
"t 	c #1F2B10",
"u 	c #515E20",
"v 	c #101902",
"w 	c #000500",
"x 	c #000000",
"y 	c #000100",
"z 	c #030900",
"A 	c #3F4D1D",
"B 	c #4E5A28",
"C 	c #070A00",
"D 	c #010101",
"E 	c #000002",
"F 	c #000400",
"G 	c #273217",
"H 	c #626D33",
"I 	c #121906",
"J 	c #010002",
"K 	c #151C0B",
"L 	c #596330",
"M 	c #222B13",
"N 	c #010103",
"O 	c #010000",
"P 	c #060D00",
"Q 	c #4C5A26",
"R 	c #424D1F",
"S 	c #040700",
"T 	c #1D0000",
"U 	c #040400",
"V 	c #232D13",
"W 	c #646F35",
"X 	c #1C230E",
"Y 	c #010102",
"Z 	c #0E1507",
"` 	c #5E6832",
" .	c #353F1E",
"..	c #081000",
"+.	c #58672F",
"@.	c #374017",
"#.	c #020500",
"$.	c #000001",
"%.	c #640100",
"&.	c #FE0000",
"*.	c #7D0200",
"=.	c #242D13",
"-.	c #1D250F",
";.	c #010300",
">.	c #060A01",
",.	c #495421",
"'.	c #4C582A",
").	c #030800",
"!.	c #000101",
"~.	c #0B1600",
"{.	c #647535",
"].	c #2C350F",
"^.	c #620100",
"/.	c #F60000",
"(.	c #FD0000",
"_.	c #50210C",
":.	c #657132",
"<.	c #202A11",
"[.	c #010100",
"}.	c #010201",
"|.	c #020600",
"1.	c #364013",
"2.	c #5F6F2A",
"3.	c #0E1700",
"4.	c #333A1E",
"5.	c #323A1E",
"6.	c #333C1C",
"7.	c #394A10",
"8.	c #82963B",
"9.	c #455319",
"0.	c #323C1C",
"a.	c #333A1D",
"b.	c #33391E",
"c.	c #DD0A05",
"d.	c #F60301",
"e.	c #FC0100",
"f.	c #D01709",
"g.	c #868536",
"h.	c #495A1C",
"i.	c #333D18",
"j.	c #343B1C",
"k.	c #515F1F",
"l.	c #819633",
"m.	c #455516",
"n.	c #444F21",
"o.	c #444F22",
"p.	c #434F22",
"q.	c #43511E",
"r.	c #425710",
"s.	c #97AE43",
"t.	c #4F6117",
"u.	c #43521F",
"v.	c #444F20",
"w.	c #474E20",
"x.	c #CD1509",
"y.	c #F30502",
"z.	c #EC0803",
"A.	c #FE0100",
"B.	c #F90301",
"C.	c #FA0301",
"D.	c #DD280F",
"E.	c #586E1D",
"F.	c #44521A",
"G.	c #455021",
"H.	c #4D5C1A",
"I.	c #7D9622",
"J.	c #62771C",
"K.	c #0B1200",
"L.	c #0B1500",
"M.	c #142600",
"N.	c #93A849",
"O.	c #212E00",
"P.	c #0B1400",
"Q.	c #0C1200",
"R.	c #8C0800",
"S.	c #F90000",
"T.	c #E70200",
"U.	c #DE0300",
"V.	c #EA0200",
"W.	c #F80100",
"X.	c #FA0401",
"Y.	c #882209",
"Z.	c #0C1300",
"`.	c #101C00",
" +	c #50670A",
".+	c #516419",
"++	c #000201",
"@+	c #142400",
"#+	c #84944A",
"$+	c #131901",
"%+	c #170200",
"&+	c #EB0000",
"*+	c #830000",
"=+	c #DF0000",
"-+	c #D30100",
";+	c #820C01",
">+	c #FD0101",
",+	c #CB0E05",
"'+	c #010700",
")+	c #020900",
"!+	c #42540C",
"~+	c #64732F",
"{+	c #1A2903",
"]+	c #788747",
"^+	c #111501",
"/+	c #090000",
"(+	c #DA0000",
"_+	c #B90000",
":+	c #4A0000",
"<+	c #DE0000",
"[+	c #D30000",
"}+	c #530B00",
"|+	c #E2140A",
"1+	c #C41305",
"2+	c #020700",
"3+	c #313F09",
"4+	c #6F7D3A",
"5+	c #27360C",
"6+	c #6D7A3F",
"7+	c #0F1301",
"8+	c #0F0000",
"9+	c #220000",
"0+	c #DC0000",
"a+	c #D20000",
"b+	c #060900",
"c+	c #72622E",
"d+	c #4E440F",
"e+	c #121E05",
"f+	c #7A8846",
"g+	c #334215",
"h+	c #626E37",
"i+	c #0C1001",
"j+	c #D80000",
"k+	c #C90000",
"l+	c #616C33",
"m+	c #45540F",
"n+	c #040900",
"o+	c #000900",
"p+	c #788444",
"q+	c #050D00",
"r+	c #3F4F1B",
"s+	c #57632B",
"t+	c #0A0F00",
"u+	c #C30000",
"v+	c #B70000",
"w+	c #63712F",
"x+	c #43550D",
"y+	c #040B00",
"z+	c #64702E",
"A+	c #0A1100",
"B+	c #0A1200",
"C+	c #122000",
"D+	c #566B21",
"E+	c #566720",
"F+	c #121C00",
"G+	c #B30500",
"H+	c #820900",
"I+	c #0A1400",
"J+	c #677B23",
"K+	c #566E0A",
"L+	c #0F1B00",
"M+	c #0A1000",
"N+	c #0B1100",
"O+	c #0B1300",
"P+	c #0A1500",
"Q+	c #566616",
"R+	c #394419",
"S+	c #384319",
"T+	c #384519",
"U+	c #394418",
"V+	c #384517",
"W+	c #3E520D",
"X+	c #7B932B",
"Y+	c #687D24",
"Z+	c #3B4B15",
"`+	c #384418",
" @	c #374419",
".@	c #384419",
"+@	c #C11508",
"@@	c #FD0100",
"#@	c #9A230D",
"$@	c #384713",
"%@	c #7C9423",
"&@	c #85A01A",
"*@	c #3E4E11",
"=@	c #384318",
"-@	c #394518",
";@	c #394615",
">@	c #5C6F16",
",@	c #4E572F",
"'@	c #4E562F",
")@	c #4D562E",
"!@	c #4E572D",
"~@	c #4E572E",
"{@	c #4D5829",
"]@	c #506216",
"^@	c #889F36",
"/@	c #697A2B",
"(@	c #4E5B28",
"_@	c #4F572F",
":@	c #4D572F",
"<@	c #C41D10",
"[@	c #A52C17",
"}@	c #4D5A24",
"|@	c #7C9424",
"1@	c #92AD2D",
"2@	c #526020",
"3@	c #4E572C",
"4@	c #4E5828",
"5@	c #53621D",
"6@	c #0F1D00",
"7@	c #819445",
"8@	c #303B10",
"9@	c #920100",
"0@	c #7D0100",
"a@	c #425502",
"b@	c #70861D",
"c@	c #071002",
"d@	c #0F1700",
"e@	c #000301",
"f@	c #111F00",
"g@	c #8FA154",
"h@	c #222A08",
"i@	c #A10000",
"j@	c #7D0001",
"k@	c #405009",
"l@	c #84973C",
"m@	c #070D04",
"n@	c #9CAE5D",
"o@	c #192000",
"p@	c #B10000",
"q@	c #7D0000",
"r@	c #283700",
"s@	c #81933F",
"t@	c #070B03",
"u@	c #172600",
"v@	c #A0B260",
"w@	c #161C00",
"x@	c #B50000",
"y@	c #8D0000",
"z@	c #2A3700",
"A@	c #849342",
"B@	c #060B03",
"C@	c #213107",
"D@	c #93A457",
"E@	c #141A00",
"F@	c #990000",
"G@	c #970000",
"H@	c #2B3800",
"I@	c #859441",
"J@	c #191F03",
"K@	c #2F3E10",
"L@	c #86964D",
"M@	c #111700",
"N@	c #A60000",
"O@	c #9D0000",
"P@	c #1D2A00",
"Q@	c #92A350",
"R@	c #1E2403",
"S@	c #050C00",
"T@	c #3D4C1A",
"U@	c #798844",
"V@	c #0F1500",
"W@	c #870000",
"X@	c #FC0000",
"Y@	c #840000",
"Z@	c #152200",
"`@	c #9AAC5B",
" #	c #2B320B",
".#	c #320001",
"+#	c #FB0000",
"@#	c #640000",
"##	c #940000",
"$#	c #CF0000",
"%#	c #071100",
"&#	c #4A5B22",
"*#	c #6C7B39",
"=#	c #0D1400",
"-#	c #040200",
";#	c #2A0200",
">#	c #030100",
",#	c #0E1C00",
"'#	c #92A552",
")#	c #37400D",
"!#	c #E90000",
"~#	c #FA0000",
"{#	c #300100",
"]#	c #F30000",
"^#	c #D90000",
"/#	c #090F00",
"(#	c #091100",
"_#	c #112000",
":#	c #5A6F27",
"<#	c #62742C",
"[#	c #091000",
"}#	c #0A1300",
"|#	c #091A00",
"1#	c #889D3C",
"2#	c #3C4A02",
"3#	c #091300",
"4#	c #0F0F00",
"5#	c #F50100",
"6#	c #380C00",
"7#	c #344101",
"8#	c #334101",
"9#	c #334301",
"0#	c #314700",
"a#	c #708926",
"b#	c #62781E",
"c#	c #314201",
"d#	c #314101",
"e#	c #324201",
"f#	c #344301",
"g#	c #324800",
"h#	c #9FB73E",
"i#	c #586D04",
"j#	c #314400",
"k#	c #334401",
"l#	c #692F01",
"m#	c #CB1100",
"n#	c #334201",
"o#	c #66732E",
"p#	c #64732D",
"q#	c #65732C",
"r#	c #657526",
"s#	c #637A14",
"t#	c #8CA530",
"u#	c #798E2D",
"v#	c #647529",
"w#	c #63732B",
"x#	c #64732C",
"y#	c #66732C",
"z#	c #667524",
"A#	c #647912",
"B#	c #A2BA42",
"C#	c #83992D",
"D#	c #63771D",
"E#	c #657427",
"F#	c #64742D",
"G#	c #65732A",
"H#	c #64732A",
"I#	c #A3441A",
"J#	c #FF0000",
"K#	c #B53815",
"L#	c #65732B",
"M#	c #293014",
"N#	c #283114",
"O#	c #293013",
"P#	c #293410",
"Q#	c #324508",
"R#	c #879C3E",
"S#	c #536220",
"T#	c #2C3613",
"U#	c #293113",
"V#	c #283013",
"W#	c #293310",
"X#	c #283808",
"Y#	c #819334",
"Z#	c #6B7C25",
"`#	c #28360D",
" $	c #293211",
".$	c #293214",
"+$	c #283113",
"@$	c #51270F",
"#$	c #000700",
"$$	c #132200",
"%$	c #8C9E4E",
"&$	c #303A10",
"*$	c #000B00",
"=$	c #6D7B32",
"-$	c #636F2B",
";$	c #300200",
">$	c #DD0000",
",$	c #2B0200",
"'$	c #38383A",
")$	c #383838",
"!$	c #383C38",
"~$	c #495338",
"{$	c #AFBD80",
"]$	c #555A3E",
"^$	c #3A3B38",
"/$	c #383A38",
"($	c #384038",
"_$	c #8E9765",
":$	c #90976B",
"<$	c #383D38",
"[$	c #393939",
". + @ # $ % % & * = - ; $ > , > > ' ) ! ~ { ] % ^ $ > / ( _ : < ",
"[ } | 1 2 | | 3 4 5 6 7 | 1 8 8 1 9 0 a b 7 c 1 d 8 c e f g h i ",
"j j j k j j j l m n o j j j j j k p q r s j k k k j k p t u v w ",
"x x x x y y x z A B C x D x x x E F G H I k J x x x x k K L M j ",
"N O O x x x x P Q R S x x x y y T U V W X j Y x x x O k Z `  .F ",
"E x x x x x y ..+.@.#.x $.$.x %.&.*.=.W -.;.x D x x O y >.,.'.).",
"!.y k k y k j ~.{.].j k y !.^./.&.(._.:.<.F [.y y k }.k |.1.2.3.",
"4.4.4.5.4.4.6.7.8.9.0.a.4.b.c.d.(.e.f.g.h.i.4.4.4.4.4.4.j.k.l.m.",
"n.o.o.p.o.o.q.r.s.t.u.v.w.x.y.z.A.B.C.D.E.F.n.n.n.n.G.G.v.H.I.J.",
"K.K.K.K.K.K.L.M.N.O.P.Q.R.S.T.U.(.V.W.X.Y.~.K.K.K.K.Q.Z.K.`. +.+",
"y y y y !.++w @+#+$+k %+/.&+*+=+&.-+;+>+,+'+y y k y y k y )+!+~+",
"x x x x $.!.F {+]+^+y /+(+_+:+<+&.[+}+|+1+2+O x x x x x x F 3+4+",
"x x x x x y w 5+6+7+x x 8+9+x 0+&.a+b+c+d+).J x x D x x x j e+f+",
"x x y x x y ).g+h+i+x x x x x j+&.k+j l+m+n+J x x x $.$.$.k o+p+",
"k k k k k j q+r+s+t+k k y k k u+&.v+F w+x+y+!.k k y !.++}.F l z+",
"A+A+B+A+B+B+C+D+E+F+A+A+A+A+A+G+(.H+I+J+K+L+M+A+N+N+A+N+A+O+P+Q+",
"R+S+T+U+U+V+W+X+Y+Z+`+R+R+ @.@+@@@#@$@%@&@*@=@R+R+R+R+U+R+-@;@>@",
",@'@)@!@~@{@]@^@/@(@!@_@,@:@,@<@A.[@}@|@1@2@!@,@,@,@~@!@~@3@4@5@",
"j k j j j p 6@7@8@2+j k k j j 9@(.0@p a@b@c@j ;.;.k k k k k j d@",
"[.x x x $.e@f@g@h@k D x x x x i@(.j@F k@l@m@D x x x x x $.$.x F ",
"x x x x x F @+n@o@k x x x x x p@(.q@F r@s@t@O x x O O x x x x F ",
"x x x x x w u@v@w@k x x x x x x@(.y@j z@A@B@O [.x O O x x x x F ",
"x x x x x w C@D@E@y y x x x x F@&.G@j H@I@J@y y x x x x x x x j ",
"x x x x x z K@L@M@y x x x x x N@&.O@j P@Q@R@k y x x x x x O y j ",
"x x x x y S@T@U@V@y x x x x x W@X@Y@j Z@`@ #j k $..#+#@#x ##$#j ",
"y y y y j %#&#*#=#k y y y y y -#;#>#w ,#'#)#w F !.!.!#~#{#]#^#F ",
"t+t+/#/#(#_#:#<#F+[#/#/#/#/#/#/#/#t+}#|#1#2#3#(#/#/#4#5#(.&.6#(#",
"7#7#8#8#9#0#a#b#c#d#e#8#e#8#e#e#8#7#f#g#h#i#j#k#e#d#e#l#@@m#7#n#",
"o#o#p#q#r#s#t#u#v#q#w#q#x#q#x#q#y#y#z#A#B#C#D#E#F#G#H#I#J#K#y#L#",
"M#M#N#O#P#Q#R#S#T#U#V#O#V#O#V#O#O#O#W#X#Y#Z#`# $.$U#+$@$J#@$O#U#",
"++k j k #$$$%$&$n+j k k k k k k k ++w *$=$-$o+F j ;.j ;$>$,$k j ",
"'$)$)$)$!$~${$]$^$)$)$)$)$)$)$)$)$'$/$($_$:$<$/$)$)$)$)$'$)$)$[$"};
