/* XPM */
static const char * const posZ_xpm[] = {
"32 32 495 2",
"  	c None",
". 	c #58652A",
"+ 	c #414C20",
"@ 	c #424C26",
"# 	c #434B28",
"$ 	c #414B27",
"% 	c #424A26",
"& 	c #414D1C",
"* 	c #405502",
"= 	c #8BA041",
"- 	c #43511A",
"; 	c #414B25",
"> 	c #424A27",
", 	c #424B27",
"' 	c #414E1C",
") 	c #586D11",
"! 	c #788A37",
"~ 	c #414D1F",
"{ 	c #414B24",
"] 	c #414B26",
"^ 	c #424B28",
"/ 	c #435215",
"( 	c #6D831D",
"_ 	c #657728",
": 	c #424E1E",
"< 	c #404A24",
"[ 	c #2D3A06",
"} 	c #1E2904",
"| 	c #1C2805",
"1 	c #1E2805",
"2 	c #1D2905",
"3 	c #1C2B04",
"4 	c #405709",
"5 	c #7F9535",
"6 	c #283704",
"7 	c #1C2905",
"8 	c #1D2805",
"9 	c #1D2B04",
"0 	c #495E0D",
"a 	c #677B22",
"b 	c #253404",
"c 	c #1E2705",
"d 	c #1D2705",
"e 	c #1F2E03",
"f 	c #526714",
"g 	c #6F8327",
"h 	c #2A3A09",
"i 	c #1D2A05",
"j 	c #000300",
"k 	c #000200",
"l 	c #000800",
"m 	c #203011",
"n 	c #59692A",
"o 	c #080F00",
"p 	c #000600",
"q 	c #243213",
"r 	c #64722D",
"s 	c #121903",
"t 	c #1F2B10",
"u 	c #515E20",
"v 	c #101902",
"w 	c #000500",
"x 	c #000000",
"y 	c #000100",
"z 	c #030900",
"A 	c #3F4D1D",
"B 	c #4E5A28",
"C 	c #070A00",
"D 	c #010101",
"E 	c #000002",
"F 	c #000400",
"G 	c #273217",
"H 	c #626D33",
"I 	c #121906",
"J 	c #010002",
"K 	c #151C0B",
"L 	c #596330",
"M 	c #222B13",
"N 	c #010103",
"O 	c #010000",
"P 	c #060D00",
"Q 	c #4C5A26",
"R 	c #424D1F",
"S 	c #040700",
"T 	c #020100",
"U 	c #A60000",
"V 	c #120400",
"W 	c #232D13",
"X 	c #646F35",
"Y 	c #1C230E",
"Z 	c #010102",
"` 	c #0E1507",
" .	c #5E6832",
"..	c #353F1E",
"+.	c #081000",
"@.	c #58672F",
"#.	c #374017",
"$.	c #020500",
"%.	c #000001",
"&.	c #BA0000",
"*.	c #290300",
"=.	c #242D13",
"-.	c #1D250F",
";.	c #010300",
">.	c #060A01",
",.	c #495421",
"'.	c #4C582A",
").	c #030800",
"!.	c #000101",
"~.	c #0B1600",
"{.	c #647535",
"].	c #2C350F",
"^.	c #050200",
"/.	c #B30100",
"(.	c #290400",
"_.	c #212A0F",
":.	c #657132",
"<.	c #202A11",
"[.	c #010100",
"}.	c #010201",
"|.	c #020600",
"1.	c #364013",
"2.	c #5F6F2A",
"3.	c #0E1700",
"4.	c #333A1E",
"5.	c #323A1E",
"6.	c #333C1C",
"7.	c #394A10",
"8.	c #82963B",
"9.	c #455319",
"0.	c #323C1C",
"a.	c #333A1D",
"b.	c #33391E",
"c.	c #44351B",
"d.	c #B7140A",
"e.	c #8E210E",
"f.	c #4B5922",
"g.	c #7D8E3A",
"h.	c #495A1C",
"i.	c #333D18",
"j.	c #343B1C",
"k.	c #515F1F",
"l.	c #819633",
"m.	c #455516",
"n.	c #444F21",
"o.	c #444F22",
"p.	c #434F22",
"q.	c #43511E",
"r.	c #425710",
"s.	c #97AE43",
"t.	c #4F6117",
"u.	c #43521F",
"v.	c #444F20",
"w.	c #455021",
"x.	c #57471D",
"y.	c #BF1B0B",
"z.	c #9E2A0F",
"A.	c #4F601D",
"B.	c #809536",
"C.	c #586E1D",
"D.	c #44521A",
"E.	c #4D5C1A",
"F.	c #7D9622",
"G.	c #62771C",
"H.	c #0B1200",
"I.	c #0B1500",
"J.	c #142600",
"K.	c #93A849",
"L.	c #212E00",
"M.	c #0B1400",
"N.	c #600C00",
"O.	c #E90200",
"P.	c #840A00",
"Q.	c #1D2902",
"R.	c #687A29",
"S.	c #2A3D10",
"T.	c #0C1200",
"U.	c #0C1300",
"V.	c #101C00",
"W.	c #50670A",
"X.	c #516419",
"Y.	c #000201",
"Z.	c #142400",
"`.	c #84944A",
" +	c #131901",
".+	c #970100",
"++	c #FD0000",
"@+	c #870100",
"#+	c #121702",
"$+	c #667233",
"%+	c #2B3913",
"&+	c #010700",
"*+	c #020900",
"=+	c #42540C",
"-+	c #64732F",
";+	c #1A2903",
">+	c #788747",
",+	c #111501",
"'+	c #960000",
")+	c #FA0000",
"!+	c #940000",
"~+	c #0C1000",
"{+	c #646F34",
"]+	c #324012",
"^+	c #020700",
"/+	c #313F09",
"(+	c #6F7D3A",
"_+	c #27360C",
":+	c #6D7A3F",
"<+	c #0F1301",
"[+	c #0C0000",
"}+	c #A90000",
"|+	c #F90000",
"1+	c #AB0000",
"2+	c #060900",
"3+	c #3D4B10",
"4+	c #121E05",
"5+	c #7A8846",
"6+	c #334215",
"7+	c #626E37",
"8+	c #0C1001",
"9+	c #2D0000",
"0+	c #D00000",
"a+	c #FC0000",
"b+	c #616C33",
"c+	c #45540F",
"d+	c #040900",
"e+	c #000900",
"f+	c #788444",
"g+	c #050D00",
"h+	c #3F4F1B",
"i+	c #57632B",
"j+	c #0A0F00",
"k+	c #2C0200",
"l+	c #D40000",
"m+	c #DC0000",
"n+	c #2B0300",
"o+	c #63712F",
"p+	c #43550D",
"q+	c #040B00",
"r+	c #64702E",
"s+	c #0A1100",
"t+	c #0A1200",
"u+	c #122000",
"v+	c #566B21",
"w+	c #566720",
"x+	c #121C00",
"y+	c #370E00",
"z+	c #E30200",
"A+	c #F80000",
"B+	c #DA0300",
"C+	c #560E00",
"D+	c #677B23",
"E+	c #566E0A",
"F+	c #0F1B00",
"G+	c #0A1000",
"H+	c #0B1100",
"I+	c #0B1300",
"J+	c #0A1500",
"K+	c #566616",
"L+	c #394419",
"M+	c #384319",
"N+	c #384519",
"O+	c #394418",
"P+	c #384517",
"Q+	c #3E520D",
"R+	c #7B932B",
"S+	c #687D24",
"T+	c #3B4B15",
"U+	c #384418",
"V+	c #374419",
"W+	c #723012",
"X+	c #D60E05",
"Y+	c #F60301",
"Z+	c #E60903",
"`+	c #AB1E08",
" @	c #7C9423",
".@	c #85A01A",
"+@	c #3E4E11",
"@@	c #384318",
"#@	c #394518",
"$@	c #394615",
"%@	c #5C6F16",
"&@	c #4E572F",
"*@	c #4E562F",
"=@	c #4D562E",
"-@	c #4E572D",
";@	c #4E572E",
">@	c #4D5829",
",@	c #506216",
"'@	c #889F36",
")@	c #697A2B",
"!@	c #4E5B28",
"~@	c #E50D07",
"{@	c #813E22",
"]@	c #4D572F",
"^@	c #9F2F19",
"/@	c #E00F08",
"(@	c #FA0201",
"_@	c #F50503",
":@	c #DD1107",
"<@	c #7D9324",
"[@	c #E82409",
"}@	c #F40602",
"|@	c #634D28",
"1@	c #4E572C",
"2@	c #4E5828",
"3@	c #53621D",
"4@	c #0F1D00",
"5@	c #819445",
"6@	c #303B10",
"7@	c #9B0100",
"8@	c #110300",
"9@	c #B60100",
"0@	c #ED0000",
"a@	c #F30000",
"b@	c #CF0100",
"c@	c #893501",
"d@	c #F90601",
"e@	c #040300",
"f@	c #0F1700",
"g@	c #000301",
"h@	c #111F00",
"i@	c #8FA154",
"j@	c #222A08",
"k@	c #DF0000",
"l@	c #CB0000",
"m@	c #920000",
"n@	c #CC0000",
"o@	c #E90000",
"p@	c #FB0000",
"q@	c #D80100",
"r@	c #DE0E02",
"s@	c #F20F06",
"t@	c #C00301",
"u@	c #9CAE5D",
"v@	c #192000",
"w@	c #660000",
"x@	c #C50000",
"y@	c #EB0000",
"z@	c #EE0000",
"A@	c #D60100",
"B@	c #D90A00",
"C@	c #EF1308",
"D@	c #4A0802",
"E@	c #172600",
"F@	c #A0B260",
"G@	c #161C00",
"H@	c #A20000",
"I@	c #E60000",
"J@	c #EF0000",
"K@	c #E50000",
"L@	c #F50300",
"M@	c #D33418",
"N@	c #060B03",
"O@	c #213107",
"P@	c #93A457",
"Q@	c #141A00",
"R@	c #150000",
"S@	c #DA0000",
"T@	c #F70000",
"U@	c #DD0000",
"V@	c #EA0500",
"W@	c #879240",
"X@	c #191F03",
"Y@	c #2F3E10",
"Z@	c #86964D",
"`@	c #111700",
" #	c #5A0000",
".#	c #EC0000",
"+#	c #E70000",
"@#	c #F00000",
"##	c #212900",
"$#	c #92A350",
"%#	c #1E2403",
"&#	c #050C00",
"*#	c #3D4C1A",
"=#	c #798844",
"-#	c #0F1500",
";#	c #AF0000",
">#	c #F60000",
",#	c #660200",
"'#	c #152200",
")#	c #9AAC5B",
"!#	c #2B320B",
"~#	c #071100",
"{#	c #4A5B22",
"]#	c #6C7B39",
"^#	c #0D1400",
"/#	c #040100",
"(#	c #820100",
"_#	c #1F0100",
":#	c #0E1C00",
"<#	c #92A552",
"[#	c #37400D",
"}#	c #F50000",
"|#	c #FF0000",
"1#	c #090F00",
"2#	c #091100",
"3#	c #112000",
"4#	c #5A6F27",
"5#	c #62742C",
"6#	c #091000",
"7#	c #290D00",
"8#	c #820800",
"9#	c #0A1300",
"0#	c #091A00",
"a#	c #889D3C",
"b#	c #3C4A02",
"c#	c #091300",
"d#	c #980600",
"e#	c #830800",
"f#	c #344101",
"g#	c #334101",
"h#	c #334301",
"i#	c #314700",
"j#	c #708926",
"k#	c #62781E",
"l#	c #314201",
"m#	c #314101",
"n#	c #324201",
"o#	c #344301",
"p#	c #324800",
"q#	c #9FB73E",
"r#	c #586D04",
"s#	c #314400",
"t#	c #334401",
"u#	c #832701",
"v#	c #FE0000",
"w#	c #D20F00",
"x#	c #334201",
"y#	c #66732E",
"z#	c #64732D",
"A#	c #65732C",
"B#	c #657526",
"C#	c #637A14",
"D#	c #8CA530",
"E#	c #798E2D",
"F#	c #647529",
"G#	c #63732B",
"H#	c #64732C",
"I#	c #66732C",
"J#	c #667524",
"K#	c #647912",
"L#	c #A2BA42",
"M#	c #83992D",
"N#	c #63771D",
"O#	c #657427",
"P#	c #64742D",
"Q#	c #65732A",
"R#	c #8D541F",
"S#	c #FD0101",
"T#	c #F20A04",
"U#	c #65732B",
"V#	c #293014",
"W#	c #283114",
"X#	c #293013",
"Y#	c #293410",
"Z#	c #324508",
"`#	c #879C3E",
" $	c #536220",
".$	c #2C3613",
"+$	c #293113",
"@$	c #283013",
"#$	c #293310",
"$$	c #283808",
"%$	c #819334",
"&$	c #6B7C25",
"*$	c #28360D",
"=$	c #293211",
"-$	c #293214",
";$	c #90190A",
">$	c #FB0100",
",$	c #332E12",
"'$	c #000700",
")$	c #132200",
"!$	c #8C9E4E",
"~$	c #303A10",
"{$	c #000B00",
"]$	c #6D7B32",
"^$	c #636F2B",
"/$	c #38383A",
"($	c #383838",
"_$	c #383C38",
":$	c #495338",
"<$	c #AFBD80",
"[$	c #555A3E",
"}$	c #3A3B38",
"|$	c #383A38",
"1$	c #384038",
"2$	c #8E9765",
"3$	c #90976B",
"4$	c #383D38",
"5$	c #4C3333",
"6$	c #393939",
". + @ # $ % % & * = - ; $ > , > > ' ) ! ~ { ] % ^ $ > / ( _ : < ",
"[ } | 1 2 | | 3 4 5 6 7 | 1 8 8 1 9 0 a b 7 c 1 d 8 c e f g h i ",
"j j j k j j j l m n o j j j j j k p q r s j k k k j k p t u v w ",
"x x x x y y x z A B C x D x x x E F G H I k J x x x x k K L M j ",
"N O O x x x x P Q R S x x x y T U V W X Y j Z x x x O k `  ...F ",
"E x x x x x y +.@.#.$.x %.%.x y &.*.=.X -.;.x D x x O y >.,.'.).",
"!.y k k y k j ~.{.].j k y !.y ^./.(._.:.<.F [.y y k }.k |.1.2.3.",
"4.4.4.5.4.4.6.7.8.9.0.a.4.b.4.c.d.e.f.g.h.i.4.4.4.4.4.4.j.k.l.m.",
"n.o.o.p.o.o.q.r.s.t.u.v.n.n.w.x.y.z.A.B.C.D.n.n.n.n.w.w.v.E.F.G.",
"H.H.H.H.H.H.I.J.K.L.M.H.H.H.H.N.O.P.Q.R.S.~.H.H.H.H.T.U.H.V.W.X.",
"y y y y !.Y.w Z.`. +k k y y y .+++@+#+$+%+&+y y k y y k y *+=+-+",
"x x x x %.!.F ;+>+,+y x x x x '+)+!+~+{+]+^+O x x x x x x F /+(+",
"x x x x x y w _+:+<+x x x x [+}+|+1+2+H 3+).J x x D x x x j 4+5+",
"x x y x x y ).6+7+8+x x x x 9+0+a+0+;.b+c+d+J x x x %.%.%.k e+f+",
"k k k k k j g+h+i+j+k k y k k+l+a+m+n+o+p+q+!.k k y !.Y.}.F l r+",
"s+s+t+s+t+t+u+v+w+x+s+s+s+s+y+z+A+B+C+D+E+F+G+s+H+H+s+H+s+I+J+K+",
"L+M+N+O+O+P+Q+R+S+T+U+L+L+V+W+X+Y+Z+`+ @.@+@@@L+L+L+L+O+L+#@$@%@",
"&@*@=@-@;@>@,@'@)@!@-@~@{@]@^@/@(@_@:@<@[@}@|@&@&@&@;@-@;@1@2@3@",
"j k j j j p 4@5@6@^+j |+7@8@9@0@++a@b@c@d@A+e@;.;.k k k k k j f@",
"[.x x x %.g@h@i@j@k D k@l@m@n@o@p@0@q@r@s@t@D x x x x x %.%.x F ",
"x x x x x F Z.u@v@k x w@x@y@z@a@)+|+A@B@C@D@O x x O O x x x x F ",
"x x x x x w E@F@G@k x x H@I@I@J@a+0@K@L@M@N@O [.x O O x x x x F ",
"x x x x x w O@P@Q@y y x R@S@y@o@T@U@++V@W@X@y y x x x x x x x j ",
"x x x x x z Y@Z@`@y x x x  #.#A+T@+#@###$#%#k y x x x x x O y j ",
"x x x x y &#*#=#-#y x x x x ;#>#o@z@,#'#)#!#j k %.%.%.x x %.y j ",
"y y y y j ~#{#]#^#k y y y y /#(#l@_#w :#<#[#w F !.}#|#|#|#|#p@F ",
"j+j+1#1#2#3#4#5#x+6#1#1#1#1#1#7#8#j+9#0#a#b#c#2#1#1#1#1#d#|#e#2#",
"f#f#g#g#h#i#j#k#l#m#n#g#n#g#n#n#g#f#o#p#q#r#s#t#n#m#n#u#v#w#f#x#",
"y#y#z#A#B#C#D#E#F#A#G#A#H#A#H#A#I#I#J#K#L#M#N#O#P#Q#R#S#T#I#I#U#",
"V#V#W#X#Y#Z#`# $.$+$@$X#@$X#@$X#X#X##$$$%$&$*$=$-$;$++>$,$X#X#+$",
"Y.k j k '$)$!$~$d+j k k k k k k k Y.w {$]$^$e+F j v#|#++|#|#}#j ",
"/$($($($_$:$<$[$}$($($($($($($($($/$|$1$2$3$4$|$($5$5$($/$($($6$"};
