/* XPM */
static char * question_xpm[] = {
"39 38 5 1",
" 	c None",
".	c #000000",
"+	c #0000FF",
"@	c #999999",
"#	c #FFFFFF",
"                                       ",
"                                       ",
"                                       ",
"                                       ",
"               @@@@@@@@                ",
"            @@@########@@@             ",
"          @@##############@@           ",
"         @##################@          ",
"        @####################.         ",
"       @########++++++########.        ",
"      @########+###++++########.       ",
"     @########++####++++########.      ",
"     @########++++##++++########.@     ",
"    @#########++++##++++#########.@    ",
"     ##########++##++++##########.@    ",
"    @#############++++###########.@@   ",
"    @#############+++############.@@   ",
"    @#############++#############.@@   ",
"    @#############++#############.@@   ",
"    @############################.@@   ",
"     @############++############.@@@   ",
"     @###########++++###########.@@@   ",
"      @##########++++##########.@@@    ",
"       .##########++##########.@@@@    ",
"        .####################.@@@@     ",
"         .##################.@@@@      ",
"          ..##############..@@@@       ",
"           @...########...@@@@@        ",
"            @@@...####.@@@@@@@         ",
"              @@@@.###.@@@@@           ",
"                 @.###.@@              ",
"                   .##.@@              ",
"                    .#.@@              ",
"                     ..@@              ",
"                      @@@              ",
"                       @@              ",
"                                       ",
"                                       "};
