/* XPM */
static const char * reopen_xpm[] = {
"16 16 109 2",
"  	c None",
". 	c #727F8E",
"+ 	c #768AA0",
"@ 	c #707D8E",
"# 	c #98A3B4",
"$ 	c #8E96A3",
"% 	c #808C96",
"& 	c #BFCCD9",
"* 	c #FDFDFD",
"= 	c #F9F9F9",
"- 	c #F6F7F8",
"; 	c #B3DEF9",
"> 	c #57718C",
", 	c #CEA221",
"' 	c #BDC8D5",
") 	c #FFFFFF",
"! 	c #FDFEFF",
"~ 	c #F4F9FF",
"{ 	c #98D0FA",
"] 	c #4A98DD",
"^ 	c #D6D1BE",
"/ 	c #BAC3D0",
"( 	c #EFF7FF",
"_ 	c #D7EBFF",
": 	c #CCE3FA",
"< 	c #A7B5E5",
"[ 	c #ACA584",
"} 	c #D6B95C",
"| 	c #D9D7A1",
"1 	c #B7BFCB",
"2 	c #A6D2FF",
"3 	c #9FCFFF",
"4 	c #A8D4FF",
"5 	c #99CCFF",
"6 	c #A5D2FF",
"7 	c #A7B8E4",
"8 	c #AC9F60",
"9 	c #C9A939",
"0 	c #C69A18",
"a 	c #A6802F",
"b 	c #D9D299",
"c 	c #B3BAC7",
"d 	c #9ECFFF",
"e 	c #A3D1FF",
"f 	c #99B9CF",
"g 	c #C3A660",
"h 	c #247237",
"i 	c #E2D2AF",
"j 	c #F2E2B3",
"k 	c #CFB370",
"l 	c #D9C98E",
"m 	c #A9ABB3",
"n 	c #99A69F",
"o 	c #AFA470",
"p 	c #BEAA70",
"q 	c #D2BC80",
"r 	c #FFFFEC",
"s 	c #FFF2B7",
"t 	c #FFFFF0",
"u 	c #FCF9E1",
"v 	c #C09634",
"w 	c #D9BD7E",
"x 	c #9B8451",
"y 	c #F5ECCA",
"z 	c #FFFFE3",
"A 	c #FFFFD9",
"B 	c #FFFFC6",
"C 	c #FFFFB9",
"D 	c #44A32D",
"E 	c #FFFFD6",
"F 	c #DFCC86",
"G 	c #C29835",
"H 	c #D8B775",
"I 	c #C6A966",
"J 	c #FFFF99",
"K 	c #7EE44B",
"L 	c #3FA522",
"M 	c #96751A",
"N 	c #BF9432",
"O 	c #E2B558",
"P 	c #E9D9AF",
"Q 	c #FFF58F",
"R 	c #006600",
"S 	c #71D73E",
"T 	c #65CC33",
"U 	c #3BAA1D",
"V 	c #0E5702",
"W 	c #B3862D",
"X 	c #D2A84E",
"Y 	c #FFF9D9",
"Z 	c #FFEB85",
"` 	c #93F960",
" .	c #83E950",
"..	c #73D940",
"+.	c #50C128",
"@.	c #36B41B",
"#.	c #19A00D",
"$.	c #006200",
"%.	c #A6770B",
"&.	c #D6B770",
"*.	c #FFECAC",
"=.	c #FFE07A",
"-.	c #1CA80F",
";.	c #A5720C",
">.	c #E2CF9F",
",.	c #FFD979",
"'.	c #F5CB5B",
").	c #E9BC46",
"!.	c #1CA40F",
"    . + @ # $ %                 ",
"    & * = = - ; >               ",
", , ' ) ) ! ~ { ]               ",
", ^ / ) ! ( _ : < [ }           ",
", | 1 2 3 4 5 6 7 8 9 0 0 a     ",
", b c 3 d e f g h i j ) ) k     ",
", l m n o p q r h h s t u       ",
"v w x y z A B C h D h E F       ",
"G H I C J J J J h K L h M       ",
"N O P Q Q R R R R S T U V       ",
"W X Y Z Z R `  ...T +.@.#.$.    ",
"%.&.*.=.=.R `  ...+.@.-.h       ",
";.>.,.'.).R R R R @.-.h         ",
";.;.;.;.;.;.    h !.h           ",
"                h h             ",
"                h               "};
