/* XPM */
static char * rotX4_xpm[] = {
"32 32 114 2",
"  	c None",
". 	c #FFFFFF",
"+ 	c #FFFEFE",
"@ 	c #FFA3A3",
"# 	c #FF7878",
"$ 	c #FF7676",
"% 	c #FF7777",
"& 	c #FF7D7D",
"* 	c #FF8181",
"= 	c #FF0E0E",
"- 	c #FF1919",
"; 	c #FF1515",
"> 	c #FF9797",
", 	c #FFACAC",
"' 	c #FF0404",
") 	c #FF0101",
"! 	c #FF0202",
"~ 	c #FD0000",
"{ 	c #FE0000",
"] 	c #F80000",
"^ 	c #FF0000",
"/ 	c #FFE0E0",
"( 	c #040404",
"_ 	c #090303",
": 	c #FE0404",
"< 	c #FE0D0D",
"[ 	c #CB0000",
"} 	c #FFFAFA",
"| 	c #950101",
"1 	c #FC1010",
"2 	c #FE0202",
"3 	c #FD1515",
"4 	c #EFD6D6",
"5 	c #FE0A0A",
"6 	c #FD0B0B",
"7 	c #E1BDBD",
"8 	c #FF0606",
"9 	c #FFCFCF",
"0 	c #F3A4A4",
"a 	c #F06060",
"b 	c #DDDDDD",
"c 	c #BBBBBB",
"d 	c #F92525",
"e 	c #FFF9F9",
"f 	c #EEEEEE",
"g 	c #EEE2E2",
"h 	c #FB1616",
"i 	c #AAAAAA",
"j 	c #000000",
"k 	c #FFE1E1",
"l 	c #FE0606",
"m 	c #F90D0D",
"n 	c #888888",
"o 	c #FF7E7E",
"p 	c #FB1313",
"q 	c #E05555",
"r 	c #555555",
"s 	c #FD1C1C",
"t 	c #444444",
"u 	c #222222",
"v 	c #E54646",
"w 	c #F90F0F",
"x 	c #FA0C0C",
"y 	c #111111",
"z 	c #137A0B",
"A 	c #123210",
"B 	c #F41414",
"C 	c #2C8326",
"D 	c #098500",
"E 	c #192A18",
"F 	c #F01C1C",
"G 	c #0F120F",
"H 	c #091808",
"I 	c #0B8402",
"J 	c #064003",
"K 	c #F61010",
"L 	c #021E00",
"M 	c #093D05",
"N 	c #416B3E",
"O 	c #098700",
"P 	c #1A2A18",
"Q 	c #F51A1A",
"R 	c #FA0B0B",
"S 	c #0B170A",
"T 	c #044200",
"U 	c #0E8006",
"V 	c #0C8303",
"W 	c #BCB6B6",
"X 	c #C69B9B",
"Y 	c #2C5E29",
"Z 	c #098600",
"` 	c #10A006",
" .	c #266522",
"..	c #777777",
"+.	c #377533",
"@.	c #0BA600",
"#.	c #424542",
"$.	c #4C5E4B",
"%.	c #189910",
"&.	c #0A8501",
"*.	c #064002",
"=.	c #101110",
"-.	c #0BA800",
";.	c #16780F",
">.	c #022000",
",.	c #041E03",
"'.	c #1D6F17",
").	c #0CA701",
"!.	c #081A06",
"~.	c #0CA702",
"{.	c #0F7F07",
"].	c #2F7F2A",
"^.	c #345531",
"/.	c #2D5D2A",
". . . . . . . . . . . . . . . . . . . . . . . . . . . . . . . . ",
". . . . . . . . . . . . . . . . . . . . . . . . . . . . . . . . ",
". . . . . . . . . . . . + + . + + . . . . . . . . . . . . . . . ",
". . . . . . @ # $ % & * = - ; > . + . . . . . . . . . . . . . . ",
". . . . . . , ' ) ) ! ~ { ] ^ ^ / . . . . . . . . . . . . . . . ",
". . . . . . . . . ( _ : ^ < [ ^ } . . . . . . . . . . . . . . . ",
". . . . . . . ( | 1 2 ^ 3 4 5 6 ( ( . . . . . . . . . . . . . . ",
". . . . . ( ( 7 ^ ^ 8 9 . 0 { a b c ( ( . . . . . . . . . . . . ",
". . . ( ( b b d ^ ' e f f g { h c c i i ( ( . . . . . . . . . . ",
". . j b b b b ^ ^ k f f f b l m c i i c b n ( . . . . . . . . . ",
". . ( . . b d ^ o f f f b b p q c i b b r ( ( . . . . . . . . . ",
". . ( c c . ' s . . f f b b b c b b r t u t ( . . . . . . . . . ",
". . ( c c v { k . . . f b b b b r ( t t t t ( . . . . . . . . . ",
". . ( c c w x i i . . b b f r ( y t t r z A ( . . . . . . . . . ",
". . ( c c x B i n n n . . r y y u t r C D E ( . . . . . . . . . ",
". . ( i c ^ F i n n n n . G H y t t r I J u ( . . . . . . . . . ",
". . ( i c { K i n n n n b G L M t r N O P u ( . . . . . . . . . ",
". . ( i i Q R i n n n n b y S T U r V I u u ( . . . . . . . . . ",
". . ( i i W X i i n n n i u u Y Z ` Z  .u y ( t ... . . . . . . ",
". . ( n i i c c i n n n i u t t +.@.D #.u y ( u u t ... . . . . ",
". . ( n n i c c i i n n i t t t $.Z D J u y ( u u u u u t ... . ",
". . ( n n i i c c i n n i t t t %.&.Y T *.=.( u u u u u u u t . ",
". . ( n n n i c c i i n c t t #.-.;.u P >.,.( u u u u u u u t . ",
". . ( n n n i i c c i i c t t '.).#.u u S !.( u u u u u u t . . ",
". . ( n n n n i c c c i c t t ~.{.t u y y y ( u u u u t ... . . ",
". . . ( ( n n n i c c i c t ].-.#.u u y y ( u u u u t . . . . . ",
". . . . . ( ( n i i c c c t ^./.t u ( ( u u u u u t . . . . . . ",
". . . . . . . ( ( i c c n t t t ( ( u u u u u t ... . . . . . . ",
". . . . . . . . . ( ( n n u ( ( u u u u u u t . . . . . . . . . ",
". . . . . . . . . . . ( ( u u u u u u u t ... . . . . . . . . . ",
". . . . . . . . . . . . . . . . . . . . . . . . . . . . . . . . ",
". . . . . . . . . . . . . . . . . . . . . . . . . . . . . . . . "};
