/* XPM */
static const char * rotX_xpm[] = {
"22 22 197 2",
"  	c None",
". 	c #000000",
"+ 	c #100000",
"@ 	c #5E0000",
"# 	c #330000",
"$ 	c #110000",
"% 	c #020000",
"& 	c #FFFFFF",
"* 	c #FEFEFE",
"= 	c #F2DBDB",
"- 	c #EE6C6C",
"; 	c #F25959",
"> 	c #F0A6A6",
", 	c #F2DCDC",
"' 	c #FBF7F7",
") 	c #F8EEEE",
"! 	c #F1D0D0",
"~ 	c #F2A1A1",
"{ 	c #F53D3D",
"] 	c #F24444",
"^ 	c #EE9595",
"/ 	c #F3DFDF",
"( 	c #FAF5F5",
"_ 	c #F3DEDE",
": 	c #F0CBCB",
"< 	c #F1A7A7",
"[ 	c #F25252",
"} 	c #F63131",
"| 	c #F63232",
"1 	c #F06161",
"2 	c #F3C8C8",
"3 	c #FCFAFA",
"4 	c #FAF3F3",
"5 	c #F3CDCD",
"6 	c #EE9797",
"7 	c #F05E5E",
"8 	c #F15151",
"9 	c #F44848",
"0 	c #F63E3E",
"a 	c #F44444",
"b 	c #F15555",
"c 	c #F2C2C2",
"d 	c #FCF9F9",
"e 	c #ED8989",
"f 	c #F24949",
"g 	c #F14242",
"h 	c #F05B5B",
"i 	c #F18C8C",
"j 	c #F17878",
"k 	c #F04949",
"l 	c #E96F6F",
"m 	c #F0D3D3",
"n 	c #FEFDFD",
"o 	c #F9F2F2",
"p 	c #EECBCB",
"q 	c #EC6565",
"r 	c #EC3E3E",
"s 	c #DF5A5A",
"t 	c #D18B8B",
"u 	c #D57A7A",
"v 	c #DF4D4D",
"w 	c #DD5454",
"x 	c #C99999",
"y 	c #D1C5C5",
"z 	c #FDFDFD",
"A 	c #FCFCFC",
"B 	c #ECD9D9",
"C 	c #DF8787",
"D 	c #DF4747",
"E 	c #BA5656",
"F 	c #7A5050",
"G 	c #704949",
"H 	c #9F3939",
"I 	c #A73F3F",
"J 	c #955252",
"K 	c #816E6E",
"L 	c #838282",
"M 	c #878787",
"N 	c #8A8A8A",
"O 	c #909090",
"P 	c #9E9E9E",
"Q 	c #AFAFAF",
"R 	c #C0C0C0",
"S 	c #D5D5D5",
"T 	c #EACFCF",
"U 	c #B62E2E",
"V 	c #AF1B1B",
"W 	c #5E3131",
"X 	c #402F2F",
"Y 	c #392A2A",
"Z 	c #5D3838",
"` 	c #684C4C",
" .	c #665757",
"..	c #656363",
"+.	c #686868",
"@.	c #6A6A6A",
"#.	c #6B6B6B",
"$.	c #6F6F6F",
"%.	c #747474",
"&.	c #797979",
"*.	c #7F7F7F",
"=.	c #929292",
"-.	c #F8F4F4",
";.	c #DEB9B9",
">.	c #AD1F1F",
",.	c #8F1010",
"'.	c #361C1C",
").	c #1E1A1A",
"!.	c #202020",
"~.	c #3D3D3D",
"{.	c #545454",
"].	c #5E5E5E",
"^.	c #646464",
"/.	c #666666",
"(.	c #656565",
"_.	c #636363",
":.	c #808080",
"<.	c #F6F2F2",
"[.	c #D69595",
"}.	c #A42626",
"|.	c #4F1A1A",
"1.	c #221616",
"2.	c #151515",
"3.	c #1B1B1B",
"4.	c #3A3A3A",
"5.	c #505050",
"6.	c #626262",
"7.	c #5A5A5A",
"8.	c #5B5B5B",
"9.	c #5C5C5C",
"0.	c #606060",
"a.	c #7C7C7C",
"b.	c #F4F3F3",
"c.	c #C1A4A4",
"d.	c #7B3F3F",
"e.	c #312020",
"f.	c #161616",
"g.	c #181818",
"h.	c #393939",
"i.	c #585858",
"j.	c #5F5F5F",
"k.	c #5D5D5D",
"l.	c #595959",
"m.	c #7D7D7D",
"n.	c #F5F5F5",
"o.	c #B9B7B7",
"p.	c #5B5757",
"q.	c #242323",
"r.	c #171717",
"s.	c #383838",
"t.	c #616161",
"u.	c #F1F1F1",
"v.	c #B4B4B4",
"w.	c #232323",
"x.	c #373737",
"y.	c #555555",
"z.	c #535353",
"A.	c #7E7E7E",
"B.	c #F3F3F3",
"C.	c #DDDDDD",
"D.	c #575757",
"E.	c #141414",
"F.	c #131313",
"G.	c #4F4F4F",
"H.	c #525252",
"I.	c #F7F7F7",
"J.	c #E3E3E3",
"K.	c #252525",
"L.	c #0F0F0F",
"M.	c #363636",
"N.	c #4E4E4E",
"O.	c #F9F9F9",
"P.	c #565656",
"Q.	c #242424",
"R.	c #0D0C0C",
"S.	c #333333",
"T.	c #4A4949",
"U.	c #7B7B7B",
"V.	c #E7E7E7",
"W.	c #353535",
"X.	c #4B4B4B",
"Y.	c #EDEDED",
"Z.	c #2F2F2F",
"`.	c #121212",
" +	c #1D1D1D",
".+	c #3E3E3E",
"++	c #515151",
"@+	c #6C6C6C",
"#+	c #858585",
"$+	c #D4D4D4",
"%+	c #2E2E2E",
"&+	c #676767",
"*+	c #696969",
"=+	c #727272",
"-+	c #9F9F9F",
";+	c #FAFAFA",
">+	c #F8F8F8",
". . . . . . . + @ # $ % . . . . . . . . . . ",
". & & & & & * = - ; > , ' & & & & & & & & . ",
". & & & & & ) ! ~ { ] ^ / & & & & & & & & . ",
". & & & ( _ : < [ } | 1 2 3 & & & & & & & . ",
". & & 4 5 6 7 8 9 0 a b c d & & & & & & & . ",
". & & , e f g h i j k l m n & & & & & & & . ",
". & o p q r s t u v w x y z A * & & & & & . ",
". & B C D E F G H I J K L M N O P Q R S z . ",
". n T U V W X Y Z `  ...+.@.#.$.%.&.*.=.A . ",
". -.;.>.,.'.).!.~.{.].^./.(.(._._.^./.:.* . ",
". <.[.}.|.1.2.3.4.5.].6.6.6.7.8.9.0.^.a.* . ",
". b.c.d.e.f.2.g.h.i.j._.(.k.l.7.7.k.6.m.* . ",
". n.o.p.q.f.2.r.s.i.6.t.7.7.8.7.{.7.t.m.* . ",
". u.v.i.w.2.2.f.x.5.k.].7.l.7.y.z.7.6.A.* . ",
". B.C.D.w.E.F.2.x.G.9.7.8.l.D.D.H.D.^.A.* . ",
". I.J.D.K.F.L.E.M.N.8.l.7.D.D.{.y.D.6.m.* . ",
". O.J.P.Q.F.R.F.S.T.y.D.i.P.P.D.i.k.(.U.& . ",
". I.V.y.K.r.L.f.W.X.P.l.7.l.l.7.].j.+.a.& . ",
". n.Y.l.Z.!.`. +.+++8.8.].].k.k.0.6.@+#+& . ",
". A I.$+M i.%+x.z.k.^.&+*+#.@+#.@+=+:.-+& . ",
". & & & & & & & & & * ;+O.O.>+O.>+O.* & & . ",
". . . . . . . . . . . . . . . . . . . . . . "};
