/* XPM */
static char * rotY4_xpm[] = {
"32 32 93 2",
"  	c None",
". 	c #FFFFFF",
"+ 	c #FFE6E6",
"@ 	c #FF5C5C",
"# 	c #FF8A8A",
"$ 	c #FF0000",
"% 	c #FF9A9A",
"& 	c #FFBBBB",
"* 	c #FF1515",
"= 	c #FF0707",
"- 	c #FF0303",
"; 	c #FF0101",
"> 	c #FF0404",
", 	c #FF1818",
"' 	c #FF4E4E",
") 	c #FFC6C6",
"! 	c #FFE1E1",
"~ 	c #FF1111",
"{ 	c #FF0202",
"] 	c #FF2A2A",
"^ 	c #FF7070",
"/ 	c #FF0909",
"( 	c #FB0000",
"_ 	c #EA0000",
": 	c #FD0000",
"< 	c #FF2929",
"[ 	c #FF7B7B",
"} 	c #FF8C8C",
"| 	c #FF7373",
"1 	c #040404",
"2 	c #DDDDDD",
"3 	c #EEEEEE",
"4 	c #EEE8E8",
"5 	c #DB0000",
"6 	c #FF7474",
"7 	c #FF0D0D",
"8 	c #FFF9F9",
"9 	c #ED7373",
"0 	c #F60000",
"a 	c #FC0000",
"b 	c #FF6767",
"c 	c #FF1717",
"d 	c #FF0C0C",
"e 	c #FF7F7F",
"f 	c #FE0101",
"g 	c #FE0000",
"h 	c #770202",
"i 	c #1C0303",
"j 	c #F49898",
"k 	c #F85F5F",
"l 	c #F48C8C",
"m 	c #E89595",
"n 	c #ED6F6F",
"o 	c #D96666",
"p 	c #CD8989",
"q 	c #AAAAAA",
"r 	c #000000",
"s 	c #BBBBBB",
"t 	c #888888",
"u 	c #555555",
"v 	c #444444",
"w 	c #222222",
"x 	c #98E390",
"y 	c #81FE74",
"z 	c #95E88D",
"A 	c #111111",
"B 	c #8DF283",
"C 	c #83FE77",
"D 	c #A8ACA7",
"E 	c #B9BCB9",
"F 	c #70EF63",
"G 	c #858A85",
"H 	c #67AF60",
"I 	c #64FE54",
"J 	c #8ECB87",
"K 	c #2DF618",
"L 	c #27FE10",
"M 	c #28FD11",
"N 	c #85FC79",
"O 	c #63FF53",
"P 	c #2CF817",
"Q 	c #4ECE40",
"R 	c #97E58F",
"S 	c #777777",
"T 	c #9BE194",
"U 	c #8BF481",
"V 	c #84FC79",
"W 	c #69F85B",
"X 	c #87F97C",
"Y 	c #65FD55",
"Z 	c #74EA68",
"` 	c #86D57E",
" .	c #779C73",
". . . . . . . . . . . . . . . . . . . . . . . . . . . . . . . . ",
". . . . . . . . . . . . . . . . + @ . . . . . . . . . . . . . . ",
". . . . . . . . . . . . . . . . # $ % . . . . . . . . . . . . . ",
". . . . . . & * = - ; > , ' + . # ; ) . . . . . . . . . . . . . ",
". . . . ! ~ $ { ] ^ / ( _ : ; < & { [ . . . . . . . . . . . . . ",
". . . } > - | . . 1 1 2 3 4 5 : ; > # . . . . . . . . . . . . . ",
". . 6 ; 7 8 . 1 1 2 2 3 3 3 4 9 0 a b . . . . . . . . . . . . . ",
". . c d . 1 1 2 2 3 e = ; f $ $ $ g h 1 . . . . . . . . . . . . ",
". . + i 1 2 2 2 3 . . j k l m n o p q q 1 1 . . . . . . . . . . ",
". . r 2 2 2 2 3 . . 3 3 3 2 2 s s q q s 2 t 1 . . . . . . . . . ",
". . 1 . . 2 2 3 . 3 3 3 2 2 2 s s q 2 2 u 1 1 . . . . . . . . . ",
". . 1 s s . . 3 . . 3 3 2 2 2 s 2 2 u v w v 1 . . . . . . . . . ",
". . 1 s x s q . . . . 3 2 2 2 2 u 1 v v v v 1 . . . . . . . . . ",
". . 1 s y z s q q . . 2 2 3 u 1 A v v u v w 1 . . . . . . . . . ",
". . 1 s B C D q t t t . . u A A w v u u v w 1 . . . . . . . . . ",
". . 1 q E C F q t G H t . A A A v v u v w w 1 . . . . . . . . . ",
". . 1 q s z I J K L M t 2 A A w v u u v w w 1 . . . . . . . . . ",
". . 1 q q s N O P Q G t 2 A A w v u v v w w 1 . . . . . . . . . ",
". . 1 q q s R O q t t t q w w v v u v v w A 1 v S . . . . . . . ",
". . 1 t q q T C q t t t q w v v u u v v w A 1 w w v S . . . . . ",
". . 1 t t q U V q q t t q v v v u v v w w A 1 w w w w w v S . . ",
". . 1 t t q W X s q t t q v v v u v v w w A 1 w w w w w w w v . ",
". . 1 t t t W X s q q t s v v v u v w w A A 1 w w w w w w w v . ",
". . 1 t t t Y Z s s q q s v v v u v w w A A 1 w w w w w w v . . ",
". . 1 t t t M ` s s s q s v v u v v w A A A 1 w w w w v S . . . ",
". . . 1 1 t  .G q s s q s v u u v w w A A 1 w w w w v . . . . . ",
". . . . . 1 1 t q q s s s v v v v w 1 1 w w w w w v . . . . . . ",
". . . . . . . 1 1 q s s t v v v 1 1 w w w w w v S . . . . . . . ",
". . . . . . . . . 1 1 t t w 1 1 w w w w w w v . . . . . . . . . ",
". . . . . . . . . . . 1 1 w w w w w w w v S . . . . . . . . . . ",
". . . . . . . . . . . . . . . . . . . . . . . . . . . . . . . . ",
". . . . . . . . . . . . . . . . . . . . . . . . . . . . . . . . "};
