/* XPM */
static char * rotY_xpm[] = {
"22 22 214 2",
"  	c None",
". 	c #000000",
"+ 	c #FFFFFF",
"@ 	c #FFF2F2",
"# 	c #FF8181",
"$ 	c #FF7A7A",
"% 	c #FF8D8D",
"& 	c #FFE7E7",
"* 	c #FF6161",
"= 	c #FF0101",
"- 	c #FF0202",
"; 	c #FF2626",
"> 	c #FFC3C3",
", 	c #FFF0F0",
"' 	c #FF6D6D",
") 	c #FF2A2A",
"! 	c #FF0404",
"~ 	c #FF1C1C",
"{ 	c #FFD6D6",
"] 	c #FFFDFD",
"^ 	c #FFE0E0",
"/ 	c #FF6A6A",
"( 	c #FF0707",
"_ 	c #FF0303",
": 	c #FF8484",
"< 	c #FDFDFD",
"[ 	c #FBFBFB",
"} 	c #FAFAFA",
"| 	c #F9F9F9",
"1 	c #F8F8F8",
"2 	c #FFF6F6",
"3 	c #FF4141",
"4 	c #FF0000",
"5 	c #FF3D3D",
"6 	c #FFE9E9",
"7 	c #E7E7E7",
"8 	c #DADADA",
"9 	c #D5D5D5",
"0 	c #D0D0D0",
"a 	c #CFCFCF",
"b 	c #D3CACA",
"c 	c #D3C0C0",
"d 	c #D7D7D7",
"e 	c #FE7B7B",
"f 	c #FE0000",
"g 	c #FE2020",
"h 	c #FFD4D4",
"i 	c #FFDDDD",
"j 	c #FFB6B6",
"k 	c #F7F7F7",
"l 	c #E9E9E9",
"m 	c #CECECE",
"n 	c #9E9E9E",
"o 	c #696969",
"p 	c #5D5D5D",
"q 	c #6D6D6D",
"r 	c #7C7373",
"s 	c #A65454",
"t 	c #DC2222",
"u 	c #B25151",
"v 	c #BB4B4B",
"w 	c #FE0101",
"x 	c #F90606",
"y 	c #D04B4B",
"z 	c #F21B1B",
"A 	c #F91111",
"B 	c #E19898",
"C 	c #757575",
"D 	c #4D4D4D",
"E 	c #424242",
"F 	c #353535",
"G 	c #2F2F2F",
"H 	c #464646",
"I 	c #734D4D",
"J 	c #E40F0F",
"K 	c #FB0202",
"L 	c #E71111",
"M 	c #FD0101",
"N 	c #F70606",
"O 	c #F90404",
"P 	c #B46464",
"Q 	c #FCFCFC",
"R 	c #EBEBEB",
"S 	c #525252",
"T 	c #272727",
"U 	c #222222",
"V 	c #1B1B1B",
"W 	c #202020",
"X 	c #3D3D3D",
"Y 	c #545454",
"Z 	c #884545",
"` 	c #ED0B0B",
" .	c #FD0000",
"..	c #F40707",
"+.	c #A93838",
"@.	c #808080",
"#.	c #FEFEFE",
"$.	c #D9D9D9",
"%.	c #585858",
"&.	c #242424",
"*.	c #181818",
"=.	c #151515",
"-.	c #3A3A3A",
";.	c #505050",
">.	c #5E5E5E",
",.	c #775454",
"'.	c #BE2828",
").	c #F80303",
"!.	c #9D3B3B",
"~.	c #646464",
"{.	c #7C7C7C",
"].	c #F6F6F6",
"^.	c #C1C1C1",
"/.	c #5A5A5A",
"(.	c #161616",
"_.	c #393939",
":.	c #5F5F5F",
"<.	c #636363",
"[.	c #626861",
"}.	c #884342",
"|.	c #D01919",
"1.	c #E70C0C",
"2.	c #923C36",
"3.	c #5C5E5B",
"4.	c #626262",
"5.	c #7D7D7D",
"6.	c #F5F5F5",
"7.	c #BABABA",
"8.	c #171717",
"9.	c #383838",
"0.	c #5A6958",
"a.	c #3A8E2E",
"b.	c #506A4C",
"c.	c #5E5857",
"d.	c #6A5840",
"e.	c #339424",
"f.	c #487741",
"g.	c #60625F",
"h.	c #F1F1F1",
"i.	c #B4B4B4",
"j.	c #232323",
"k.	c #373737",
"l.	c #497C41",
"m.	c #1DC004",
"n.	c #2CA51A",
"o.	c #4C7146",
"p.	c #319921",
"q.	c #1DBF04",
"r.	c #3E8733",
"s.	c #616360",
"t.	c #7E7E7E",
"u.	c #F3F3F3",
"v.	c #DDDDDD",
"w.	c #575757",
"x.	c #141414",
"y.	c #131313",
"z.	c #4F4F4F",
"A.	c #5C5C5C",
"B.	c #585B58",
"C.	c #319E21",
"D.	c #1BC202",
"E.	c #1BC302",
"F.	c #29A616",
"G.	c #51604F",
"H.	c #E3E3E3",
"I.	c #252525",
"J.	c #0F0F0F",
"K.	c #363636",
"L.	c #4E4E4E",
"M.	c #5B5B5B",
"N.	c #595959",
"O.	c #52664F",
"P.	c #2DA31B",
"Q.	c #1BC301",
"R.	c #28A914",
"S.	c #496B44",
"T.	c #565756",
"U.	c #0D0D0D",
"V.	c #343434",
"W.	c #4B4B4B",
"X.	c #555C54",
"Y.	c #339624",
"Z.	c #1CC203",
"`.	c #398C2D",
" +	c #575857",
".+	c #656565",
"++	c #7B7B7B",
"@+	c #555555",
"#+	c #565656",
"$+	c #369428",
"%+	c #369528",
"&+	c #5C5F5C",
"*+	c #686868",
"=+	c #EDEDED",
"-+	c #121212",
";+	c #1D1D1D",
">+	c #3E3E3E",
",+	c #515151",
"'+	c #44853A",
")+	c #29AD15",
"!+	c #438439",
"~+	c #5E615E",
"{+	c #6C6C6C",
"]+	c #858585",
"^+	c #D4D4D4",
"/+	c #878787",
"(+	c #2E2E2E",
"_+	c #535353",
":+	c #676767",
"<+	c #686E67",
"[+	c #62765E",
"}+	c #686D68",
"|+	c #727272",
"1+	c #9F9F9F",
". . . . . . . . . . . . . . . . . . . . . . ",
". + + + + + + + + @ # $ % & + + + + + + + . ",
". + + + + + + + @ * = = - ; > + + + + + + . ",
". + + + + + + + + , ' ) ! = ~ { + + + + + . ",
". + + + + + + + + + ] ^ / ( _ : + + + + + . ",
". + + + + + < [ } | | 1 2 3 4 5 6 + + + + . ",
". + + + 1 7 8 9 0 a b c d e f g h i j + + . ",
". + k l m n o p q r s t u v w x y z A B < . ",
". + 1 C D E F G H I J 4 K L M N N 4 O P Q . ",
". Q R S T U V W X Y Z `  .4 f f 4 ..+.@.#.. ",
". } $.%.&.*.=.V -.;.>.,.'.).4 4 ).!.~.{.#.. ",
". ].^./.&.(.=.*._.%.:.<.[.}.|.1.2.3.4.5.#.. ",
". 6.7./.&.(.=.8.9.%.4.0.a.b.c.d.e.f.g.5.#.. ",
". h.i.%.j.=.=.(.k.;.p l.m.n.o.p.q.r.s.t.#.. ",
". u.v.w.j.x.y.=.k.z.A.B.C.m.D.E.F.G.~.t.#.. ",
". k H.w.I.y.J.x.K.L.M.N.O.P.Q.R.S.T.4.5.#.. ",
". | H.w.I.x.U.x.V.W.w.N.X.Y.Z.`. +p .++++ . ",
". k 7 @+I.8.J.(.F W.#+N.B.$+E.%+&+:.*+{.+ . ",
". 6.=+N.G W -+;+>+,+M.M.&+'+)+!+~+4.{+]++ . ",
". Q k ^+/+%.(+k._+p ~.:+o <+[+}+{+|+@.1++ . ",
". + + + + + + + + + #.} | | 1 | 1 | #.+ + . ",
". . . . . . . . . . . . . . . . . . . . . . "};
