/* XPM */
static char * rotZ4_xpm[] = {
"32 32 130 2",
"  	c None",
". 	c #FFFFFF",
"+ 	c #040404",
"@ 	c #D9DCD8",
"# 	c #D2E9CD",
"$ 	c #EEEEEE",
"% 	c #DDDDDD",
"& 	c #33CE14",
"* 	c #52D438",
"= 	c #A4E198",
"- 	c #B7EEAD",
"; 	c #43CF27",
"> 	c #50D036",
", 	c #90D682",
"' 	c #BBBBBB",
") 	c #50D037",
"! 	c #3DC921",
"~ 	c #47C72E",
"{ 	c #72B764",
"] 	c #AAAAAA",
"^ 	c #000000",
"/ 	c #63D14D",
"( 	c #2CCD0C",
"_ 	c #46D42A",
": 	c #4AD52F",
"< 	c #47D22B",
"[ 	c #44CF28",
"} 	c #32CA13",
"| 	c #27CA07",
"1 	c #28CA08",
"2 	c #888888",
"3 	c #85D575",
"4 	c #36CF18",
"5 	c #38D11A",
"6 	c #46D22A",
"7 	c #8CDD7C",
"8 	c #8EDE7E",
"9 	c #8DD57F",
"0 	c #555555",
"a 	c #EAEDE9",
"b 	c #88E376",
"c 	c #49D52E",
"d 	c #4AD22E",
"e 	c #6ED859",
"f 	c #444444",
"g 	c #222222",
"h 	c #FAFEFA",
"i 	c #76DF62",
"j 	c #31CE11",
"k 	c #47CF2C",
"l 	c #BFDABA",
"m 	c #52D039",
"n 	c #111111",
"o 	c #E44747",
"p 	c #E83F3F",
"q 	c #D45656",
"r 	c #D15A5A",
"s 	c #9C7171",
"t 	c #777777",
"u 	c #D23333",
"v 	c #FD0404",
"w 	c #F01D1D",
"x 	c #F22222",
"y 	c #F22121",
"z 	c #EF1F1F",
"A 	c #EA1818",
"B 	c #9B7272",
"C 	c #E10F0F",
"D 	c #DC0C0C",
"E 	c #DE0C0C",
"F 	c #D80606",
"G 	c #E20202",
"H 	c #FA0000",
"I 	c #CA0808",
"J 	c #2A2020",
"K 	c #E41E1E",
"L 	c #F20D0D",
"M 	c #F70E0E",
"N 	c #CD8989",
"O 	c #633838",
"P 	c #9A2424",
"Q 	c #441C1C",
"R 	c #631818",
"S 	c #D10303",
"T 	c #E00000",
"U 	c #D70606",
"V 	c #D20606",
"W 	c #A00101",
"X 	c #A26A6A",
"Y 	c #F61111",
"Z 	c #F31616",
"` 	c #F12626",
" .	c #D66E6E",
"..	c #474242",
"+.	c #931010",
"@.	c #D50606",
"#.	c #CE0303",
"$.	c #080303",
"%.	c #521A1A",
"&.	c #CD0707",
"*.	c #FFFAFA",
"=.	c #E40000",
"-.	c #E61B1B",
";.	c #CE6262",
">.	c #EF2929",
",.	c #F32121",
"'.	c #EE2020",
").	c #E92A2A",
"!.	c #E22020",
"~.	c #EC3131",
"{.	c #AA1E1E",
"].	c #CE1111",
"^.	c #D11010",
"/.	c #D51414",
"(.	c #D50F0F",
"_.	c #D60606",
":.	c #B90404",
"<.	c #280F0F",
"[.	c #691717",
"}.	c #B30B0B",
"|.	c #FFDCDC",
"1.	c #E30000",
"2.	c #C93C3C",
"3.	c #C59D9D",
"4.	c #E73F3F",
"5.	c #EA2828",
"6.	c #EF2A2A",
"7.	c #D70E0E",
"8.	c #8D1111",
"9.	c #262121",
". . . . . . . . . . . . . . . . . . . . . . . . . . . . . . . . ",
". . . . . . . . . . . . . . . . . . . . . . . . . . . . . . . . ",
". . . . . . . . . . . . . . . . . . . . . . . . . . . . . . . . ",
". . . . . . . . . . . . . . . . . . . . . . . . . . . . . . . . ",
". . . . . . . . . . . + + + . . . . . . . . . . . . . . . . . . ",
". . . . . . . . . + + @ # $ + + . . . . . . . . . . . . . . . . ",
". . . . . . . + + % % # & * = % + + . . . . . . . . . . . . . . ",
". . . . . + + % % $ . . - * ; > , ' + + . . . . . . . . . . . . ",
". . . + + % % % $ . . $ $ $ , ) ! ~ { ] + + . . . . . . . . . . ",
". . ^ % % % / ( _ : < < < [ ; ! } | 1 ' % 2 + . . . . . . . . . ",
". . + . . % 3 4 5 6 7 8 3 9 @ ' ' ] % % 0 + + . . . . . . . . . ",
". . + ' ' . . a b c d e % % % ' % % 0 f g f + . . . . . . . . . ",
". . + ' ' ' ] . . h i j k @ % % 0 + f f f f + . . . . . . . . . ",
". . + ' ' ' ' ] ] . . l m # 0 + n f f 0 f g + . . . . . . . . . ",
". . + ' ' ' ] ] 2 2 2 . . 0 n n g f 0 0 f g + . . . . . . . . . ",
". . + ] ' ' ] ] 2 2 2 2 . n n n f f 0 f g g + . . . . . . . . . ",
". . + ] ' ' ] ] 2 2 2 2 % n n g f 0 0 f g g + . . . . . . . . . ",
". . + ] ] ' ' ] 2 2 2 2 % n n g f 0 f f g g + . . . . . . . . . ",
". . + ] ] o p q r s 2 2 ] g g f f 0 f f g n + f t . . . . . . . ",
". . + u v w x y z A B 2 ] g f f 0 C D E F G H I J f t . . . . . ",
". . + K L M N ' ] ] 2 2 ] f f f 0 O P Q R S T U V g g g f t . . ",
". . W A X Y Z `  .] 2 2 ] f f f 0 f ..+.@.#.$.%.U &.g g g g f . ",
". *.=.-.2 2 ;.>.,.'.).!.~.{.].^./.(._.U :.<.+ g [.}.g g g g f . ",
". |.1.2.2 2 ] ] 3.4.).5.6.D 7.^./.^.8.9.n n + g g g g g g f . . ",
". . + 2 2 2 2 ] ' ' ' ] ' f f 0 f f g n n n + g g g g f t . . . ",
". . . + + 2 2 2 ] ' ' ] ' f 0 0 f g g n n + g g g g f . . . . . ",
". . . . . + + 2 ] ] ' ' ' f f f f g + + g g g g g f . . . . . . ",
". . . . . . . + + ] ' ' 2 f f f + + g g g g g f t . . . . . . . ",
". . . . . . . . . + + 2 2 g + + g g g g g g f . . . . . . . . . ",
". . . . . . . . . . . + + g g g g g g g f t . . . . . . . . . . ",
". . . . . . . . . . . . . . . . . . . . . . . . . . . . . . . . ",
". . . . . . . . . . . . . . . . . . . . . . . . . . . . . . . . "};
