/* XPM */
static const char * saveall_xpm[] = {
"16 16 171 2",
"  	c None",
". 	c #C0BDEC",
"+ 	c #AEA9EB",
"@ 	c #ACA9E0",
"# 	c #B1B4D5",
"$ 	c #A39DE5",
"% 	c #A49BEC",
"& 	c #9C8EE3",
"* 	c #9F92E1",
"= 	c #9E93D7",
"- 	c #8F89D1",
"; 	c #8B86E2",
"> 	c #6763D1",
", 	c #7370BD",
"' 	c #7E7EB0",
") 	c #BAB5F8",
"! 	c #BDB6FF",
"~ 	c #ADAAF7",
"{ 	c #EBEDFF",
"] 	c #FFFFFF",
"^ 	c #FCFDF5",
"/ 	c #FBFFFF",
"( 	c #E4EEFF",
"_ 	c #6A75AD",
": 	c #5652C1",
"< 	c #6866AF",
"[ 	c #AFA9EF",
"} 	c #BFBAFF",
"| 	c #ABAAE6",
"1 	c #C3C0FF",
"2 	c #9D98EA",
"3 	c #CDCDFF",
"4 	c #9090D6",
"5 	c #F7FDFF",
"6 	c #DEECFF",
"7 	c #374584",
"8 	c #3634A1",
"9 	c #454686",
"0 	c #B6B5F9",
"a 	c #787BAE",
"b 	c #F5FFFF",
"c 	c #FFFBFF",
"d 	c #F1F1F3",
"e 	c #E9EFFD",
"f 	c #E1EAFF",
"g 	c #404AAC",
"h 	c #7376D3",
"i 	c #5D6490",
"j 	c #9F9AEE",
"k 	c #BBB9FF",
"l 	c #6B6BB1",
"m 	c #F1F8FF",
"n 	c #E0E7F1",
"o 	c #D9E8EF",
"p 	c #C7D4FF",
"q 	c #2A3D82",
"r 	c #6F6DD2",
"s 	c #50528D",
"t 	c #8D87DD",
"u 	c #C9C6FF",
"v 	c #6B6BB5",
"w 	c #EFF4ED",
"x 	c #D9DFFF",
"y 	c #AEC4F5",
"z 	c #394AB6",
"A 	c #6B69CE",
"B 	c #4E508B",
"C 	c #7872CC",
"D 	c #BBB7FF",
"E 	c #7775C8",
"F 	c #D6DBFF",
"G 	c #E6F1F3",
"H 	c #C5D2F2",
"I 	c #A6C2E9",
"J 	c #1E3787",
"K 	c #6462C7",
"L 	c #4B4D88",
"M 	c #867FDC",
"N 	c #A7A2FE",
"O 	c #A19EF9",
"P 	c #7F82B9",
"Q 	c #5356B5",
"R 	c #5454C2",
"S 	c #494AB4",
"T 	c #3A3D9E",
"U 	c #353E99",
"V 	c #293A8C",
"W 	c #2A4093",
"X 	c #4C64C6",
"Y 	c #5A58BD",
"Z 	c #474984",
"` 	c #8B84E3",
" .	c #A09AFA",
"..	c #BEB9FF",
"+.	c #8E8FD2",
"@.	c #9AA1FF",
"#.	c #787DE3",
"$.	c #8486F5",
"%.	c #797EE6",
"&.	c #5F69BE",
"*.	c #6D7CCF",
"=.	c #5F71D3",
"-.	c #344AAF",
";.	c #504EB3",
">.	c #42447F",
",.	c #6C65C4",
"'.	c #9993F5",
").	c #A49DFF",
"!.	c #A2A1F1",
"~.	c #3C535B",
"{.	c #49605A",
"].	c #4F6070",
"^.	c #4D5B78",
"/.	c #5A6C76",
"(.	c #55678D",
"_.	c #4150A3",
":.	c #4C5CB1",
"<.	c #4745AA",
"[.	c #3E407B",
"}.	c #7070B8",
"|.	c #9294F9",
"1.	c #8E86FF",
"2.	c #8784DD",
"3.	c #4B5B75",
"4.	c #000903",
"5.	c #2C394C",
"6.	c #C0C9EA",
"7.	c #CAD7DD",
"8.	c #6C74A5",
"9.	c #4344BA",
"0.	c #494CBF",
"a.	c #403EA3",
"b.	c #3B3D78",
"c.	c #8485B3",
"d.	c #7071B1",
"e.	c #A198FF",
"f.	c #7A76D5",
"g.	c #4B5588",
"h.	c #314043",
"i.	c #6D7588",
"j.	c #E5ECFE",
"k.	c #DEECD2",
"l.	c #757E8D",
"m.	c #45459B",
"n.	c #3D408F",
"o.	c #3C3A9F",
"p.	c #3A3C77",
"q.	c #7F82F5",
"r.	c #363BB0",
"s.	c #2E3458",
"t.	c #A5ACC6",
"u.	c #B0BAC4",
"v.	c #C7D2D4",
"w.	c #B0BAC3",
"x.	c #4E5571",
"y.	c #414477",
"z.	c #3F4081",
"A.	c #393280",
"B.	c #3D3870",
"C.	c #555A9E",
"D.	c #4C5193",
"E.	c #44428D",
"F.	c #6867AB",
"G.	c #3D3D79",
"H.	c #44457B",
"I.	c #53548D",
"J.	c #333278",
"K.	c #39358A",
"L.	c #363090",
"M.	c #443F77",
"N.	c #4E4C74",
". + @ # $ % & * = - ; > , '     ",
") ! ~ { ] ] ] ] ^ / ( _ : <     ",
"[ } . + @ # $ % & * = - ; > , ' ",
"| 1 ) ! ~ { ] ] ] ] ^ / ( _ : < ",
"2 3 [ } 4 5 ] ] ] ] ] ] 6 7 8 9 ",
"2 0 | 1 a b ] ] ] c d e f g h i ",
"j k 2 3 l m ] ] ] ] n o p q r s ",
"t u 2 0 v 5 ] ] ] w x p y z A B ",
"C D j k E F ] ] ] G H p I J K L ",
"M N t u O P Q R S T U V W X Y Z ",
"`  .C D ..+.@.#.$.%.&.*.=.-.;.>.",
",.'.M N ).!.~.{.].^./.(._.:.<.[.",
"}.|.`  .1.2.3.4.5.6.7.8.9.0.a.b.",
"c.d.,.'.e.f.g.h.i.j.k.l.m.n.o.p.",
"    }.|.q.r.s.t.u.v.w.x.y.z.A.B.",
"    c.d.C.D.E.F.G.H.I.J.K.L.M.N."};
