/* XPM */
static const char * save_xpm[] = {
"16 16 171 2",
"  	c None",
". 	c #C0BDEC",
"+ 	c #AEA9EB",
"@ 	c #ACA9E0",
"# 	c #B1B4D5",
"$ 	c #A39DE5",
"% 	c #A49BEC",
"& 	c #9C8EE3",
"* 	c #9F92E1",
"= 	c #9E93D7",
"- 	c #8F89D1",
"; 	c #8B86E2",
"> 	c #6763D1",
", 	c #7370BD",
"' 	c #7E7EB0",
") 	c #BAB5F8",
"! 	c #BDB6FF",
"~ 	c #ADAAF7",
"{ 	c #EBEDFF",
"] 	c #FFFFFF",
"^ 	c #FCFDF5",
"/ 	c #FBFFFF",
"( 	c #E4EEFF",
"_ 	c #6A75AD",
": 	c #5652C1",
"< 	c #6866AF",
"[ 	c #AFA9EF",
"} 	c #BFBAFF",
"| 	c #9090D6",
"1 	c #F7FDFF",
"2 	c #DEECFF",
"3 	c #374584",
"4 	c #3634A1",
"5 	c #454686",
"6 	c #ABAAE6",
"7 	c #C3C0FF",
"8 	c #787BAE",
"9 	c #F5FFFF",
"0 	c #FFFBFF",
"a 	c #F1F1F3",
"b 	c #E9EFFD",
"c 	c #E1EAFF",
"d 	c #404AAC",
"e 	c #7376D3",
"f 	c #5D6490",
"g 	c #9D98EA",
"h 	c #CDCDFF",
"i 	c #6B6BB1",
"j 	c #F1F8FF",
"k 	c #E0E7F1",
"l 	c #D9E8EF",
"m 	c #C7D4FF",
"n 	c #2A3D82",
"o 	c #6F6DD2",
"p 	c #50528D",
"q 	c #B6B5F9",
"r 	c #6B6BB5",
"s 	c #EFF4ED",
"t 	c #D9DFFF",
"u 	c #AEC4F5",
"v 	c #394AB6",
"w 	c #6B69CE",
"x 	c #4E508B",
"y 	c #9F9AEE",
"z 	c #BBB9FF",
"A 	c #7775C8",
"B 	c #D6DBFF",
"C 	c #E6F1F3",
"D 	c #C5D2F2",
"E 	c #A6C2E9",
"F 	c #1E3787",
"G 	c #6462C7",
"H 	c #4B4D88",
"I 	c #8D87DD",
"J 	c #C9C6FF",
"K 	c #A19EF9",
"L 	c #7F82B9",
"M 	c #5356B5",
"N 	c #5454C2",
"O 	c #494AB4",
"P 	c #3A3D9E",
"Q 	c #353E99",
"R 	c #293A8C",
"S 	c #2A4093",
"T 	c #4C64C6",
"U 	c #5A58BD",
"V 	c #474984",
"W 	c #7872CC",
"X 	c #BBB7FF",
"Y 	c #BEB9FF",
"Z 	c #8E8FD2",
"` 	c #9AA1FF",
" .	c #787DE3",
"..	c #8486F5",
"+.	c #797EE6",
"@.	c #5F69BE",
"#.	c #6D7CCF",
"$.	c #5F71D3",
"%.	c #344AAF",
"&.	c #504EB3",
"*.	c #42447F",
"=.	c #867FDC",
"-.	c #A7A2FE",
";.	c #A49DFF",
">.	c #A2A1F1",
",.	c #3C535B",
"'.	c #49605A",
").	c #4F6070",
"!.	c #4D5B78",
"~.	c #5A6C76",
"{.	c #55678D",
"].	c #4150A3",
"^.	c #4C5CB1",
"/.	c #4745AA",
"(.	c #3E407B",
"_.	c #8B84E3",
":.	c #A09AFA",
"<.	c #8E86FF",
"[.	c #8784DD",
"}.	c #4B5B75",
"|.	c #000903",
"1.	c #2C394C",
"2.	c #C0C9EA",
"3.	c #CAD7DD",
"4.	c #6C74A5",
"5.	c #4344BA",
"6.	c #494CBF",
"7.	c #403EA3",
"8.	c #3B3D78",
"9.	c #6C65C4",
"0.	c #9993F5",
"a.	c #A198FF",
"b.	c #7A76D5",
"c.	c #4B5588",
"d.	c #314043",
"e.	c #6D7588",
"f.	c #E5ECFE",
"g.	c #DEECD2",
"h.	c #757E8D",
"i.	c #45459B",
"j.	c #3D408F",
"k.	c #3C3A9F",
"l.	c #3A3C77",
"m.	c #7070B8",
"n.	c #9294F9",
"o.	c #7F82F5",
"p.	c #363BB0",
"q.	c #2E3458",
"r.	c #A5ACC6",
"s.	c #B0BAC4",
"t.	c #C7D2D4",
"u.	c #B0BAC3",
"v.	c #4E5571",
"w.	c #414477",
"x.	c #3F4081",
"y.	c #393280",
"z.	c #3D3870",
"A.	c #8485B3",
"B.	c #7071B1",
"C.	c #555A9E",
"D.	c #4C5193",
"E.	c #44428D",
"F.	c #6867AB",
"G.	c #3D3D79",
"H.	c #44457B",
"I.	c #53548D",
"J.	c #333278",
"K.	c #39358A",
"L.	c #363090",
"M.	c #443F77",
"N.	c #4E4C74",
"                                ",
"  . + @ # $ % & * = - ; > , '   ",
"  ) ! ~ { ] ] ] ] ^ / ( _ : <   ",
"  [ } | 1 ] ] ] ] ] ] 2 3 4 5   ",
"  6 7 8 9 ] ] ] 0 a b c d e f   ",
"  g h i j ] ] ] ] k l m n o p   ",
"  g q r 1 ] ] ] s t m u v w x   ",
"  y z A B ] ] ] C D m E F G H   ",
"  I J K L M N O P Q R S T U V   ",
"  W X Y Z `  ...+.@.#.$.%.&.*.  ",
"  =.-.;.>.,.'.).!.~.{.].^./.(.  ",
"  _.:.<.[.}.|.1.2.3.4.5.6.7.8.  ",
"  9.0.a.b.c.d.e.f.g.h.i.j.k.l.  ",
"  m.n.o.p.q.r.s.t.u.v.w.x.y.z.  ",
"  A.B.C.D.E.F.G.H.I.J.K.L.M.N.  ",
"                                "};
