/* XPM */
static char * scalZ_xpm[] = {
"32 32 100 2",
"  	c None",
". 	c #FFFFFF",
"+ 	c #040404",
"@ 	c #DDDDDD",
"# 	c #EEEEEE",
"$ 	c #BBBBBB",
"% 	c #AAAAAA",
"& 	c #000000",
"* 	c #888888",
"= 	c #555555",
"- 	c #444444",
"; 	c #222222",
"> 	c #111111",
", 	c #FF8F8F",
"' 	c #FF7D7D",
") 	c #FF9E9E",
"! 	c #FF6F6F",
"~ 	c #FF9595",
"{ 	c #810101",
"] 	c #D57171",
"^ 	c #D07D7D",
"/ 	c #FF4747",
"( 	c #FF0505",
"_ 	c #FF0404",
": 	c #FF0A0A",
"< 	c #FB0000",
"[ 	c #FE0000",
"} 	c #FF0000",
"| 	c #FF5454",
"1 	c #FF1515",
"2 	c #C3A5A5",
"3 	c #FF2828",
"4 	c #FF0F0F",
"5 	c #FF1717",
"6 	c #460202",
"7 	c #FF0303",
"8 	c #FF0E0E",
"9 	c #EC2626",
"0 	c #777777",
"a 	c #FF0101",
"b 	c #AA0101",
"c 	c #FA0909",
"d 	c #D45656",
"e 	c #FF4C4C",
"f 	c #FF0909",
"g 	c #9E6E6E",
"h 	c #F01010",
"i 	c #F81010",
"j 	c #BCB6B6",
"k 	c #FE0202",
"l 	c #E83C3C",
"m 	c #C21616",
"n 	c #EF0505",
"o 	c #ACA6A6",
"p 	c #EC3232",
"q 	c #FC0606",
"r 	c #C07C7C",
"s 	c #1A8809",
"t 	c #157F05",
"u 	c #146B07",
"v 	c #0E6501",
"w 	c #1B720E",
"x 	c #1E4F16",
"y 	c #C79797",
"z 	c #FB0808",
"A 	c #F21A1A",
"B 	c #F40404",
"C 	c #EB0707",
"D 	c #198E07",
"E 	c #16AD00",
"F 	c #17AD00",
"G 	c #17AF00",
"H 	c #17AE00",
"I 	c #E05454",
"J 	c #FD0202",
"K 	c #B21B1B",
"L 	c #17A202",
"M 	c #1D5914",
"N 	c #937A7A",
"O 	c #F50B0B",
"P 	c #F80E0E",
"Q 	c #F90F0F",
"R 	c #F80C0C",
"S 	c #813D3D",
"T 	c #189605",
"U 	c #1C0303",
"V 	c #E00000",
"W 	c #E83E3E",
"X 	c #A32020",
"Y 	c #484242",
"Z 	c #17A203",
"` 	c #326D29",
" .	c #18A003",
"..	c #30A01F",
"+.	c #7BD16E",
"@.	c #71CE63",
"#.	c #B0E4A9",
"$.	c #18AF02",
"%.	c #17AF01",
"&.	c #30B71C",
". . . . . . . . . . . . . . . . . . . . . . . . . . . . . . . . ",
". . . . . . . . . . . . . . . . . . . . . . . . . . . . . . . . ",
". . . . . . . . . . . . . . . . . . . . . . . . . . . . . . . . ",
". . . . . . . . . . . . . . . . . . . . . . . . . . . . . . . . ",
". . . . . . . . . . . . . . . + + + . . . . . . . . . . . . . . ",
". . . . . . . . . . . . . + + @ # # + + . . . . . . . . . . . . ",
". . . . . . . . . . . + + @ @ # # # # @ + + . . . . . . . . . . ",
". . . . . . . . . + + @ @ # . . . # @ @ @ $ + + . . . . . . . . ",
". . . . . . . + + @ @ @ # . . # # # @ @ $ $ % % + + . . . . . . ",
". . . . . . & @ @ @ @ # . . # # # @ @ $ $ % % $ @ * + . . . . . ",
". . . . . . + . . @ @ # . # # # @ @ @ $ $ % @ @ = + + . . . . . ",
". . . . . . + $ $ . . # . . # # @ @ @ $ @ @ = - ; - + . . . . . ",
". . . . . . + $ $ $ % . . . . # @ @ @ @ = + - - - - + . . . . . ",
". . . . . . + $ $ $ $ % % . . @ @ # = + > - - = - ; + . . . . . ",
". , ' ) ! ~ { ] ^ $ % % * * * . . = > > ; - = = - ; + . . . . . ",
". / ( _ _ : < [ } $ % % * * * * . > > > - - = - ; ; + . . . . . ",
". | } } _ 1     2 $ % % * * * * @ > > ; - = = - ; ; + . . . . . ",
". 3 } 4 } 5 6 % % $ $ % * * * * @ > > ; - = - - ; ; + . . . . . ",
". 7 } . , 8 [ 9 % $ $ % % * * * % ; ; - - = - - ; > + - 0 . . . ",
". a } . . . b [ c d $ $ % * * * % ; - - = = - - ; > + ; ; - 0 . ",
". e f . . . + g h } i j % % * * % - - - = - - ; ; > + ; ; ; ; ; ",
". . . . . . + * * d k [ l % * * % m n - = - - ; ; > + ; ; ; ; ; ",
". . . . . . + * * * o p [ q r * $ n n - = - ; s t u v w w w x ; ",
". . . . . . + * * * % % y z [ A j B C - = - ; D E E E F F G H ; ",
". . . . . . + * * * * % $ $ I J J [ K = - - ; > > > + ; L H M - ",
". . . . . . . + + N h O P Q Q R [ } S = - ; ; > > + ; T H M - . ",
". . . . . . . . . U V O P P Q i W X Y - - ; + + ; ; Z H M - . . ",
". . . . . . . . . . . + + % $ $ * - - - + + ; ; ; L H ` 0 . . . ",
". . . . . . . . . . . . . + + * * ; + + ; ; ; ; T H ` . . . . . ",
". . . . . . . . . . . . . . . + + ; ; ; ; ; ;  .H ..+.+.+.@.#.. ",
". . . . . . . . . . . . . . . . . . . . . . . G G $.$.$.$.%.&.. ",
". . . . . . . . . . . . . . . . . . . . . . . . . . . . . . . . "};
