/* XPM */
static char * scalY_xpm[] = {
"32 32 95 2",
"  	c None",
". 	c #FFFFFF",
"+ 	c #040404",
"@ 	c #DDDDDD",
"# 	c #EEEEEE",
"$ 	c #FFF9F9",
"% 	c #FF0F0F",
"& 	c #FF0000",
"* 	c #FE0C0C",
"= 	c #DDD7D7",
"- 	c #BBBBBB",
"; 	c #FFCFCF",
"> 	c #FF0A0A",
", 	c #FE0101",
"' 	c #FE0404",
") 	c #E6A2A2",
"! 	c #AAAAAA",
"~ 	c #000000",
"{ 	c #FF6B6B",
"] 	c #FF0101",
"^ 	c #FE0909",
"/ 	c #F95454",
"( 	c #F25454",
"_ 	c #FC0D0D",
": 	c #FE0000",
"< 	c #E24E4E",
"[ 	c #888888",
"} 	c #F0C5C5",
"| 	c #FB3535",
"1 	c #F76767",
"2 	c #F05F5F",
"3 	c #EF2929",
"4 	c #555555",
"5 	c #EEE8E8",
"6 	c #FFD4D4",
"7 	c #444444",
"8 	c #222222",
"9 	c #F06060",
"0 	c #D34343",
"a 	c #6C4F4F",
"b 	c #111111",
"c 	c #D44444",
"d 	c #F40B0B",
"e 	c #B52424",
"f 	c #CB3B3B",
"g 	c #980707",
"h 	c #9F0E0E",
"i 	c #777777",
"j 	c #AE1D1D",
"k 	c #1F4519",
"l 	c #1D5914",
"m 	c #C3A5A5",
"n 	c #DD5D5D",
"o 	c #484242",
"p 	c #7F3F3F",
"q 	c #563D3D",
"r 	c #17A402",
"s 	c #17AF00",
"t 	c #1E5316",
"u 	c #1F3C1B",
"v 	c #17AD00",
"w 	c #219410",
"x 	c #BF7F7F",
"y 	c #F32020",
"z 	c #DA4A4A",
"A 	c #8D2929",
"B 	c #A42020",
"C 	c #198B08",
"D 	c #199007",
"E 	c #202F1E",
"F 	c #17AA01",
"G 	c #17AE00",
"H 	c #D57171",
"I 	c #FA0D0D",
"J 	c #E60808",
"K 	c #C61414",
"L 	c #17A302",
"M 	c #17A602",
"N 	c #18AA02",
"O 	c #C1E9BB",
"P 	c #CD8989",
"Q 	c #FC0505",
"R 	c #973333",
"S 	c #17A701",
"T 	c #17AD01",
"U 	c #17AF01",
"V 	c #1FB109",
"W 	c #F70202",
"X 	c #3E503C",
"Y 	c #E8F7E6",
"Z 	c #C79797",
"` 	c #BE4949",
" .	c #29B514",
"..	c #2BB516",
"+.	c #3EBC2B",
". . . . . . . . . . . . . . . . . . . . . . . . . . . . . . . . ",
". . . . . . . . . . . . . . . . . . . . . . . . . . . . . . . . ",
". . . . . . . . . . . . . . . . . . . . . . . . . . . . . . . . ",
". . . . . . . . . . . . . . . . . . . . . . . . . . . . . . . . ",
". . . . . . . . . . . + + + . . . . . . . . . . . . . . . . . . ",
". . . . . . . . . + + @ # # + + . . . . . . . . . . . . . . . . ",
". . . . . . . + + @ @ # # # # @ + + . . . . . . . . . . . . . . ",
". . . . . + + @ @ # $ % & * = @ @ - + + . . . . . . . . . . . . ",
". . . + + @ @ @ # ; > , & , ' ) - - ! ! + + . . . . . . . . . . ",
". . ~ @ @ @ @ # { ] ^ / & ( _ : < ! ! - @ [ + . . . . . . . . . ",
". . + . . @ @ } & | # 1 & 2 @ 3 & ! @ @ 4 + + . . . . . . . . . ",
". . + - - . . 5 6 . # 1 & 2 @ - @ @ 4 7 8 7 + . . . . . . . . . ",
". . + - - - ! . . . . 1 & 2 @ @ 4 + 7 7 7 7 + . . . . . . . . . ",
". . + - - - - ! ! . . 9 & 0 a + b 7 7 4 7 8 + . . . . . . . . . ",
". . + - - - ! ! [ [ [ c d e b b 8 7 4 4 7 8 + . . . . . . . . . ",
". . + ! - - ! ! [ [ [ f & g b b 7 7 4 7 8 8 + . . . . . . . . . ",
". . + ! - - ! ! [ [ [ f & g b 8 7 4 4 7 8 8 + . . . . . . . . . ",
". . + ! ! - - ! [ [ [ f & g b 8 7 4 7 7 8 8 + . . . . . . . . . ",
". . + ! ! - - ! ! [ [ f & h 8 7 7 4 7 7 8 b + 7 i . . . . . . . ",
". . + [ ! ! - - ! [ [ f & h 7 7 4 4 7 7 8 b + 8 8 7 i . . . . . ",
". . + [ [ ! - - ! ! [ f & j 7 7 4 7 7 8 8 b + 8 8 8 8 8 7 i . . ",
". . + [ [ ! ! - - ! [ f & j 7 7 4 7 7 8 8 b + k l 8 8 8 8 8 7 . ",
". . + [ [ [ ! m n ! ! f & j 7 o p q 8 8 b b + r s t 8 8 u v w . ",
". . + [ [ [ ! x & y ! z & j A : & B 8 8 b b + C s D E 8 F G s . ",
". . + [ [ [ [ ! H : I z & J & & K 7 8 b b b + 8 L G M N s s O . ",
". . . + + [ [ [ ! P : Q & & : R 7 8 8 b b + 8 8 8 S T U V O . . ",
". . . . . + + [ ! ! P , & W o 7 7 8 + + 8 8 8 8 8 X U s Y . . . ",
". . . . . . . + + ! - Z ` 7 7 7 + + 8 8 8 8 8 7 i .  . .. . . . ",
". . . . . . . . . + + [ [ 8 + + 8 8 8 8 8 8 7 . . . ..... . . . ",
". . . . . . . . . . . + + 8 8 8 8 8 8 8 7 i . . . . ..... . . . ",
". . . . . . . . . . . . . . . . . . . . . . . . . . +.+.. . . . ",
". . . . . . . . . . . . . . . . . . . . . . . . . . . . . . . . "};
