/* XPM */
static char * scalX_xpm[] = {
"32 32 135 2",
"  	c None",
". 	c #FFFFFF",
"+ 	c #040404",
"@ 	c #DDDDDD",
"# 	c #EEEEEE",
"$ 	c #BBBBBB",
"% 	c #AAAAAA",
"& 	c #000000",
"* 	c #888888",
"= 	c #555555",
"- 	c #444444",
"; 	c #222222",
"> 	c #FF4C4C",
", 	c #FF0202",
"' 	c #FF0303",
") 	c #FF0A0A",
"! 	c #FF0000",
"~ 	c #FFA8A8",
"{ 	c #111111",
"] 	c #FFCBCB",
"^ 	c #FF6F6F",
"/ 	c #FF6464",
"( 	c #FF0404",
"_ 	c #FF1616",
": 	c #FFBABA",
"< 	c #FF2727",
"[ 	c #FF5656",
"} 	c #FF0101",
"| 	c #FFF9F9",
"1 	c #FF9E9E",
"2 	c #FF2323",
"3 	c #FF5555",
"4 	c #FFE6E6",
"5 	c #FF2F2F",
"6 	c #460202",
"7 	c #FF1010",
"8 	c #FF1111",
"9 	c #FF5959",
"0 	c #FF1212",
"a 	c #EE0202",
"b 	c #FE0000",
"c 	c #FF0B0B",
"d 	c #FF8F8F",
"e 	c #FFD4D4",
"f 	c #CF1111",
"g 	c #EF0000",
"h 	c #484242",
"i 	c #777777",
"j 	c #6C4949",
"k 	c #FD0000",
"l 	c #FB0000",
"m 	c #410C0C",
"n 	c #F70303",
"o 	c #BA0A0A",
"p 	c #578950",
"q 	c #DC4444",
"r 	c #E34B4B",
"s 	c #E40909",
"t 	c #083002",
"u 	c #17A502",
"v 	c #20381C",
"w 	c #1F421A",
"x 	c #17A302",
"y 	c #385E32",
"z 	c #F70F0F",
"A 	c #F90D0D",
"B 	c #D27878",
"C 	c #FC0000",
"D 	c #853C3C",
"E 	c #149600",
"F 	c #17AF00",
"G 	c #17AA01",
"H 	c #212221",
"I 	c #212B1F",
"J 	c #189705",
"K 	c #258D15",
"L 	c #DF4040",
"M 	c #CC8C8C",
"N 	c #D25757",
"O 	c #FC0303",
"P 	c #AB1E1E",
"Q 	c #051403",
"R 	c #189D04",
"S 	c #17AD00",
"T 	c #8A8484",
"U 	c #FB0808",
"V 	c #F71212",
"W 	c #F22222",
"X 	c #1F3F1A",
"Y 	c #17AC00",
"Z 	c #1D5B14",
"` 	c #1AAD04",
" .	c #FA0404",
"..	c #DD4141",
"+.	c #C99494",
"@.	c #B41B1B",
"#.	c #DC1010",
"$.	c #C71B1B",
"%.	c #1B770D",
"&.	c #17AE00",
"*.	c #29B514",
"=.	c #F60606",
"-.	c #FE0101",
";.	c #FE0202",
">.	c #1C6D0F",
",.	c #18AC01",
"'.	c #2BB516",
").	c #1C0303",
"!.	c #B49696",
"~.	c #DD5C5C",
"{.	c #E15252",
"].	c #CA3B3B",
"^.	c #AC1D1D",
"/.	c #832D2D",
"(.	c #3F4E3D",
"_.	c #1EAA09",
":.	c #17AF01",
"<.	c #19AF03",
"[.	c #18AF02",
"}.	c #1DB107",
"|.	c #EAF8E9",
"1.	c #3C5638",
"2.	c #1BB005",
"3.	c #D3EFCF",
"4.	c #25B410",
"5.	c #2DB619",
"6.	c #F3FAF2",
"7.	c #E8F7E6",
"8.	c #23B30E",
"9.	c #4AC039",
"0.	c #6DCC5F",
"a.	c #1CB006",
"b.	c #D1EFCD",
"c.	c #CCEDC7",
"d.	c #B3E4AC",
". . . . . . . . . . . . . . . . . . . . . . . . . . . . . . . . ",
". . . . . . . . . . . . . . . . . . . . . . . . . . . . . . . . ",
". . . . . . . . . . . . . . . . . . . . . . . . . . . . . . . . ",
". . . . . . . . . . . . . . . . . . . . . . . . . . . . . . . . ",
". . . . . . . . . . . + + + . . . . . . . . . . . . . . . . . . ",
". . . . . . . . . + + @ # # + + . . . . . . . . . . . . . . . . ",
". . . . . . . + + @ @ # # # # @ + + . . . . . . . . . . . . . . ",
". . . . . + + @ @ # . . . # @ @ @ $ + + . . . . . . . . . . . . ",
". . . + + @ @ @ # . . # # # @ @ $ $ % % + + . . . . . . . . . . ",
". . & @ @ @ @ # . . # # # @ @ $ $ % % $ @ * + . . . . . . . . . ",
". . + . . @ @ # . # # # @ @ @ $ $ % @ @ = + + . . . . . . . . . ",
". . + $ $ . . # . . # # @ @ @ $ @ @ = - ; - + . . . . . . . . . ",
". . + $ $ $ % . . . . # @ @ @ @ = + - - - - + > , , , ' ) ! ~ . ",
". . + $ $ $ $ % % . . @ @ # = + { - - = - ; + ] ^ ^ / ( ! ! _ . ",
". . + $ $ $ % % * * * . . = { { ; - = = - ; + . . : < ( ! [ } | ",
". . + % $ $ % % * * * * . { { { - - = - ; ; + 1 2 } , 3 4 . ' 5 ",
". . + % $ $ % % * * * * @ { { ; - = = - ; ; 6 7 ! 8 : . . . 9 0 ",
". . + % % $ $ % * * * * @ { { ; - = - - ; a b c d . . . . . | e ",
". . + % % $ $ % % * * * % ; ; - - = - f b b g h i . . . . . . . ",
". . + * % % $ $ % * * * % ; - - = j k ! l m + ; ; - i . . . . . ",
". . + * * % $ $ % % * * % - - h n ! b o ; { + ; ; ; ; ; - p . . ",
". . + * * % q r $ % * * % - f b b s - ; ; { t u v ; ; ; w x y . ",
". . + * * * z A $ % % * B b ! C D - ; ; { { E F G H ; I J F K . ",
". . + * * * L b M $ N O b b P - = - ; ; { { Q F F J ; R F S . . ",
". . + * * * T ! U V b b W - - = - - ; { { { + X F Y Z F ` . . . ",
". . . + + * *  .b ! b ..+.@.#.$.- ; ; { { + ; ; %.&.&.*.. . . . ",
". . . . . + + =.b b -.;.b b b b @.; + + ; ; ; ; >.,.F '.. . . . ",
". . . . . . . ).).!.~.{.].^./.- + + ; ; ; ; ; (._.:.<.[.}.|.. . ",
". . . . . . . . . + + * * ; + + ; ; ; ; ; ; 1.2.:.}.3.:.<.<.. . ",
". . . . . . . . . . . + + ; ; ; ; ; ; ; - i 4.:.5.6.. 7.8.[.9.. ",
". . . . . . . . . . . . . . . . . . . . . . 0.a.b.. . . c.F d.. ",
". . . . . . . . . . . . . . . . . . . . . . . . . . . . . . . . "};
