/* XPM */
static const char * script_xpm[] = {
"16 16 76 1",
" 	c None",
".	c #7B7B7B",
"+	c #8B8B8B",
"@	c #969696",
"#	c #ECECEC",
"$	c #BEBEBE",
"%	c #E4E4E4",
"&	c #CBCBCB",
"*	c #DEDEDE",
"=	c #C3C3C3",
"-	c #E8E8E8",
";	c #D6D6D8",
">	c #E2E2EA",
",	c #CDCDCF",
"'	c #D5D5D5",
")	c #CDCDCD",
"!	c #EBEBEB",
"~	c #E9E9EA",
"{	c #EAEAED",
"]	c #E3E3E4",
"^	c #747474",
"/	c #D9D9D9",
"(	c #E5E5E5",
"_	c #EEEEEE",
":	c #E7E7E7",
"<	c #787878",
"[	c #F1F1F1",
"}	c #CACACF",
"|	c #B7B7BB",
"1	c #D5D5D8",
"2	c #E7E7ED",
"3	c #D6D6D9",
"4	c #7A7A7A",
"5	c #F4F4F4",
"6	c #EBEBEF",
"7	c #E4E4E8",
"8	c #F1F1F2",
"9	c #EDEDF0",
"0	c #F3F3F3",
"a	c #F6F6F6",
"b	c #D6D6D7",
"c	c #7C7C7C",
"d	c #F8F8F8",
"e	c #CDCDD2",
"f	c #D3D3D8",
"g	c #8C8CCB",
"h	c #6969BC",
"i	c #C8C8E4",
"j	c #7D7D7D",
"k	c #FAFAFA",
"l	c #EEEEEF",
"m	c #ECECEE",
"n	c #3A3AA9",
"o	c #B2B2DB",
"p	c #E2E2EF",
"q	c #FBFBFB",
"r	c #CFCFD1",
"s	c #DEDEE0",
"t	c #8E8ECD",
"u	c #4646AE",
"v	c #CBCBE6",
"w	c #7E7E7E",
"x	c #FCFCFC",
"y	c #D5D5DA",
"z	c #A7A7D8",
"A	c #8383C8",
"B	c #8F8FCD",
"C	c #FDFDFD",
"D	c #F3F3F4",
"E	c #FBFBFC",
"F	c #7777C3",
"G	c #D9D9ED",
"H	c #7F7F7F",
"I	c #FEFEFE",
"J	c #FFFFFF",
"K	c #9A9A9A",
"    .+@@@@@@@@  ",
"   .#$%%%%%&*%. ",
"  .##=----;>,-. ",
" .##')!!!!~{]!. ",
" ^/''(____:$:_. ",
" <[[[[}|[[123[. ",
" 4555567558905. ",
" .abbaaaaaaaaa. ",
" cdefdddddghid. ",
" jklmkkkkknopk. ",
" jqrsqqqqqtuvq. ",
" wxeyxxxxxzABx. ",
" wCDECCCCCFFGC. ",
" HIIIIIIIIIIII. ",
" HJJJJJJJJJJJJ. ",
"  KKKKKKKKKKKK. "};
