/* XPM */
static char * tilehor_xpm[] = {
"16 16 182 2",
"  	c None",
". 	c #2D87E1",
"+ 	c #4097E8",
"@ 	c #3C91E7",
"# 	c #3686E3",
"$ 	c #307DE0",
"% 	c #2A74DC",
"& 	c #246AD8",
"* 	c #1E61D5",
"= 	c #1858D1",
"- 	c #1350CE",
"; 	c #0D46CB",
"> 	c #083DC6",
", 	c #0436C4",
"' 	c #022FC0",
") 	c #012BB8",
"! 	c #002299",
"~ 	c #449CEC",
"{ 	c #74C2FE",
"] 	c #64B2FE",
"^ 	c #58A4FE",
"/ 	c #4D99FE",
"( 	c #408BFE",
"_ 	c #357DFE",
": 	c #296FFE",
"< 	c #1D62FE",
"[ 	c #1355FE",
"} 	c #0A48FE",
"| 	c #023AFE",
"1 	c #002FFE",
"2 	c #002EFE",
"3 	c #002CFE",
"4 	c #0021B3",
"5 	c #56A4ED",
"6 	c #99CEFE",
"7 	c #8BC2FE",
"8 	c #83B9FE",
"9 	c #7BB1FE",
"0 	c #73A8FE",
"a 	c #6AA0FE",
"b 	c #6297FE",
"c 	c #598DFE",
"d 	c #5184FE",
"e 	c #487BFE",
"f 	c #3F70FE",
"g 	c #3969FE",
"h 	c #3768FE",
"i 	c #3968FD",
"j 	c #1339B7",
"k 	c #7CB7EC",
"l 	c #F9FCFE",
"m 	c #F8FBFE",
"n 	c #F7F9FE",
"o 	c #F6F9FE",
"p 	c #F6F8FE",
"q 	c #F5F8FE",
"r 	c #F3F6FE",
"s 	c #F0F3FC",
"t 	c #EDF1F9",
"u 	c #EBEDF8",
"v 	c #F2F2F8",
"w 	c #516DB9",
"x 	c #7FB7EC",
"y 	c #FEFEFE",
"z 	c #FDFDFD",
"A 	c #F9F9FB",
"B 	c #F7F7F8",
"C 	c #F5F5F7",
"D 	c #FCF8F7",
"E 	c #556FB8",
"F 	c #7FB5E9",
"G 	c #FCFCFD",
"H 	c #F8F8FB",
"I 	c #F6F6F9",
"J 	c #F3F3F7",
"K 	c #F1F1F6",
"L 	c #F7F5F6",
"M 	c #526CB7",
"N 	c #7CB2E9",
"O 	c #F7F7F9",
"P 	c #F1F1F5",
"Q 	c #EEEEF3",
"R 	c #F5F2F3",
"S 	c #506BB5",
"T 	c #78AEE7",
"U 	c #ECF2F8",
"V 	c #EDF2F9",
"W 	c #ECF1F8",
"X 	c #E8EEF7",
"Y 	c #E4EBF5",
"Z 	c #E2E8F2",
"` 	c #E0E6F1",
" .	c #DEE3EE",
"..	c #DBE1ED",
"+.	c #E0E4ED",
"@.	c #4B67B2",
"#.	c #5B98DC",
"$.	c #7BA3D6",
"%.	c #78A2D6",
"&.	c #79A3D7",
"*.	c #7AA4D7",
"=.	c #7AA4D8",
"-.	c #85ACDA",
";.	c #3A5CAF",
">.	c #76ACE4",
",.	c #F2F7FC",
"'.	c #EDF5FB",
").	c #ECF3FB",
"!.	c #EBF1F9",
"~.	c #E9F0F8",
"{.	c #E8EEF8",
"].	c #E6EDF6",
"^.	c #E4ECF6",
"/.	c #E2E9F5",
"(.	c #E1E8F3",
"_.	c #E0E7F3",
":.	c #EEEDF1",
"<.	c #5068B1",
"[.	c #7AAEE4",
"}.	c #FEFCFD",
"|.	c #FBF9FC",
"1.	c #F7F6F9",
"2.	c #F5F3F8",
"3.	c #F2F1F3",
"4.	c #EEEDF2",
"5.	c #EBE9F1",
"6.	c #E8E7EE",
"7.	c #E6E4ED",
"8.	c #E9E6EC",
"9.	c #4B66B1",
"0.	c #79ABE3",
"a.	c #FDFDFE",
"b.	c #FBFBFC",
"c.	c #F5F5F9",
"d.	c #F1F1F7",
"e.	c #F0F0F5",
"f.	c #ECECF2",
"g.	c #E9E9F1",
"h.	c #E6E6F0",
"i.	c #E3E3ED",
"j.	c #E1E1EC",
"k.	c #E6E3EB",
"l.	c #4B65B0",
"m.	c #78AAE3",
"n.	c #FBFBFD",
"o.	c #F0F0F6",
"p.	c #EDEDF3",
"q.	c #E7E7F0",
"r.	c #E3E3EE",
"s.	c #DEDEEB",
"t.	c #E3E1E9",
"u.	c #4A65B0",
"v.	c #7BAAE2",
"w.	c #FEFEFD",
"x.	c #FEFEFC",
"y.	c #FEFCF9",
"z.	c #FEF8F7",
"A.	c #FBF6F7",
"B.	c #F7F2F3",
"C.	c #F5F1F2",
"D.	c #F2EDF0",
"E.	c #EEEBEE",
"F.	c #ECE7ED",
"G.	c #E9E4E9",
"H.	c #E7E3E9",
"I.	c #EDE7E8",
"J.	c #4F68B1",
"K.	c #3678CF",
"L.	c #5F91D3",
"M.	c #5887CE",
"N.	c #5481CA",
"O.	c #507AC4",
"P.	c #4C75BF",
"Q.	c #486EBC",
"R.	c #4569B7",
"S.	c #4163B2",
"T.	c #3D5DAE",
"U.	c #3A59AA",
"V.	c #3A58AA",
"W.	c #3958AA",
"X.	c #3C5AAB",
"Y.	c #14389B",
". + @ # $ % & * = - ; > , ' ) ! ",
"~ { ] ^ / ( _ : < [ } | 1 2 3 4 ",
"5 6 7 8 9 0 a b c d e f g h i j ",
"k l m m n n o p p q r s t u v w ",
"x y y y y y y y y y z A B C D E ",
"F y y y y y y y y G H I J K L M ",
"N y y y y y y y z A O J P Q R S ",
"T U V V V V V W X Y Z `  ...+.@.",
"#.$.%.%.%.%.%.&.&.&.*.*.=.=.-.;.",
">.,.'.'.'.).!.~.{.].^./.(._.:.<.",
"[.y y y y }.|.1.2.3.4.5.6.7.8.9.",
"0.y y a.b.H c.d.e.f.g.h.i.j.k.l.",
"m.y y n.H I v o.p.g.q.r.j.s.t.u.",
"v.y w.x.y.z.A.B.C.D.E.F.G.H.I.J.",
"K.L.M.N.O.P.Q.R.S.T.U.V.W.W.X.Y.",
"                                "};
