/* XPM */
static char * tilever_xpm[] = {
"16 16 166 2",
"  	c None",
". 	c #2D87E1",
"+ 	c #4097E8",
"@ 	c #3C91E7",
"# 	c #3686E3",
"$ 	c #307DE0",
"% 	c #2A74DC",
"& 	c #246AD8",
"* 	c #1E61D5",
"= 	c #1858D1",
"- 	c #1350CE",
"; 	c #0D46CB",
"> 	c #083DC6",
", 	c #0436C4",
"' 	c #022FC0",
") 	c #012BB8",
"! 	c #002299",
"~ 	c #449CEC",
"{ 	c #74C2FE",
"] 	c #64B2FE",
"^ 	c #58A4FE",
"/ 	c #4D99FE",
"( 	c #408BFE",
"_ 	c #357DFE",
": 	c #296FFE",
"< 	c #1D62FE",
"[ 	c #1355FE",
"} 	c #0A48FE",
"| 	c #023AFE",
"1 	c #002FFE",
"2 	c #002EFE",
"3 	c #002CFE",
"4 	c #0021B3",
"5 	c #56A4ED",
"6 	c #99CEFE",
"7 	c #8BC2FE",
"8 	c #83B9FE",
"9 	c #7BB1FE",
"0 	c #73A8FE",
"a 	c #6AA0FE",
"b 	c #689BFE",
"c 	c #5C8FFE",
"d 	c #5184FE",
"e 	c #487BFE",
"f 	c #3F70FE",
"g 	c #3969FE",
"h 	c #3768FE",
"i 	c #3968FD",
"j 	c #1339B7",
"k 	c #7CB7EC",
"l 	c #F9FCFE",
"m 	c #F8FBFE",
"n 	c #F7F9FE",
"o 	c #F6F9FE",
"p 	c #95B6E1",
"q 	c #BFD7F1",
"r 	c #F5F8FE",
"s 	c #F3F6FE",
"t 	c #F0F3FC",
"u 	c #EDF1F9",
"v 	c #EBEDF8",
"w 	c #F2F2F8",
"x 	c #516DB9",
"y 	c #7FB7EC",
"z 	c #FEFEFE",
"A 	c #8FB2DD",
"B 	c #C2DAF0",
"C 	c #FDFDFD",
"D 	c #F9F9FB",
"E 	c #F7F7F8",
"F 	c #F5F5F7",
"G 	c #FCF8F7",
"H 	c #556FB8",
"I 	c #7FB5E9",
"J 	c #C0D8F0",
"K 	c #F8F8FB",
"L 	c #F6F6F9",
"M 	c #F3F3F7",
"N 	c #F1F1F6",
"O 	c #F7F5F6",
"P 	c #526CB7",
"Q 	c #7CB2E9",
"R 	c #BFD7F0",
"S 	c #F1F1F5",
"T 	c #EEEEF3",
"U 	c #F5F2F3",
"V 	c #506BB5",
"W 	c #7CB1E8",
"X 	c #BFD6F0",
"Y 	c #FCF9FB",
"Z 	c #EBEBF2",
"` 	c #F1EEF1",
" .	c #4E69B3",
"..	c #7BB0E7",
"+.	c #8FB1DD",
"@.	c #F8F6F9",
"#.	c #EDEDF5",
"$.	c #E9E9F1",
"%.	c #EDEBF0",
"&.	c #4D68B2",
"*.	c #79AEE6",
"=.	c #FDFDFE",
"-.	c #8EB1DD",
";.	c #BED5EE",
">.	c #F6F3F7",
",.	c #E8E8F0",
"'.	c #E6E6EE",
").	c #EBE8ED",
"!.	c #4C67B1",
"~.	c #79ACE4",
"{.	c #F9F9FC",
"].	c #FEFCFC",
"^.	c #8DB0DC",
"/.	c #F3F1F5",
"(.	c #E8E8F1",
"_.	c #E3E3ED",
":.	c #E8E4EC",
"<.	c #4B66B1",
"[.	c #79ABE3",
"}.	c #FBFBFC",
"|.	c #BDD5ED",
"1.	c #F1EEF3",
"2.	c #E6E6F0",
"3.	c #E1E1EC",
"4.	c #E6E3EB",
"5.	c #4B65B0",
"6.	c #78AAE3",
"7.	c #FBFBFD",
"8.	c #F9F7F9",
"9.	c #BDD3ED",
"0.	c #EEEDF2",
"a.	c #E7E7F0",
"b.	c #E3E3EE",
"c.	c #DEDEEB",
"d.	c #E3E1E9",
"e.	c #4A65B0",
"f.	c #7BAAE2",
"g.	c #FEFEFD",
"h.	c #FEFEFC",
"i.	c #FEFCF9",
"j.	c #FEF8F7",
"k.	c #FEF9F7",
"l.	c #93B5DE",
"m.	c #C8DDF2",
"n.	c #F6F0F1",
"o.	c #EEEBEE",
"p.	c #ECE7ED",
"q.	c #E9E4E9",
"r.	c #E7E3E9",
"s.	c #EDE7E8",
"t.	c #4F68B1",
"u.	c #3678CF",
"v.	c #5F91D3",
"w.	c #5887CE",
"x.	c #5481CA",
"y.	c #507AC4",
"z.	c #4C75BF",
"A.	c #496FBC",
"B.	c #3962B5",
"C.	c #3C61B3",
"D.	c #3D5DAE",
"E.	c #3A59AA",
"F.	c #3A58AA",
"G.	c #3958AA",
"H.	c #3C5AAB",
"I.	c #14389B",
". + @ # $ % & * = - ; > , ' ) ! ",
"~ { ] ^ / ( _ : < [ } | 1 2 3 4 ",
"5 6 7 8 9 0 a b c d e f g h i j ",
"k l m m n n o p q r s t u v w x ",
"y z z z z z z A B z C D E F G H ",
"I z z z z z z A J z K L M N O P ",
"Q z z z z z z A R C L M S T U V ",
"W z z z z z z A X Y M N T Z `  .",
"..z z z z z z +.X @.N #.Z $.%.&.",
"*.z z z z =.z -.;.>.T Z ,.'.).!.",
"~.z z z C {.].^.;./.Z (.'._.:.<.",
"[.z z =.}.K Y ^.|.1.$.2._.3.4.5.",
"6.z z 7.K L 8.^.9.0.a.b.3.c.d.e.",
"f.z g.h.i.j.k.l.m.n.o.p.q.r.s.t.",
"u.v.w.x.y.z.A.B.C.D.E.F.G.G.H.I.",
"                                "};
