/* XPM */
static char * unknown_xpm[] = {
"32 32 133 2",
"  	c None",
". 	c #FFFFFF",
"+ 	c #F6F6F6",
"@ 	c #D2D2D2",
"# 	c #A6A6A6",
"$ 	c #878787",
"% 	c #979797",
"& 	c #949494",
"* 	c #CECECE",
"= 	c #FBFBFB",
"- 	c #DADADA",
"; 	c #8A8A8A",
"> 	c #3F3F3F",
", 	c #161616",
"' 	c #050505",
") 	c #111111",
"! 	c #0D0D0D",
"~ 	c #090909",
"{ 	c #3B3B3B",
"] 	c #838383",
"^ 	c #D7D7D7",
"/ 	c #C5C5C5",
"( 	c #454545",
"_ 	c #141414",
": 	c #393939",
"< 	c #545454",
"[ 	c #858585",
"} 	c #636363",
"| 	c #343434",
"1 	c #171717",
"2 	c #0B0B0B",
"3 	c #4E4E4E",
"4 	c #CACACA",
"5 	c #FAFAFA",
"6 	c #DEDEDE",
"7 	c #484848",
"8 	c #000000",
"9 	c #313131",
"0 	c #888888",
"a 	c #CCCCCC",
"b 	c #E7E7E7",
"c 	c #F9F9F9",
"d 	c #EBEBEB",
"e 	c #919191",
"f 	c #373737",
"g 	c #181818",
"h 	c #585858",
"i 	c #E0E0E0",
"j 	c #FDFDFD",
"k 	c #A1A1A1",
"l 	c #323232",
"m 	c #B1B1B1",
"n 	c #F8F8F8",
"o 	c #A2A2A2",
"p 	c #282828",
"q 	c #202020",
"r 	c #B2B2B2",
"s 	c #F1F1F1",
"t 	c #676767",
"u 	c #6F6F6F",
"v 	c #DBDBDB",
"w 	c #4D4D4D",
"x 	c #101010",
"y 	c #9A9A9A",
"z 	c #D0D0D0",
"A 	c #434343",
"B 	c #242424",
"C 	c #DCDCDC",
"D 	c #070707",
"E 	c #8F8F8F",
"F 	c #989898",
"G 	c #0A0A0A",
"H 	c #3E3E3E",
"I 	c #D4D4D4",
"J 	c #404040",
"K 	c #272727",
"L 	c #B6B6B6",
"M 	c #AFAFAF",
"N 	c #3D3D3D",
"O 	c #F2F2F2",
"P 	c #BFBFBF",
"Q 	c #464646",
"R 	c #0C0C0C",
"S 	c #EFEFEF",
"T 	c #757575",
"U 	c #363636",
"V 	c #CDCDCD",
"W 	c #D9D9D9",
"X 	c #7D7D7D",
"Y 	c #222222",
"Z 	c #121212",
"` 	c #8C8C8C",
" .	c #C6C6C6",
"..	c #4A4A4A",
"+.	c #151515",
"@.	c #191919",
"#.	c #6C6C6C",
"$.	c #E8E8E8",
"%.	c #929292",
"&.	c #E6E6E6",
"*.	c #6B6B6B",
"=.	c #333333",
"-.	c #B0B0B0",
";.	c #1D1D1D",
">.	c #262626",
",.	c #9F9F9F",
"'.	c #7B7B7B",
").	c #606060",
"!.	c #ECECEC",
"~.	c #5C5C5C",
"{.	c #8D8D8D",
"].	c #1A1A1A",
"^.	c #A4A4A4",
"/.	c #505050",
"(.	c #080808",
"_.	c #EDEDED",
":.	c #2B2B2B",
"<.	c #BABABA",
"[.	c #FCFCFC",
"}.	c #C9C9C9",
"|.	c #F5F5F5",
"1.	c #F7F7F7",
"2.	c #C3C3C3",
"3.	c #8E8E8E",
"4.	c #BCBCBC",
"5.	c #1C1C1C",
"6.	c #030303",
"7.	c #010101",
"8.	c #9E9E9E",
"9.	c #020202",
"0.	c #B7B7B7",
"a.	c #EEEEEE",
"b.	c #F3F3F3",
". . . . . . . . . . . . . . . . . . . . . . . . . . . . . . . . ",
". . . . . . . . . . . . . . . . . . . . . . . . . . . . . . . . ",
". . . . . . . . . . . . . + @ # $ % & % * + . . . . . . . . . . ",
". . . . . . . . . . . = - ; > , ' ) ! ~ { ] ^ = . . . . . . . . ",
". . . . . . . . . . = / ( _ _ : < [ } | 1 2 3 4 5 . . . . . . . ",
". . . . . . . . . . 6 7 8 9 0 a b c d a e f g h i . . . . . . . ",
". . . . . . . . . j k , l m + . . . . . n o p q r . . . . . . . ",
". . . . . . . . . s t 8 u + . . . . . . . v w x y . . . . . . . ",
". . . . . . . . . z A B r . . . . . . . . C 7 D E . . . . . . . ",
". . . . . . . . . F G H I . . . . . . . . * J K L . . . . . . . ",
". . . . . . . . . M g % n . . . . . . . = ; G N I . . . . . . . ",
". . . . . . . . . O P O . . . . . . . . ^ Q R $ n . . . . . . . ",
". . . . . . . . . . . . . . . . . . . S T G U V . . . . . . . . ",
". . . . . . . . . . . . . . . . . = W X Y Z ` n . . . . . . . . ",
". . . . . . . . . . . . . . . . =  ...+.@.#.$.. . . . . . . . . ",
". . . . . . . . . . . . . . . j @ Q ~ U %.&.j . . . . . . . . . ",
". . . . . . . . . . . . . . . d *.R =.-.+ . . . . . . . . . . . ",
". . . . . . . . . . . . . . . M ;.>.,.n . . . . . . . . . . . . ",
". . . . . . . . . . . . . . n '.D ).!.. . . . . . . . . . . . . ",
". . . . . . . . . . . . . . b ~.R {.j . . . . . . . . . . . . . ",
". . . . . . . . . . . . . . &.t ].^.. . . . . . . . . . . . . . ",
". . . . . . . . . . . . . . i /.(.e . . . . . . . . . . . . . . ",
". . . . . . . . . . . . . . _.] :.<.. . . . . . . . . . . . . . ",
". . . . . . . . . . . . . . [.$.}.|.. . . . . . . . . . . . . . ",
". . . . . . . . . . . . . . . . . . . . . . . . . . . . . . . . ",
". . . . . . . . . . . . . . 1.2.3.I = . . . . . . . . . . . . . ",
". . . . . . . . . . . . . . 4.5.6.f W . . . . . . . . . . . . . ",
". . . . . . . . . . . . . . #.8 7.(.y . . . . . . . . . . . . . ",
". . . . . . . . . . . . . . 8.2 9.g 0.. . . . . . . . . . . . . ",
". . . . . . . . . . . . . . a.k X r b.. . . . . . . . . . . . . ",
". . . . . . . . . . . . . . . . . . . . . . . . . . . . . . . . ",
". . . . . . . . . . . . . . . . . . . . . . . . . . . . . . . . "};
