/* XPM */
static char * whatsthis_xpm[] = {
"16 16 106 2",
"  	c None",
". 	c #414141",
"+ 	c #C00707",
"@ 	c #CB2020",
"# 	c #CA2626",
"$ 	c #BA1313",
"% 	c #CA1414",
"& 	c #EC7171",
"* 	c #F7B8B8",
"= 	c #FACECE",
"- 	c #F4B3B3",
"; 	c #CF4B4B",
"> 	c #FFFFFF",
", 	c #202020",
"' 	c #C50A0A",
") 	c #F46C6C",
"! 	c #FED2D2",
"~ 	c #FCFAFA",
"{ 	c #FFF2F2",
"] 	c #FFCFCF",
"^ 	c #C63E3E",
"/ 	c #F7F7F7",
"( 	c #3B3B3B",
"_ 	c #BE0101",
": 	c #DE2828",
"< 	c #FF8282",
"[ 	c #F9E0E0",
"} 	c #FFC7C7",
"| 	c #FB7171",
"1 	c #F9DDDD",
"2 	c #FFDFDF",
"3 	c #F04444",
"4 	c #990404",
"5 	c #494949",
"6 	c #C60404",
"7 	c #ED2B2B",
"8 	c #FF5050",
"9 	c #FE8282",
"0 	c #FE5252",
"a 	c #EF5858",
"b 	c #F7EDED",
"c 	c #F98484",
"d 	c #F30606",
"e 	c #AE0202",
"f 	c #535353",
"g 	c #C80404",
"h 	c #F11414",
"i 	c #FF1C1C",
"j 	c #FE0D0D",
"k 	c #F52D2D",
"l 	c #F6DADA",
"m 	c #F9B5B5",
"n 	c #EF0E0E",
"o 	c #F40000",
"p 	c #B40000",
"q 	c #767575",
"r 	c #EC0000",
"s 	c #FF0000",
"t 	c #FB0000",
"u 	c #F05B5B",
"v 	c #FDD6D6",
"w 	c #F72121",
"x 	c #F60000",
"y 	c #FA0000",
"z 	c #AC0000",
"A 	c #FF0404",
"B 	c #FD0000",
"C 	c #F33E3E",
"D 	c #F67777",
"E 	c #FE0404",
"F 	c #FF0202",
"G 	c #EF0303",
"H 	c #8C0000",
"I 	c #979797",
"J 	c #1B1B1B",
"K 	c #1E1A1A",
"L 	c #F31212",
"M 	c #FF0E0E",
"N 	c #F16666",
"O 	c #F6B3B3",
"P 	c #FF2828",
"Q 	c #FF1111",
"R 	c #B80808",
"S 	c #585858",
"T 	c #987B7B",
"U 	c #AB1212",
"V 	c #E21B1B",
"W 	c #FE6666",
"X 	c #FF9898",
"Y 	c #F13434",
"Z 	c #BD1010",
"` 	c #000000",
" .	c #999999",
"..	c #967A7A",
"+.	c #940606",
"@.	c #AB0D0D",
"#.	c #AE0D0D",
"$.	c #960A0A",
"%.	c #6D6D6D",
"&.	c #4A4A4A",
"*.	c #323232",
"=.	c #FCFCFC",
"-.	c #7D7D7D",
";.	c #5A5A5A",
">.	c #1C1C1C",
",.	c #0B0B0B",
".                 + @ # $       ",
".               % & * = - ;     ",
". > ,         ' ) ! ~ { > ] ^   ",
". > / (     _ : < [ } | 1 2 3 4 ",
". > > > 5   6 7 8 9 0 a b c d e ",
". > > > > f g h i j k l m n o p ",
". > > > > > q r s t u v w x y z ",
". > > > > > > q A B C D E F G H ",
". > > > > I J K L M N O P Q R   ",
". > > S > S   T U V W X Y Z     ",
". > ` ` > > `  ...+.@.#.$.      ",
". `     %.> &.                  ",
"        *.> =.`                 ",
"          -.> ;.                ",
"          >.> > `               ",
"            ,.,.                "};
